<?xml version="1.0" standalone="no"?>
<!DOCTYPE svg PUBLIC "-//W3C//DTD SVG 20010904//EN"
 "http://www.w3.org/TR/2001/REC-SVG-20010904/DTD/svg10.dtd">
<svg version="1.0" xmlns="http://www.w3.org/2000/svg"
 width="4032.000000pt" height="3024.000000pt" viewBox="0 0 4032.000000 3024.000000"
 preserveAspectRatio="xMidYMid meet">
<metadata>
Created by potrace 1.16, written by Peter Selinger 2001-2019
</metadata>
<g transform="translate(0.000000,3024.000000) scale(0.100000,-0.100000)"
fill="#000000" stroke="none">
<path d="M0 15120 l0 -15120 20160 0 20160 0 0 15120 0 15120 -20160 0 -20160
0 0 -15120z m24394 -424 c27 -14 59 -26 71 -26 28 0 172 -74 206 -106 14 -13
30 -24 36 -24 15 0 133 -139 133 -157 0 -9 16 -33 35 -54 l35 -39 0 -684 0
-684 -82 5 c-46 3 -85 7 -86 9 -2 1 -5 74 -7 161 -2 150 -10 296 -35 673 -6
91 -14 257 -19 370 -5 131 -12 213 -20 228 -34 64 -83 92 -157 92 -37 0 -44
13 -44 76 l0 45 -62 -6 c-35 -2 -171 -7 -303 -10 -132 -3 -292 -8 -356 -12
-78 -4 -122 -2 -136 6 -14 7 -23 7 -25 1 -2 -6 -82 -14 -188 -19 -187 -9 -204
-9 -274 4 -28 6 -37 5 -32 -4 5 -7 -2 -11 -19 -11 -15 0 -24 4 -20 10 3 6 1
10 -4 10 -6 0 -11 -5 -11 -11 0 -6 -25 -10 -67 -9 -38 1 -135 -1 -218 -4 -82
-4 -224 -8 -315 -10 -91 -1 -173 -6 -182 -10 -18 -8 -511 -23 -675 -21 -56 1
-100 -2 -97 -6 5 -8 -79 -10 -483 -12 -84 -1 -153 -4 -153 -8 0 -4 -29 -7 -64
-6 -35 1 -62 5 -60 9 3 5 -6 4 -19 -1 -45 -17 -258 -31 -547 -35 -157 -3 -368
-9 -470 -15 -330 -19 -563 -24 -555 -12 3 7 -2 11 -14 11 -10 0 -21 -4 -23 -9
-1 -5 -104 -12 -228 -15 -124 -3 -259 -9 -301 -12 -50 -4 -79 -2 -84 5 -9 16
-25 14 -19 -2 4 -10 -7 -14 -41 -14 -25 0 -45 4 -45 9 0 4 -12 8 -26 8 -14 0
-23 -4 -20 -9 7 -11 -83 -18 -284 -19 -91 -1 -268 -6 -395 -12 -476 -21 -706
-30 -920 -35 -121 -3 -310 -10 -420 -15 -110 -5 -324 -12 -475 -15 -151 -3
-295 -8 -320 -10 -25 -3 -180 -7 -345 -10 -165 -3 -365 -10 -445 -15 -124 -8
-545 -24 -970 -35 -63 -2 -115 -4 -115 -5 0 -1 -64 -4 -142 -5 -77 -2 -208 -6
-290 -10 -219 -9 -637 -23 -988 -35 -170 -5 -422 -14 -560 -20 -137 -6 -338
-13 -445 -15 -250 -6 -428 -15 -447 -22 -18 -7 -15 -182 17 -908 5 -126 12
-302 15 -390 l5 -160 148 3 c81 1 234 8 340 14 149 9 201 9 226 0 27 -10 38
-10 62 3 17 8 55 15 90 15 l61 0 6 -82 c4 -46 7 -131 7 -190 0 -97 -2 -109
-20 -120 -11 -7 -20 -23 -20 -35 0 -21 -5 -23 -48 -23 -37 0 -50 5 -60 20 -7
12 -9 26 -5 33 4 7 6 65 5 129 -3 113 -4 118 -32 148 -15 16 -33 30 -39 30 -6
0 -11 4 -11 8 0 5 -10 14 -22 20 -13 6 -17 11 -10 11 6 1 12 6 12 11 0 7 -28
10 -75 8 -53 -2 -74 -6 -71 -15 3 -6 -6 -18 -19 -27 -15 -10 -22 -22 -18 -34
6 -24 -22 -32 -92 -27 -27 2 -54 0 -60 -5 -6 -5 -26 -8 -45 -8 -19 1 -108 0
-197 -1 -90 -1 -166 0 -171 3 -5 3 -19 -1 -33 -8 -13 -7 -31 -10 -38 -8 -10 3
-12 0 -8 -13 8 -18 22 -165 20 -205 -2 -59 19 -315 27 -320 4 -3 11 -48 14
-100 3 -52 8 -110 12 -129 5 -23 3 -36 -7 -42 -12 -8 -11 -11 3 -19 11 -7 15
-19 11 -41 -2 -16 1 -37 7 -44 7 -8 9 -19 6 -24 -4 -6 5 -32 19 -59 18 -35 33
-51 51 -55 25 -4 27 0 36 57 2 14 13 20 41 23 32 3 37 1 37 -17 0 -26 16 -26
30 0 11 21 40 17 40 -7 0 -21 23 -11 30 13 6 23 30 57 47 67 6 4 18 0 27 -8
11 -11 21 -13 32 -7 14 8 14 10 -1 25 -15 15 -15 17 -1 17 10 0 16 9 16 25 0
28 15 34 24 9 10 -25 7 -34 -9 -34 -8 0 -15 -4 -15 -10 0 -22 33 -5 43 22 4
11 13 15 26 11 13 -3 21 -1 21 7 0 8 8 10 21 7 12 -3 18 -3 15 0 -3 3 0 15 6
26 9 17 8 19 -6 14 -9 -4 -16 -2 -16 3 0 13 27 13 35 0 3 -5 19 -10 36 -10 16
0 29 -4 29 -9 0 -15 -42 -41 -67 -41 -20 0 -22 -4 -18 -36 5 -42 3 -39 33 -48
24 -8 29 3 11 21 -16 16 -3 43 21 43 22 0 25 -12 10 -40 -9 -17 -5 -18 66 -13
58 3 84 1 111 -12 26 -13 37 -14 43 -6 4 7 11 11 16 9 5 -1 23 3 41 11 32 13
32 14 18 41 -8 16 -12 35 -9 43 7 20 -15 35 -63 43 l-42 6 -3 -38 c-2 -24 -8
-38 -15 -37 -8 2 -10 -4 -6 -14 6 -14 1 -15 -37 -9 -54 8 -54 9 -40 35 12 23
46 28 53 9 7 -20 21 0 23 32 2 29 1 30 -44 31 -26 1 -56 0 -67 -1 -20 -2 -20
-2 -1 19 11 12 14 21 8 21 -7 0 -12 -5 -12 -10 0 -6 -17 -10 -40 -8 -22 1 -40
4 -40 7 0 4 -18 7 -41 8 -25 1 -45 7 -53 19 -15 20 -66 13 -66 -10 0 -10 -7
-11 -34 -2 -29 9 -33 13 -25 28 5 10 7 18 3 18 -4 0 1 9 12 21 13 14 14 19 4
17 -20 -4 -25 31 -5 38 9 4 21 -1 29 -11 9 -13 15 -15 20 -6 4 6 2 19 -6 28
-10 13 -10 17 0 21 7 2 19 10 27 19 8 8 15 10 15 4 0 -6 15 -11 34 -11 29 0
33 3 30 23 -5 26 17 57 43 61 10 2 20 11 21 21 3 11 0 15 -7 11 -6 -4 -11 -2
-11 3 0 19 19 12 36 -14 15 -23 15 -27 -6 -60 -12 -19 -30 -40 -41 -45 -10 -6
-19 -18 -19 -26 0 -13 -2 -13 -16 1 -12 12 -19 13 -24 5 -10 -16 -3 -64 10
-68 7 -3 7 -8 1 -16 -6 -7 -5 -18 4 -30 13 -18 16 -18 40 -2 24 16 25 15 25
-2 0 -29 10 -33 44 -14 60 33 84 57 75 75 -14 24 -4 64 25 102 l26 34 -26 20
c-15 12 -30 21 -34 21 -4 0 -7 11 -7 25 0 37 41 34 78 -6 24 -26 31 -29 49
-19 11 6 30 8 40 5 16 -5 20 -2 20 14 0 12 5 21 11 21 6 0 9 -9 6 -20 -10 -39
51 -27 68 13 6 12 17 22 25 22 8 0 15 7 15 15 0 8 -7 15 -15 15 -8 0 -25 11
-37 25 l-22 25 22 17 c14 11 32 15 49 11 16 -3 28 -1 28 5 0 5 15 19 33 30
l34 19 38 -23 c49 -29 53 -37 60 -120 3 -38 10 -107 16 -154 6 -47 13 -145 16
-218 6 -168 -1 -185 -80 -180 -46 3 -53 6 -65 31 -27 57 -33 14 -22 -174 6
-101 13 -199 16 -216 5 -29 3 -34 -21 -43 -34 -13 -118 -13 -131 0 -7 7 -38 7
-94 0 -115 -14 -126 -17 -149 -41 -20 -21 -21 -21 -83 -4 -58 15 -79 16 -219
4 -85 -7 -175 -12 -201 -12 l-47 0 -3 -144 c-2 -78 0 -144 4 -146 4 -1 88 1
185 4 98 4 230 8 293 9 63 2 155 11 204 22 106 21 223 25 191 5 -17 -10 -12
-13 40 -17 l60 -5 3 -172 2 -172 -35 -35 c-48 -48 -68 -46 -94 7 -17 36 -21
62 -21 155 l0 112 -27 11 c-16 6 -45 9 -65 6 -26 -3 -38 -1 -42 9 -3 8 -17 19
-31 26 -22 10 -28 8 -45 -10 -11 -12 -20 -26 -20 -32 0 -6 -11 -15 -25 -20
-21 -8 -429 -29 -567 -30 -31 0 -39 -5 -58 -37 -20 -33 -23 -56 -27 -168 -2
-71 -4 -137 -4 -145 0 -8 2 -33 5 -55 12 -74 14 -135 5 -140 -4 -3 -6 -12 -3
-19 3 -7 6 -24 8 -37 1 -13 8 -37 15 -54 7 -16 9 -31 4 -32 -15 -5 -7 -125 9
-134 16 -9 13 -59 -3 -59 -5 0 -9 -5 -9 -11 0 -5 4 -8 9 -4 5 3 12 1 16 -5 3
-5 -1 -10 -11 -10 -12 0 -14 -3 -6 -12 6 -7 12 -26 14 -43 2 -18 9 -31 18 -31
8 -1 21 -2 28 -3 6 0 12 -7 12 -15 0 -24 22 -30 37 -10 11 15 15 16 22 5 11
-18 45 -10 49 12 2 11 -8 23 -27 35 -38 21 -39 26 -1 42 27 11 32 11 45 -6 17
-23 18 -35 6 -67 -8 -20 -6 -29 9 -42 11 -10 20 -12 24 -6 4 5 -1 14 -10 19
-21 12 -14 46 10 50 15 3 17 0 12 -14 -9 -23 11 -35 41 -23 12 4 29 6 37 3 17
-6 31 12 16 21 -14 9 -2 25 19 25 26 0 43 21 30 37 -9 10 -2 13 37 13 45 0 51
3 96 53 39 43 46 48 42 27 -3 -20 -1 -19 11 7 13 29 18 32 47 26 67 -12 64
-41 -6 -62 -60 -17 -62 -42 -6 -61 26 -9 40 -19 40 -31 0 -25 11 -49 22 -49 5
0 8 6 7 13 -3 27 1 38 14 31 10 -6 10 -4 0 7 -18 19 -16 29 7 29 26 0 110 20
133 32 10 5 26 7 35 4 17 -6 72 36 72 54 0 4 -12 27 -27 49 -32 50 -61 53 -94
11 -22 -27 -48 -43 -35 -21 7 11 -56 24 -78 15 -18 -7 -22 6 -6 22 13 13 1 54
-16 54 -18 0 -18 9 3 32 14 15 14 22 3 42 -17 33 7 98 41 106 14 4 26 18 34
40 6 18 17 36 23 38 7 2 12 10 12 18 0 12 8 13 38 8 20 -4 45 -7 54 -6 10 0
20 -3 23 -8 13 -21 105 55 105 86 0 7 -6 14 -12 17 -8 3 -3 9 12 15 14 5 36
22 49 36 36 39 56 33 90 -25 22 -39 29 -65 30 -105 0 -30 2 -58 5 -62 2 -4 10
-98 16 -209 11 -182 10 -204 -5 -226 -25 -39 -72 -52 -112 -30 -18 9 -34 15
-36 13 -2 -3 -1 -39 3 -80 4 -41 11 -141 15 -221 l7 -146 -32 -7 c-18 -3 -48
-6 -66 -6 -29 0 -35 4 -40 28 -3 15 -7 32 -9 38 -5 15 -101 -6 -195 -44 -74
-29 -80 -30 -348 -41 -150 -6 -277 -13 -281 -16 -10 -5 -7 -263 3 -272 4 -4
145 -6 315 -4 213 2 311 -1 316 -8 3 -6 16 -11 28 -11 28 0 10 -17 -23 -22
-14 -1 -25 -9 -25 -15 0 -37 -120 -61 -320 -63 -75 0 -309 -7 -339 -9 -5 -1
-6 -16 -3 -35 3 -19 2 -37 -1 -41 -11 -10 -12 -67 -9 -467 1 -130 4 -235 7
-233 3 2 5 -60 4 -136 0 -103 3 -143 13 -151 7 -6 10 -20 7 -34 -3 -12 -2 -29
2 -36 5 -7 9 -40 10 -73 l1 -60 103 3 c67 2 123 9 159 21 77 26 110 32 172 33
32 0 72 9 103 23 90 40 106 45 139 45 18 0 41 7 52 16 20 15 20 15 -4 33 -31
24 -57 151 -30 151 6 0 29 16 52 35 29 25 50 35 75 35 18 0 40 7 48 15 9 8 27
15 42 15 15 0 22 4 16 8 -7 4 -17 26 -24 49 -22 72 -37 81 -129 78 -90 -4
-111 7 -91 46 9 16 9 28 1 46 -12 26 0 37 35 31 27 -5 43 45 21 67 -21 21 -21
24 3 55 11 14 20 31 20 38 0 9 7 11 20 7 12 -4 27 -1 35 5 12 10 18 10 29 1 9
-8 28 -10 49 -6 24 5 42 2 59 -9 14 -9 28 -13 31 -9 15 14 57 -40 57 -73 0
-18 5 -36 10 -39 11 -7 11 -6 16 40 2 17 5 39 6 50 2 12 -6 24 -23 32 -48 23
-55 39 -34 81 10 20 19 39 20 42 7 32 21 53 38 59 17 6 24 3 34 -17 7 -13 10
-28 7 -34 -3 -5 4 -20 16 -33 12 -12 23 -36 26 -51 2 -16 6 -45 9 -64 3 -19
10 -119 16 -223 13 -217 11 -224 -69 -259 -38 -17 -51 -19 -76 -10 -16 7 -32
10 -34 7 -3 -3 0 -22 6 -42 6 -21 14 -108 17 -193 3 -85 8 -172 10 -192 5 -36
5 -37 -37 -45 -24 -5 -56 -6 -73 -3 -26 5 -30 11 -33 40 -4 57 -12 80 -26 80
-8 0 -16 7 -20 15 -3 8 -12 15 -19 15 -8 0 -19 12 -26 26 -11 24 -15 26 -53
20 -50 -8 -56 -12 -40 -28 17 -17 15 -28 -7 -28 -24 0 -31 -19 -31 -80 0 -27
-6 -52 -13 -58 -8 -7 -126 -16 -297 -24 l-283 -13 -3 -25 c-1 -14 1 -115 6
-225 5 -110 15 -365 21 -567 l12 -367 41 -15 c23 -8 81 -22 130 -32 49 -9 101
-23 115 -30 32 -17 188 -18 381 -4 214 16 442 26 860 36 177 4 259 9 347 19
37 5 79 3 105 -3 31 -8 54 -8 83 0 22 6 65 13 95 15 49 4 53 3 36 -10 -11 -8
-16 -19 -12 -26 6 -9 11 -8 20 5 9 12 31 18 76 20 66 4 78 -2 106 -52 6 -10
20 -23 32 -29 12 -5 22 -18 22 -28 0 -13 5 -17 16 -13 8 3 13 2 10 -3 -3 -5
-16 -11 -29 -13 -20 -4 -23 -1 -19 14 2 10 -1 18 -7 18 -6 0 -11 -4 -11 -9 0
-5 -19 -16 -42 -26 -37 -14 -40 -18 -25 -27 13 -7 32 -6 63 5 45 15 67 6 45
-16 -9 -9 -299 -12 -1154 -12 l-1142 0 -79 42 c-43 23 -84 51 -92 61 -7 11
-24 22 -36 26 -13 3 -34 21 -47 41 -13 19 -27 35 -32 35 -5 0 -17 12 -26 27
-16 25 -18 69 -23 490 l-5 462 -38 38 c-20 22 -37 47 -37 56 0 9 -17 35 -37
58 -36 39 -37 43 -43 139 -7 94 -9 101 -38 128 -24 22 -32 40 -37 83 -4 30 -4
250 -1 489 7 530 7 418 -2 907 l-7 412 -35 36 -35 36 0 627 c0 345 1 645 3
667 2 22 0 82 -4 134 -7 90 -9 96 -43 134 l-36 40 -3 331 c-5 422 -1 463 44
517 l34 41 0 271 c1 311 6 352 47 384 l28 23 5 660 5 659 40 40 c22 22 44 40
48 41 5 0 23 11 41 25 19 15 53 28 82 32 27 3 61 15 76 26 15 11 51 24 80 28
29 4 338 8 686 8 631 1 634 1 664 22 21 15 54 24 107 30 42 4 406 8 810 8
l735 1 24 23 24 22 718 5 718 5 27 25 27 25 821 5 822 5 40 25 40 25 750 5
750 5 40 25 40 25 915 5 915 5 33 25 34 25 746 5 747 5 40 25 40 25 870 5 870
5 30 21 c41 30 63 33 185 29 90 -3 112 -7 154 -29z m-4489 -545 c3 -5 -2 -17
-11 -25 -12 -12 -36 -16 -100 -16 -81 0 -84 -1 -90 -25 -3 -14 -3 -36 0 -50 6
-24 11 -26 56 -24 56 3 69 -4 54 -29 -7 -10 -27 -18 -53 -20 l-41 -3 0 -50 0
-49 94 0 c58 0 97 -4 102 -11 14 -24 -20 -34 -126 -37 -129 -4 -117 -19 -123
158 -3 63 -8 124 -12 136 -14 42 16 54 135 54 60 0 111 -4 115 -9z m-902 -18
c3 -5 8 -59 12 -120 l7 -113 -58 -60 c-31 -33 -62 -60 -68 -60 -6 0 -37 26
-69 57 l-59 56 -5 114 c-5 99 -3 114 11 119 9 4 20 3 24 -1 4 -3 10 -54 13
-112 7 -102 8 -106 39 -134 38 -35 50 -36 77 -6 37 41 42 59 36 149 -4 63 -2
92 7 103 14 16 26 19 33 8z m276 -19 c25 -21 31 -33 31 -66 0 -37 -8 -49 -70
-119 -79 -87 -78 -94 23 -87 48 3 52 1 55 -19 3 -21 -1 -23 -41 -23 -24 0 -69
-5 -100 -11 -68 -14 -107 -6 -107 21 0 11 42 64 95 120 52 55 95 108 95 117 0
25 -31 42 -77 43 -35 0 -46 -5 -59 -25 -19 -29 -64 -35 -64 -9 0 9 15 31 34
50 31 31 39 34 94 34 50 0 66 -4 91 -26z m-1166 -80 c4 -38 6 -116 5 -174 -4
-139 -14 -141 -99 -20 -35 51 -71 103 -79 116 -8 13 -18 24 -22 24 -3 0 -4
-52 -1 -115 5 -102 4 -115 -11 -121 -10 -4 -21 -3 -25 2 -11 12 -23 326 -13
342 15 23 36 3 116 -109 43 -61 80 -108 83 -105 3 3 5 53 4 111 -1 58 1 110 4
116 16 24 31 -2 38 -67z m293 65 c13 -22 -19 -34 -104 -39 l-87 -5 0 -45 0
-45 49 -5 c27 -3 51 -10 53 -17 7 -19 -42 -45 -71 -37 l-26 6 0 -76 c0 -61 -3
-78 -16 -83 -9 -3 -19 0 -23 6 -5 7 -11 85 -14 174 -5 122 -4 163 6 169 19 12
225 10 233 -3z m-628 -42 c31 -32 32 -36 38 -143 l6 -109 -30 -32 c-29 -31
-35 -33 -94 -33 -50 1 -68 5 -89 23 -35 30 -38 41 -40 158 -2 140 17 164 137
168 33 1 46 -5 72 -32z m-308 6 c31 -21 40 -33 40 -54 0 -29 -30 -30 -57 -3
-22 22 -32 25 -67 21 -63 -9 -72 -26 -68 -145 l3 -102 58 0 c48 0 61 4 81 25
13 14 29 25 37 25 24 0 13 -44 -19 -77 -28 -29 -38 -33 -86 -33 -48 0 -58 4
-88 34 l-34 34 0 114 c1 98 3 116 20 137 34 40 137 54 180 24z m6731 -69 c3
-103 -38 -202 -108 -264 -53 -46 -99 -63 -163 -58 -45 3 -45 3 -52 48 -4 25
-4 74 -1 109 4 49 11 70 33 95 15 17 25 36 23 42 -6 17 71 74 100 74 34 0 57
-10 57 -24 0 -6 16 -23 35 -39 l34 -27 -15 36 c-16 38 -9 53 24 54 6 0 12 8
12 18 1 40 19 -16 21 -64z m-7317 37 c34 -32 41 -72 20 -116 -15 -33 -15 -37
0 -54 24 -26 20 -85 -6 -116 -23 -26 -77 -44 -134 -45 -67 0 -122 112 -79 160
13 14 13 21 -5 55 -25 50 -25 54 5 96 29 39 45 44 121 44 42 -1 59 -6 78 -24z
m-329 -3 c3 -13 6 -48 7 -78 3 -51 5 -55 26 -52 13 2 25 -3 28 -12 8 -20 -13
-46 -35 -46 -15 0 -16 -9 -13 -66 5 -69 -3 -89 -32 -78 -15 6 -16 15 -11 55
11 81 6 88 -83 91 -59 2 -77 7 -80 18 -2 15 162 190 179 190 5 0 11 -10 14
-22z m-279 -17 c19 -18 33 -41 37 -65 5 -33 1 -41 -42 -91 -27 -30 -60 -64
-75 -76 -14 -11 -26 -25 -26 -30 0 -5 31 -9 69 -9 51 0 72 -4 82 -16 24 -30
-9 -40 -132 -39 -101 0 -114 2 -114 17 0 10 42 62 93 117 50 55 92 107 92 117
0 58 -87 74 -135 24 -32 -33 -53 -38 -62 -14 -6 17 39 71 72 84 11 5 40 9 65
9 36 0 51 -5 76 -28z m-364 -51 c3 -30 7 -93 7 -140 l2 -85 35 -22 c20 -13 42
-23 50 -23 8 0 14 -7 14 -16 0 -12 -6 -15 -22 -10 -13 4 -60 7 -105 6 -68 -1
-83 2 -83 14 0 8 10 21 23 27 34 18 37 28 36 116 -2 91 -6 102 -34 100 -34 -3
-30 37 6 67 46 39 63 31 71 -34z m-458 28 c3 -13 9 -92 13 -175 l6 -153 -25 0
c-20 0 -38 19 -99 110 -41 60 -77 109 -82 110 -4 0 -6 -51 -5 -112 3 -110 2
-113 -19 -116 -13 -2 -23 -2 -24 0 0 2 -3 78 -6 170 -5 154 -3 168 13 175 22
8 63 -40 144 -170 45 -71 52 -62 45 57 -3 59 -3 111 0 116 11 18 33 11 39 -12z
m4154 -7 c4 -23 14 -22 -143 -24 -86 -2 -90 -1 -93 20 -3 21 1 22 80 26 137 5
153 3 156 -22z m-4512 -35 c51 -50 56 -59 65 -118 6 -36 9 -92 7 -124 -3 -51
-6 -59 -23 -59 -18 0 -20 8 -23 73 l-3 72 -74 0 -75 0 0 -74 c0 -66 -2 -75
-20 -81 -11 -3 -24 -4 -30 0 -5 3 -9 59 -9 130 l1 124 58 55 c32 31 61 56 65
56 3 0 31 -24 61 -54z m-246 19 c0 -27 -29 -35 -127 -35 -72 0 -82 -9 -66 -63
8 -28 14 -32 43 -33 60 -2 62 -3 58 -26 -3 -20 -10 -23 -51 -26 l-48 -3 3 -72
c3 -71 3 -72 -22 -72 l-25 0 -2 165 c-1 91 -1 170 1 175 2 6 51 11 120 12 114
1 116 0 116 -22z m-952 -83 c3 -72 3 -73 32 -79 38 -7 39 -31 2 -44 -28 -9
-28 -11 -28 -82 1 -66 -1 -72 -19 -72 -17 0 -21 10 -29 73 l-9 72 -73 0 c-65
0 -74 2 -74 19 0 25 158 193 179 189 13 -3 17 -18 19 -76z m155 -57 c3 -83 10
-142 17 -150 9 -11 36 -15 101 -15 91 0 107 -6 86 -33 -10 -13 -35 -16 -124
-18 -62 -1 -116 0 -119 4 -9 8 -18 311 -11 331 4 9 15 16 25 16 17 0 19 -12
25 -135z m-403 106 c0 -11 -20 -49 -45 -86 -50 -75 -50 -68 14 -154 47 -63 53
-91 18 -91 -23 0 -74 59 -91 105 -6 18 -9 17 -31 -10 -13 -17 -31 -44 -39 -61
-9 -17 -22 -37 -30 -43 -35 -29 -50 28 -18 70 26 34 62 98 62 110 0 5 -5 15
-10 22 -43 51 -90 117 -90 125 0 5 8 13 17 17 18 6 50 -23 99 -91 l22 -29 18
35 c22 41 77 100 93 100 6 0 11 -9 11 -19z m-410 -38 c0 -21 5 -89 12 -150 11
-99 14 -113 31 -113 13 0 18 -6 15 -22 -3 -21 -8 -23 -73 -23 -57 0 -70 3 -73
17 -2 11 6 18 27 23 l31 7 -3 104 c-2 104 -2 104 -27 101 -36 -3 -38 29 -4 64
40 42 65 39 64 -8z m2525 -49 c0 -16 -10 -20 -75 -27 -41 -4 -97 -6 -125 -5
-42 3 -50 6 -50 23 0 25 24 30 148 29 94 0 102 -2 102 -20z m-4096 -230 c3 -3
7 -38 9 -77 4 -66 1 -77 -31 -137 -25 -48 -50 -77 -96 -112 -80 -62 -98 -62
-107 -2 -7 52 2 143 18 161 6 7 8 13 4 13 -17 0 38 81 84 124 45 42 55 47 83
42 17 -3 33 -9 36 -12z m3238 10 c-3 -3 -12 -4 -19 -1 -8 3 -5 6 6 6 11 1 17
-2 13 -5z m-280 -20 c-3 -3 -12 -4 -19 -1 -8 3 -5 6 6 6 11 1 17 -2 13 -5z
m1243 -54 c0 -13 -5 -18 -15 -14 -16 7 -19 17 -8 27 12 13 23 7 23 -13z m-601
-134 c19 -22 -7 -33 -80 -33 -36 0 -75 -5 -85 -11 -14 -8 7 -9 81 -6 l100 5
-34 -19 c-33 -18 -33 -19 -10 -25 19 -5 21 -9 11 -19 -19 -19 -14 -26 21 -26
46 0 88 -19 94 -42 9 -35 133 -25 133 11 0 13 7 19 23 19 17 0 19 2 8 9 -15
10 -3 13 99 26 55 7 85 23 44 23 -15 0 -33 7 -39 16 -10 13 -16 14 -38 3 -15
-6 -27 -15 -27 -19 0 -5 -11 -8 -25 -8 -18 0 -25 5 -25 19 0 27 19 31 154 38
98 5 118 4 111 -7 -6 -9 -4 -12 6 -8 12 5 14 0 11 -22 -3 -21 1 -28 17 -33 12
-3 21 -12 21 -21 0 -9 6 -16 13 -16 8 0 7 -3 -3 -10 -11 -7 -3 -11 30 -17 l45
-7 -50 -7 c-27 -4 -194 -12 -370 -18 -176 -6 -421 -16 -545 -21 -124 -5 -385
-12 -580 -15 l-354 -5 29 30 c16 16 25 30 20 30 -5 0 1 7 13 16 12 8 33 14 46
12 24 -3 66 26 66 45 0 10 -72 5 -105 -7 -11 -4 -6 1 10 10 23 14 52 18 120
19 81 0 92 -2 113 -23 12 -12 20 -27 17 -33 -10 -16 15 -39 42 -39 18 0 24 -4
19 -15 -4 -10 1 -15 15 -15 16 0 19 4 14 21 -7 20 -5 21 25 16 40 -8 90 16 90
43 0 11 -4 20 -10 20 -5 0 -10 4 -10 9 0 5 9 7 20 4 16 -4 19 -2 14 11 -5 13
-14 16 -38 12 l-31 -6 30 15 c21 10 68 14 157 15 120 0 127 -1 133 -21 4 -11
4 -35 1 -53 -10 -51 18 -70 91 -63 106 10 163 27 163 47 0 14 9 20 33 23 30 4
29 4 -8 6 -41 2 -75 20 -75 40 0 6 8 12 18 12 9 1 1 5 -18 9 l-35 6 30 8 c17
4 37 12 45 17 62 40 175 54 199 25z m500 0 c7 -8 8 -16 4 -19 -17 -8 -193 -5
-193 4 0 28 167 41 189 15z m-944 -5 c3 -5 -1 -16 -9 -24 -18 -18 -280 -24
-291 -7 -12 20 5 25 103 31 163 9 191 9 197 0z m1153 -9 c15 -10 -20 -52 -44
-52 -24 0 -30 31 -9 46 21 16 35 17 53 6z m1829 -44 c-2 -13 -4 -5 -4 17 -1
22 1 32 4 23 2 -10 2 -28 0 -40z m-3525 26 c4 -3 12 -13 17 -23 9 -16 3 -17
-79 -17 -59 1 -93 -3 -101 -11 -17 -17 -39 -16 -39 1 0 16 44 51 75 59 21 6
113 -1 127 -9z m1761 9 c-7 -2 -19 -2 -25 0 -7 3 -2 5 12 5 14 0 19 -2 13 -5z
m337 -30 c12 -11 13 -15 1 -22 -9 -6 2 -11 32 -15 41 -6 68 -28 49 -40 -14 -8
-197 -4 -214 5 -38 20 -19 32 42 26 57 -6 83 5 40 16 -14 3 -20 14 -20 31 0
24 3 26 28 20 15 -4 34 -13 42 -21z m-1412 0 c-15 -2 -42 -2 -60 0 -18 2 -6 4
27 4 33 0 48 -2 33 -4z m-585 -30 c-7 -2 -21 -2 -30 0 -10 3 -4 5 12 5 17 0
24 -2 18 -5z m-2743 -18 c0 -17 -49 -65 -67 -65 -26 0 -12 30 24 55 44 29 43
29 43 10z m2423 8 c-7 -2 -19 -2 -25 0 -7 3 -2 5 12 5 14 0 19 -2 13 -5z
m7817 -57 c0 -39 -20 -60 -50 -51 -39 12 -12 85 32 85 14 0 18 -8 18 -34z
m160 3 l0 -31 -47 6 c-66 8 -82 11 -89 19 -4 4 -2 7 5 7 8 0 11 7 7 15 -4 12
6 15 59 15 l65 0 0 -31z m-7650 11 c0 -5 -4 -10 -10 -10 -5 0 -10 5 -10 10 0
6 5 10 10 10 6 0 10 -4 10 -10z m2515 0 c-57 -11 -208 -20 -200 -12 7 7 125
18 200 19 l40 1 -40 -8z m902 -27 c-3 -10 -5 -4 -5 12 0 17 2 24 5 18 2 -7 2
-21 0 -30z m4938 28 c-15 -13 -65 -23 -65 -12 0 12 18 19 50 20 14 1 20 -3 15
-8z m-1555 -17 c15 -17 26 -194 12 -194 -20 0 -26 23 -27 96 0 40 -3 75 -7 79
-3 4 -87 3 -185 -2 l-178 -8 2 -97 c2 -96 -8 -129 -21 -67 -8 43 -7 161 2 176
4 7 61 14 157 18 83 4 152 9 154 11 10 9 82 0 91 -12z m-2769 -31 c7 -8 14
-50 17 -94 4 -68 2 -79 -12 -79 -13 0 -16 12 -16 64 0 102 9 96 -159 96 -80 0
-152 -4 -160 -9 -10 -6 -12 -19 -6 -47 8 -48 9 -113 1 -122 -17 -17 -27 23
-24 104 l3 89 115 5 c212 9 229 9 241 -7z m3573 -37 c-9 -30 -11 -31 -40 -17
-19 8 -30 9 -38 1 -14 -14 -26 -13 -26 5 0 9 6 12 17 8 12 -5 15 -2 10 9 -8
22 -4 24 43 20 36 -4 40 -6 34 -26z m-884 -23 c-39 -28 -111 -63 -126 -63 -9
0 -18 -9 -21 -20 -4 -13 -14 -20 -30 -20 -15 0 -23 5 -20 13 2 6 -2 25 -10 40
-16 32 -5 49 40 61 27 6 39 -8 15 -17 -8 -4 -7 -6 4 -6 9 -1 23 -4 32 -7 9 -3
16 -1 16 5 0 6 -8 11 -17 12 -29 1 16 17 52 19 17 0 41 7 55 15 22 12 25 12
28 -2 2 -8 -6 -22 -18 -30z m-222 15 c2 -12 -3 -18 -16 -18 -22 0 -46 23 -35
34 13 13 48 1 51 -16z m-2528 -7 c0 -14 -10 -21 -37 -25 -21 -4 -47 -9 -58
-12 -18 -5 -18 -3 4 15 13 12 34 21 47 21 12 0 26 5 29 10 9 15 15 12 15 -9z
m-181 -2 c33 -12 43 -42 16 -53 -8 -3 -15 -10 -15 -16 0 -13 37 -13 45 1 4 6
22 8 45 4 28 -5 46 -2 64 10 l26 17 -1 -33 c-4 -117 3 -269 14 -276 18 -12
-37 -20 -136 -22 l-87 -1 0 28 c1 15 -1 62 -3 105 -3 60 -1 77 9 77 8 0 14 4
14 10 0 5 -7 7 -15 4 -11 -5 -15 1 -15 24 0 16 -7 46 -15 65 -16 38 -11 67 10
67 6 0 26 -5 44 -11z m2432 -35 c4 -16 7 -106 8 -200 1 -138 -2 -173 -13 -177
-27 -10 -36 17 -36 105 0 121 -16 115 -54 -19 -36 -126 -66 -124 -116 10 -11
29 -27 62 -35 73 -14 17 -15 11 -9 -71 5 -76 4 -93 -10 -104 -43 -36 -54 13
-57 254 l-2 140 25 3 c23 3 29 -6 77 -117 28 -66 51 -125 51 -131 0 -6 7 -10
16 -8 10 2 23 28 36 68 11 36 23 72 28 81 5 9 13 35 20 57 19 73 59 93 71 36z
m-2587 1 c14 -21 14 -25 2 -25 -8 0 -18 5 -21 11 -5 7 -16 2 -31 -12 -31 -29
-34 -3 -4 29 26 28 34 28 54 -3z m2168 4 c43 -11 62 -41 71 -109 9 -66 -18
-104 -84 -120 -28 -7 -70 -10 -94 -7 l-44 4 -3 -86 c-3 -72 -6 -86 -20 -89
-29 -6 -35 31 -39 223 l-4 180 45 6 c75 10 133 9 172 -2z m-276 -31 c20 -19
28 -40 31 -75 5 -42 2 -53 -22 -81 -15 -18 -33 -32 -41 -32 -21 0 -18 -9 31
-84 51 -78 57 -109 23 -104 -15 2 -39 27 -71 73 -55 81 -80 105 -112 105 -31
0 -34 -11 -28 -100 5 -64 3 -78 -12 -90 -38 -32 -53 37 -57 267 -3 159 -5 156
129 151 95 -3 105 -5 129 -30z m2297 12 c39 0 110 -24 100 -33 -3 -4 1 -7 11
-7 25 0 9 -20 -17 -21 l-22 0 21 -9 c12 -5 25 -13 29 -19 3 -6 14 -11 24 -11
9 0 27 -9 39 -20 12 -11 25 -20 29 -20 5 0 14 -9 21 -20 7 -11 18 -20 25 -20
7 0 26 -20 41 -44 15 -24 36 -46 45 -49 10 -2 29 -26 43 -53 15 -27 31 -48 37
-47 6 2 8 -4 5 -12 -4 -9 -1 -22 6 -30 19 -23 42 -116 41 -162 -1 -24 3 -52
10 -64 8 -15 8 -28 1 -43 -6 -11 -19 -41 -30 -66 -16 -38 -28 -50 -81 -78 -69
-36 -81 -39 -81 -17 0 19 -9 19 -34 0 -13 -10 -43 -15 -85 -15 -36 0 -90 -4
-120 -10 -31 -5 -112 -14 -181 -20 -69 -6 -161 -17 -205 -24 -110 -20 -205
-19 -205 1 0 8 -11 24 -25 35 -14 11 -25 26 -25 34 0 9 -7 22 -15 30 -11 11
-15 12 -15 3 0 -32 -21 12 -23 47 -1 22 -10 47 -20 57 -11 11 -16 25 -12 38 4
11 2 19 -5 19 -6 0 -10 6 -7 13 2 6 -1 25 -8 40 -19 46 27 292 58 305 4 2 16
21 27 42 18 35 132 130 156 130 5 0 15 9 22 20 7 11 17 20 23 20 6 0 25 11 41
25 16 14 33 23 38 20 4 -3 28 3 52 13 27 11 69 17 115 17 39 0 71 2 71 5 -1
16 5 18 28 10 14 -6 40 -10 57 -10z m-9123 -5 c0 -16 -27 -32 -37 -22 -3 4 -3
13 0 22 8 20 37 20 37 0z m8685 -25 c-44 -23 -84 -47 -90 -53 -5 -7 -26 -22
-45 -34 -68 -42 -154 -152 -175 -224 -3 -13 -14 -40 -22 -59 -38 -84 -52 -170
-42 -269 6 -52 14 -102 20 -112 5 -10 9 -26 9 -35 0 -17 -1 -17 -16 -2 -42 42
-57 265 -25 381 20 73 110 226 170 290 44 48 128 103 201 134 91 37 100 26 15
-17z m-2479 -2 c51 -45 64 -82 64 -186 0 -114 -25 -170 -85 -190 -60 -20 -120
-7 -153 34 -37 46 -63 158 -50 216 18 78 47 125 87 142 59 24 96 20 137 -16z
m1573 14 c6 -11 6 -24 1 -32 -7 -11 -11 -8 -19 13 -13 35 -13 37 -1 37 5 0 14
-8 19 -18z m-1919 -131 c1 -58 3 -135 6 -169 8 -85 0 -114 -29 -110 -21 3 -22
8 -28 148 -4 80 -7 149 -8 153 0 4 -10 3 -22 -3 -22 -13 -69 -6 -69 10 0 5 17
22 37 37 20 15 48 39 61 52 24 24 25 24 38 6 10 -13 14 -51 14 -124z m-913 64
c-7 -15 -67 -22 -67 -7 0 8 61 30 69 25 2 -1 1 -9 -2 -18z m589 -105 c21 -27
42 -49 46 -50 3 0 22 23 43 51 38 54 67 62 73 21 2 -15 -9 -38 -32 -67 -41
-49 -43 -58 -18 -84 60 -64 72 -83 62 -102 -6 -10 -17 -19 -24 -19 -14 0 -48
35 -64 66 -13 24 -52 39 -52 20 0 -22 -54 -85 -74 -86 -28 0 -14 54 29 106
l36 43 -46 47 c-41 43 -56 80 -38 97 12 13 20 7 59 -43z m5114 -6 c4 -5 -20
-24 -30 -24 -3 0 -16 10 -30 21 l-25 20 40 -6 c22 -4 42 -9 45 -11z m-30 -38
c0 -3 -4 -8 -10 -11 -5 -3 -10 -1 -10 4 0 6 5 11 10 11 6 0 10 -2 10 -4z m26
-66 c-1 -34 -4 -40 -20 -38 -24 4 -34 28 -11 28 9 0 16 7 14 18 -2 25 0 32 10
32 5 0 8 -18 7 -40z m-6321 -50 c25 -28 12 -57 -54 -117 l-57 -53 -115 -10
c-63 -5 -179 -10 -259 -10 l-146 0 -62 69 c-34 38 -62 74 -62 80 0 25 46 41
120 42 41 0 93 4 115 8 22 5 144 9 271 10 217 1 232 0 249 -19z m895 -20 c3
-4 14 -12 25 -18 35 -20 -4 -13 -52 9 -33 15 -42 23 -33 29 13 8 48 -4 60 -20z
m-180 1 c0 -18 -19 -22 -144 -26 -122 -4 -156 3 -119 24 23 13 263 14 263 2z
m-312 -26 c-3 -3 -9 2 -12 12 -6 14 -5 15 5 6 7 -7 10 -15 7 -18z m620 -157
c-7 -4 -88 -8 -179 -8 -189 0 -179 -6 -179 92 0 74 19 67 22 -8 l3 -67 160 2
c87 1 163 5 168 8 5 3 7 29 4 57 -3 28 -2 65 1 81 5 20 8 -1 10 -59 2 -65 -1
-92 -10 -98z m6042 157 c-18 -14 -36 -22 -39 -19 -3 4 -1 9 5 11 6 2 20 10 30
18 10 8 23 15 28 15 6 0 -5 -11 -24 -25z m-8603 -15 l22 -27 -63 -66 c-35 -36
-74 -68 -87 -71 -68 -12 -260 -26 -377 -26 -148 0 -126 -9 -215 88 -46 50 -47
82 -2 94 42 11 392 30 440 23 22 -3 54 -1 70 4 17 5 66 9 110 9 75 -1 81 -2
102 -28z m2373 -17 c0 -19 7 -23 50 -29 28 -4 50 -10 50 -14 0 -15 -100 -31
-121 -20 -22 12 -24 30 -7 77 13 35 28 27 28 -14z m-80 18 c0 -5 3 -23 6 -40
5 -24 3 -31 -10 -31 -12 0 -16 10 -16 40 0 22 5 40 10 40 6 0 10 -4 10 -9z
m6010 -14 c0 -13 -13 -36 -30 -52 -26 -25 -30 -26 -30 -10 0 20 40 85 53 85 4
0 7 -10 7 -23z m-6637 -180 c-1 -67 -6 -217 -11 -334 -10 -232 -19 -264 -75
-291 -26 -13 -29 -11 -80 44 -28 31 -55 62 -59 68 -7 12 16 449 28 520 5 31
21 54 73 107 l66 67 30 -29 30 -30 -2 -122z m-881 116 c20 -21 41 -49 46 -63
10 -28 -2 -399 -17 -520 l-9 -75 -67 -62 c-37 -35 -70 -63 -74 -63 -4 0 -16 6
-27 14 -33 25 -32 223 4 648 8 86 17 108 61 146 24 20 45 14 83 -25z m-679
-37 c16 -19 17 -39 13 -216 -3 -107 -11 -264 -19 -348 -12 -135 -16 -155 -37
-177 -34 -36 -55 -31 -113 25 l-51 50 3 188 c1 103 6 231 10 284 l8 97 64 63
c68 67 88 73 122 34z m-875 -17 c61 -57 62 -66 50 -265 -5 -99 -13 -227 -17
-285 -4 -72 -11 -112 -21 -124 -32 -40 -96 -95 -122 -106 -25 -10 -30 -9 -48
12 -20 23 -21 32 -15 194 10 279 14 344 25 383 5 20 10 65 10 98 0 58 2 64 35
93 44 39 62 39 103 0z m5722 -53 c0 -29 3 -80 6 -112 l6 -59 82 3 c44 1 127 5
184 8 l102 6 0 45 c0 27 4 42 10 38 15 -9 13 -105 -2 -106 -7 0 -33 -2 -58 -3
-25 -2 -110 -5 -190 -6 l-145 -3 -11 104 c-10 105 -9 139 7 139 5 0 9 -24 9
-54z m-3003 -8 c-3 -7 -5 -2 -5 12 0 14 2 19 5 13 2 -7 2 -19 0 -25z m6071 10
c-5 -14 -96 -67 -115 -68 -29 0 -10 30 25 40 20 6 46 17 56 25 24 18 39 19 34
3z m137 -20 c-1 -18 -9 -24 -33 -26 -48 -5 -37 29 13 41 11 2 20 5 21 6 0 0 0
-9 -1 -21z m-3085 -28 c11 -7 12 -12 3 -21 -15 -15 -63 -3 -63 16 0 17 37 20
60 5z m-3120 -42 c-1 -26 -3 -30 -10 -16 -6 9 -7 23 -4 32 9 25 14 19 14 -16z
m-10 -78 c0 -5 -5 -10 -11 -10 -5 0 -7 5 -4 10 3 6 8 10 11 10 2 0 4 -4 4 -10z
m1 -57 c1 -10 1 -22 0 -26 -1 -5 5 -28 13 -51 12 -35 16 -131 20 -457 3 -228
11 -488 18 -579 7 -91 13 -311 13 -490 l0 -325 -73 -5 c-39 -3 -72 -3 -72 0 0
11 37 58 67 86 l31 29 -8 155 c-5 85 -12 178 -15 206 -5 39 -2 54 9 64 14 11
16 9 16 -14 0 -14 5 -26 10 -26 6 0 10 18 10 41 0 32 -3 40 -15 35 -24 -9 -27
28 -21 284 4 141 2 239 -3 236 -5 -3 -11 4 -14 17 -9 34 -12 206 -4 213 4 4 7
-16 7 -44 0 -29 5 -52 10 -52 15 0 12 101 -4 119 -17 20 -33 186 -16 176 7 -4
9 -18 5 -36 -4 -18 -3 -29 4 -29 6 0 11 21 11 50 0 38 -4 50 -15 50 -12 0 -15
18 -16 100 -1 55 -2 123 -3 151 0 30 4 55 12 61 10 9 9 15 -4 29 -14 15 -14
21 -4 34 17 20 30 19 31 -2z m646 -118 c1 -27 5 -70 7 -96 3 -25 0 -52 -5 -60
-18 -27 -29 13 -28 96 l2 80 -134 2 c-193 2 -179 10 -179 -97 0 -50 -2 -90 -4
-90 -27 0 -32 15 -29 98 2 48 5 93 8 99 3 9 47 13 152 16 229 5 206 10 210
-48z m4893 10 c0 -18 -4 -23 -15 -19 -25 10 -19 33 13 43 1 1 2 -10 2 -24z
m-4478 3 c25 -21 48 -61 48 -84 0 -13 -12 -36 -26 -53 -21 -26 -33 -31 -69
-31 -36 0 -48 5 -70 32 -34 40 -28 82 17 121 34 29 74 35 100 15z m4268 -28
c-24 -19 -40 -25 -40 -16 0 21 16 36 39 36 l26 0 -25 -20z m-4750 1 c0 -16
-33 -23 -115 -27 -46 -2 -81 -8 -83 -14 -5 -15 -32 8 -32 27 0 11 8 12 38 6
52 -11 131 -8 145 6 13 13 47 15 47 2z m-350 -21 c0 -13 -37 -50 -44 -43 -7 7
24 53 35 53 5 0 9 -4 9 -10z m388 -241 c6 -123 -1 -139 -54 -139 -19 0 -34 -4
-34 -10 0 -5 5 -10 11 -10 6 0 17 -6 24 -14 12 -12 12 -15 0 -20 -18 -7 -44 2
-68 22 -16 14 -19 14 -33 -6 -8 -12 -20 -22 -25 -22 -16 0 -23 31 -8 40 22 14
1 24 -25 12 -18 -8 -26 -21 -28 -44 -3 -26 -7 -17 -18 42 -15 77 -18 212 -6
292 l7 45 50 1 c45 1 49 -1 44 -19 -9 -26 5 -24 34 6 17 18 27 23 36 15 9 -7
16 -6 25 5 12 14 17 10 38 -35 20 -42 26 -73 30 -161z m2797 194 c4 -10 9 -56
11 -103 3 -76 2 -83 -11 -66 -9 12 -15 42 -15 77 0 95 8 91 -154 84 -77 -3
-159 -8 -181 -11 l-41 -5 4 -94 c2 -62 -1 -95 -8 -95 -19 0 -16 200 3 212 7 4
45 5 87 2 42 -4 86 -1 100 4 14 6 64 11 111 11 74 1 88 -2 94 -16z m1879 -20
c4 -9 3 -20 -2 -25 -11 -11 -36 17 -27 32 9 15 22 12 29 -7z m-3863 -16 c39
-26 81 -84 77 -105 -2 -8 -11 -20 -21 -26 -15 -9 -20 -7 -29 9 -6 11 -26 35
-44 53 -40 40 -94 44 -144 10 -41 -28 -58 -74 -59 -158 -1 -111 43 -179 121
-187 54 -5 85 11 119 62 32 47 53 51 57 12 4 -37 -39 -100 -83 -121 -19 -9
-59 -16 -94 -16 -58 0 -64 2 -106 41 -63 58 -89 130 -81 227 7 86 29 135 85
185 38 34 45 37 105 37 49 0 70 -5 97 -23z m1675 -12 c8 -19 -17 -75 -33 -75
-14 0 -19 71 -6 83 11 12 33 8 39 -8z m2129 -35 c3 -6 -1 -7 -9 -4 -18 7 -21
14 -7 14 6 0 13 -4 16 -10z m-1875 -67 c0 -14 -34 -22 -146 -32 -49 -4 -96
-10 -104 -12 -10 -3 -15 4 -15 21 0 24 3 25 75 30 125 9 190 6 190 -7z m-9930
-13 c0 -5 -4 -10 -9 -10 -6 0 -13 5 -16 10 -3 6 1 10 9 10 9 0 16 -4 16 -10z
m6087 -40 c38 -23 56 -54 48 -80 -3 -10 -23 -34 -44 -53 -40 -36 -54 -40 -201
-53 -132 -12 -436 -19 -467 -11 -38 9 -73 50 -73 83 0 35 65 102 105 110 50 9
282 21 450 22 133 2 154 0 182 -18z m-1536 -72 c21 -17 39 -40 39 -50 0 -10
-20 -38 -44 -62 -35 -35 -53 -46 -87 -50 -104 -12 -364 -26 -479 -25 l-125 1
-32 37 -32 37 19 41 c10 23 31 50 46 60 43 29 160 40 417 42 l238 1 40 -32z
m-2891 -9 c0 -5 -16 -9 -36 -9 -30 0 -34 3 -25 14 12 14 61 10 61 -5z m-335
-9 c-3 -5 -21 -10 -39 -10 -19 0 -38 -6 -44 -12 -5 -7 -10 -60 -10 -117 l0
-104 64 6 c46 3 64 1 61 -7 -2 -7 -30 -11 -72 -11 l-68 0 -5 133 -4 132 61 0
c39 0 60 -4 56 -10z m1681 -38 c49 -40 50 -53 7 -110 -51 -67 -45 -66 -385
-72 -308 -5 -309 -5 -347 18 -58 34 -61 62 -10 123 22 27 42 49 42 50 5 1 318
21 442 28 179 10 198 8 251 -37z m6671 26 c-3 -8 -6 -5 -6 6 -1 11 2 17 5 13
3 -3 4 -12 1 -19z m-8065 -24 c6 -32 -4 -134 -14 -134 -5 0 -7 9 -3 19 3 11 1
22 -5 26 -11 7 -14 64 -4 89 8 21 22 20 26 0z m-307 -4 c8 -13 -13 -40 -31
-40 -14 0 -19 31 -7 43 10 10 31 8 38 -3z m4912 -5 c29 -20 47 -88 38 -145 -3
-25 -11 -137 -16 -250 -16 -329 -18 -341 -45 -373 -13 -16 -24 -33 -24 -38 0
-5 -15 -9 -33 -9 -34 0 -62 23 -100 80 -28 41 -22 351 11 574 8 55 14 63 70
118 33 32 64 58 69 58 5 0 18 -7 30 -15z m-4847 -54 c0 -56 -11 -84 -24 -62
-11 17 -14 75 -5 98 16 41 29 25 29 -36z m5871 32 c3 -57 1 -174 -2 -177 -2
-2 -85 -5 -184 -7 l-180 -4 -3 88 -3 87 -59 0 c-75 0 -78 16 -6 25 90 12 92
11 88 -72 -6 -116 -6 -116 96 -109 167 12 217 18 224 30 4 6 5 42 3 79 -3 38
-3 72 0 78 12 18 25 9 26 -18z m5334 -13 c4 -7 -3 -8 -22 -4 -38 9 -42 14 -10
14 14 0 29 -5 32 -10z m-7879 -55 c24 -51 15 -225 -32 -652 -6 -62 -47 -122
-82 -123 -13 0 -41 17 -65 39 l-42 40 2 153 c1 84 8 223 14 308 l12 155 55 57
c45 48 61 58 88 58 28 0 36 -5 50 -35z m8094 15 c8 -5 11 -10 5 -10 -5 0 -17
5 -25 10 -8 5 -10 10 -5 10 6 0 17 -5 25 -10z m80 -4 c0 -8 -3 -17 -8 -20 -10
-6 -43 19 -35 27 12 13 43 7 43 -7z m-5910 -37 c0 -20 -15 -26 -24 -10 -8 13
4 42 15 35 5 -3 9 -14 9 -25z m150 1 c0 -15 -39 -32 -67 -28 -31 4 -42 24 -16
31 33 9 83 7 83 -3z m5825 0 c3 -5 -1 -10 -9 -10 -8 0 -18 5 -21 10 -3 6 1 10
9 10 8 0 18 -4 21 -10z m-125 -14 c0 -3 -4 -8 -10 -11 -5 -3 -10 -1 -10 4 0 6
5 11 10 11 6 0 10 -2 10 -4z m-13110 -16 c0 -5 -5 -10 -11 -10 -5 0 -7 5 -4
10 3 6 8 10 11 10 2 0 4 -4 4 -10z m13269 -5 c3 -12 -13 -9 -17 4 -2 7 0 11 6
7 5 -3 10 -8 11 -11z m-13293 -43 c1 -17 -4 -22 -22 -22 -17 0 -24 6 -24 19 0
36 44 38 46 3z m10817 12 c7 -7 -27 -69 -59 -107 -13 -16 -24 -33 -24 -38 0
-14 -17 -11 -23 5 -11 28 18 95 53 121 35 26 43 29 53 19z m67 -4 c-8 -5 -22
-10 -30 -10 -13 0 -13 1 0 10 8 5 22 10 30 10 13 0 13 -1 0 -10z m-8905 -10
c-3 -5 -17 -10 -31 -10 -14 0 -22 4 -19 10 3 6 17 10 31 10 14 0 22 -4 19 -10z
m9299 -30 c-1 -14 -6 -40 -12 -57 -12 -39 0 -44 16 -8 17 37 32 30 32 -14 0
-32 -4 -41 -22 -47 -15 -4 -25 -1 -34 11 -11 15 -16 16 -29 5 -25 -21 -45 -5
-45 37 0 26 6 44 20 56 11 9 20 24 20 33 0 11 8 14 28 12 22 -2 27 -8 26 -28z
m241 20 c3 -5 13 -6 23 -3 9 3 5 -4 -10 -16 -32 -26 -40 -68 -10 -56 9 4 26 8
37 9 16 1 19 -4 17 -24 -4 -36 -16 -44 -72 -43 -84 1 -137 60 -75 83 14 5 25
15 25 23 0 29 50 51 65 27z m-476 -14 c10 -11 8 -16 -5 -24 -10 -5 -25 -25
-33 -43 -19 -41 -51 -52 -51 -18 0 72 56 125 89 85z m2011 5 c0 -14 -19 -24
-70 -38 -67 -18 -93 -16 -50 4 87 41 120 50 120 34z m-2165 -41 c10 -11 16
-20 13 -20 -3 0 -13 9 -23 20 -10 11 -16 20 -13 20 3 0 13 -9 23 -20z m2315 3
c0 -15 -34 -43 -52 -43 -16 0 -15 4 9 25 28 24 43 31 43 18z m-13295 -23 c3
-5 -1 -10 -10 -10 -9 0 -13 5 -10 10 3 6 8 10 10 10 2 0 7 -4 10 -10z m10911
-48 c0 -39 -2 -42 -27 -42 -26 0 -27 2 -22 38 11 66 48 69 49 4z m274 28 c0
-20 -61 -70 -84 -70 -11 0 -6 56 6 68 15 15 78 16 78 2z m260 -10 c0 -5 -4
-10 -10 -10 -5 0 -10 5 -10 10 0 6 5 10 10 10 6 0 10 -4 10 -10z m-482 -33 c2
-12 -1 -15 -12 -11 -19 7 -22 38 -3 32 6 -3 13 -12 15 -21z m-634 4 c8 -12
-29 -21 -89 -21 -27 0 -70 -5 -94 -11 -53 -12 -74 1 -40 25 18 12 47 16 121
16 53 0 99 -4 102 -9z m-288 -108 c1 -129 0 -127 87 -119 39 3 120 9 180 13
107 6 107 6 108 32 1 14 1 31 0 36 -1 6 6 1 14 -10 9 -11 13 -26 10 -33 -3 -8
-5 -17 -5 -22 0 -11 -57 -18 -239 -31 -84 -6 -157 -7 -161 -2 -4 4 -11 59 -15
122 -6 94 -5 113 6 109 10 -4 14 -28 15 -95z m1001 -28 c-6 -32 -27 29 -26 73
l1 37 14 -45 c8 -25 13 -54 11 -65z m1528 26 c-8 -8 -21 -10 -35 -6 -19 6 -20
9 -7 23 8 10 17 26 22 37 7 18 8 18 20 -10 11 -25 11 -32 0 -44z m-10505 55
c0 -2 -9 -6 -20 -9 -11 -3 -20 -1 -20 4 0 5 9 9 20 9 11 0 20 -2 20 -4z m-285
-15 c10 -17 -26 -28 -76 -23 l-49 5 0 -63 c0 -78 -5 -75 -14 8 -7 59 -6 63 16
71 30 13 115 13 123 2z m9933 -39 l3 -42 -36 0 c-28 0 -38 5 -47 24 -14 33 -3
60 22 53 11 -3 23 -1 26 4 13 21 29 1 32 -39z m-248 12 c18 -33 4 -58 -36 -62
-32 -4 -54 18 -54 54 0 18 7 24 33 27 17 2 35 5 38 5 3 1 12 -10 19 -24z
m-502 -29 c4 -41 -8 -55 -45 -55 -45 0 -60 84 -15 86 12 1 26 4 29 8 15 14 28
-3 31 -39z m253 23 c17 -31 -6 -68 -42 -68 -31 0 -49 23 -49 62 0 21 5 24 40
25 31 2 42 -3 51 -19z m-381 -28 c0 -13 -1 -13 -10 0 -5 8 -10 22 -10 30 0 13
1 13 10 0 5 -8 10 -22 10 -30z m459 7 c0 -21 -1 -21 -9 -2 -12 28 -12 37 0 30
6 -3 10 -16 9 -28z m1204 16 c-7 -2 -21 -2 -30 0 -10 3 -4 5 12 5 17 0 24 -2
18 -5z m-10453 -68 c0 -72 -13 -85 -26 -27 -12 49 -6 92 12 92 11 0 14 -15 14
-65z m-251 -17 c1 -21 -3 -38 -8 -38 -17 0 -29 89 -14 104 10 10 21 -23 22
-66z m9716 62 c3 -5 -1 -10 -10 -10 -9 0 -13 5 -10 10 3 6 8 10 10 10 2 0 7
-4 10 -10z m454 -37 c2 -2 -5 -3 -17 -3 -14 0 -22 6 -22 16 0 14 3 15 18 3 9
-7 19 -15 21 -16z m-4295 -85 c4 -35 10 -80 13 -100 4 -31 2 -38 -11 -38 -9 0
-16 1 -17 3 0 1 -3 35 -6 76 -3 41 -11 80 -18 87 -9 10 -46 11 -146 7 -74 -3
-141 -9 -150 -14 -13 -7 -15 -22 -11 -88 4 -70 2 -81 -12 -81 -15 0 -21 13
-16 35 1 6 2 38 1 72 -1 40 3 65 11 70 23 14 150 30 254 32 l101 1 7 -62z
m-426 -24 c-4 -24 -24 -29 -32 -8 -8 20 13 49 27 35 5 -5 7 -17 5 -27z m1575
-36 c29 -40 82 -114 116 -165 34 -50 68 -96 75 -102 10 -8 12 26 12 162 -1
165 0 172 19 172 17 0 21 -11 31 -105 7 -58 13 -163 15 -233 2 -128 -4 -156
-33 -144 -8 2 -63 73 -123 157 -61 84 -117 162 -126 173 -15 19 -15 6 -11
-161 l5 -182 -25 0 c-22 0 -26 5 -32 46 -8 62 -8 439 1 447 13 14 22 6 76 -65z
m-1259 56 c8 -3 12 -12 9 -20 -4 -12 -24 -14 -99 -12 -62 2 -94 7 -94 14 0 8
27 12 77 13 42 1 79 3 81 6 7 6 7 6 26 -1z m1101 -21 c4 -16 10 -92 14 -169 7
-170 -3 -220 -53 -260 -39 -31 -105 -56 -126 -48 -8 4 -27 8 -43 10 -38 5 -83
41 -104 83 -13 28 -19 73 -23 196 -3 88 -4 168 -2 177 4 18 29 31 42 23 4 -3
11 -71 14 -152 9 -191 11 -202 45 -242 28 -33 31 -34 56 -21 21 11 30 12 45 2
17 -10 25 -8 52 17 l33 30 -3 176 c-4 177 1 205 33 205 7 0 16 -12 20 -27z
m-441 -17 c57 -37 81 -111 53 -166 -11 -22 -62 -63 -89 -72 -6 -2 17 -45 51
-95 64 -96 71 -117 45 -127 -27 -10 -30 -8 -97 92 -36 54 -72 104 -80 111 -9
7 -34 11 -59 9 -49 -3 -45 10 -37 -140 4 -75 -8 -101 -39 -82 -22 14 -29 90
-31 316 l-1 167 48 4 c99 9 209 1 236 -17z m-6134 -15 c0 -6 -4 -12 -10 -16
-13 -8 -61 5 -54 16 7 12 64 12 64 0z m5537 -193 c5 -62 6 -126 3 -143 -6 -27
-9 -30 -40 -27 -30 3 -32 2 -21 -12 11 -13 11 -17 -4 -22 -9 -4 -27 -1 -41 6
-19 11 -27 11 -36 2 -13 -13 -58 -16 -58 -4 0 4 5 13 12 20 9 9 7 12 -9 12
-12 0 -25 -5 -29 -11 -13 -22 -27 11 -40 101 -8 51 -12 95 -9 99 2 4 6 27 9
51 3 24 12 50 19 58 8 7 52 19 98 24 57 8 87 16 93 27 18 29 44 -60 53 -181z
m-1199 60 c49 -50 62 -69 62 -94 0 -31 -1 -32 -67 -44 -91 -16 -629 -23 -665
-8 -48 18 -38 57 30 128 58 60 59 60 118 61 32 1 84 4 114 8 30 4 121 8 201 9
l145 3 62 -63z m-1115 -7 c58 -56 42 -167 -27 -196 -54 -23 -116 -19 -150 8
-60 48 -41 171 32 212 40 22 110 11 145 -24z m-446 -52 c101 -107 96 -132 -29
-135 -45 -1 -110 -7 -143 -13 -39 -8 -135 -11 -278 -9 -216 3 -219 3 -238 27
-10 13 -19 27 -19 31 0 5 124 136 134 141 0 0 60 3 131 6 72 3 131 7 133 8 2
2 59 4 127 4 l125 2 57 -62z m-2781 -18 c-4 -6 -14 -11 -22 -11 -12 0 -13 4
-3 21 7 14 14 18 21 11 6 -6 7 -15 4 -21z m-405 -129 c0 -31 3 -71 6 -89 l5
-32 53 5 c33 4 55 2 59 -5 7 -11 -7 -13 -94 -15 -19 -1 -38 4 -42 9 -4 6 -7
60 -7 120 0 77 3 103 9 87 5 -12 10 -48 11 -80z m8948 82 c3 -3 7 -95 9 -205
l3 -199 -30 0 c-16 0 -33 5 -36 10 -4 6 7 10 26 10 l32 0 -7 46 c-3 26 -6 112
-6 192 l0 145 -110 -7 c-70 -4 -110 -3 -110 3 0 17 213 21 229 5z m192 -7
c-10 -9 -11 -8 -5 6 3 10 9 15 12 12 3 -3 0 -11 -7 -18z m1317 -147 c0 -36 -5
-74 -9 -85 l-9 -20 2 20 c4 36 -8 42 -89 39 -64 -2 -71 -1 -38 6 22 5 59 9 83
9 l42 1 1 103 c1 95 2 98 10 47 5 -30 8 -84 7 -120z m428 140 c75 -7 109 -6
133 3 23 8 34 9 39 1 7 -12 93 -24 207 -29 40 -2 94 -12 125 -24 30 -12 86
-24 123 -28 37 -3 70 -10 73 -14 9 -15 54 -10 54 5 0 11 10 13 40 9 32 -5 44
-2 54 12 10 14 21 17 51 12 21 -4 41 -10 44 -15 3 -5 13 -9 21 -10 8 0 32 -2
53 -4 l37 -4 1 40 c0 33 2 37 9 20 11 -27 20 -228 24 -539 3 -216 0 -240 -18
-155 -9 38 -20 51 -48 54 -14 1 -33 10 -43 19 -27 27 -53 39 -60 26 -4 -5 -17
-9 -28 -8 -12 1 -35 -3 -50 -9 -37 -16 -39 -15 -33 6 4 13 -1 23 -19 32 -13 7
-22 17 -19 21 8 13 -29 58 -47 59 -9 0 -19 7 -23 15 -3 8 -15 15 -26 15 -12 0
-24 9 -29 23 -5 12 -27 39 -50 60 -23 20 -41 45 -41 55 0 10 -6 26 -13 36 -12
17 -25 18 -120 13 -73 -4 -124 -1 -164 8 -32 8 -77 14 -99 15 -49 0 -74 21
-54 45 10 12 9 15 -6 15 -27 0 -47 -37 -46 -87 1 -33 -3 -45 -19 -54 -17 -8
-23 -7 -35 8 -7 10 -14 26 -14 36 0 10 -7 20 -15 24 -21 8 -33 -6 -15 -17 24
-15 5 -22 -24 -9 -31 14 -50 2 -22 -15 57 -34 58 -38 66 -147 5 -57 14 -239
20 -404 7 -165 14 -316 16 -335 7 -72 24 -438 24 -525 0 -49 5 -166 10 -260
22 -413 23 -445 11 -445 -14 0 -15 -27 -1 -32 11 -3 37 -524 26 -535 -3 -4
-46 -9 -94 -11 l-88 -4 -2 57 c-1 31 -7 65 -12 75 -5 9 -6 20 -3 24 3 3 2 6
-3 6 -5 0 -10 46 -12 103 -2 70 -8 109 -18 125 -11 17 -14 38 -10 78 4 37 3
54 -5 54 -8 0 -9 13 -5 41 4 22 3 45 -1 52 -12 19 -17 181 -9 249 6 46 -3 68
-36 81 -10 4 -9 8 2 16 11 8 12 13 3 19 -12 8 -13 108 -1 128 3 5 5 40 4 78
-2 51 -6 71 -19 81 -23 16 -22 55 1 55 16 1 16 1 -1 11 -14 8 -16 14 -6 25 8
10 8 14 0 14 -20 0 -12 36 14 60 19 17 24 32 22 60 -2 37 -3 38 -45 43 -24 2
-46 8 -50 12 -12 11 31 36 56 32 31 -6 28 9 -4 17 -19 5 -24 11 -19 24 11 27
11 47 -1 45 -6 -1 -14 18 -18 42 -3 25 -8 56 -12 69 -5 21 -3 23 20 19 18 -4
26 -1 26 9 0 11 -9 13 -32 11 -24 -3 -29 -2 -19 6 12 7 12 12 3 24 -13 16 -7
93 9 113 11 14 1 24 -17 17 -11 -4 -12 5 -7 46 5 41 2 55 -12 70 -21 24 -26
158 -5 171 9 6 8 10 -6 19 -11 6 -13 11 -6 11 8 0 10 5 5 13 -4 6 -9 59 -10
116 -1 100 -14 146 -29 107 -4 -10 -2 -21 5 -26 9 -5 8 -9 -4 -14 -16 -6 -17
0 -13 49 3 30 1 55 -4 55 -13 0 -9 57 5 68 8 7 29 9 50 5 24 -4 37 -2 37 6 0
6 11 11 23 11 29 0 52 41 34 59 -9 9 -8 16 1 31 16 26 15 30 -3 30 -8 0 -15 1
-15 3 0 18 24 133 36 173 14 43 21 53 48 62 17 5 40 8 51 6 11 -2 65 -8 121
-14z m-2640 -17 c-8 -8 -14 -9 -116 -11 l-75 -2 3 -77 c2 -43 1 -75 -3 -71
-13 13 -24 92 -18 131 l6 37 105 0 c58 0 102 -3 98 -7z m-7909 -39 c-9 -9 -28
6 -21 18 4 6 10 6 17 -1 6 -6 8 -13 4 -17z m20 -6 c-3 -7 -5 -2 -5 12 0 14 2
19 5 13 2 -7 2 -19 0 -25z m7793 -12 c5 -13 18 -27 28 -30 11 -4 25 -20 32
-36 10 -24 10 -37 -3 -67 -15 -38 -37 -56 -37 -31 0 8 -11 29 -25 48 -14 19
-25 42 -25 51 0 9 -7 19 -15 23 -9 3 -15 18 -15 36 0 25 4 30 25 30 18 0 28
-7 35 -24z m80 7 c-1 -19 -18 -33 -34 -27 -13 5 -14 9 -5 20 12 15 39 19 39 7z
m-2560 -113 c0 -79 5 -91 40 -97 14 -3 283 17 287 20 0 1 -2 32 -6 69 -7 63 1
104 17 94 4 -2 7 -44 7 -92 l0 -89 -30 -6 c-16 -4 -98 -7 -181 -8 l-151 -1 0
28 c0 15 -3 53 -6 85 -6 61 -1 91 14 81 5 -3 9 -41 9 -84z m3175 80 c8 -13 -4
-50 -16 -50 -13 0 -22 27 -15 45 6 17 22 20 31 5z m-3115 -86 c0 -14 -4 -23
-9 -20 -5 3 -7 15 -4 26 7 28 13 25 13 -6z m2430 -214 c53 0 90 -4 90 -10 0
-6 -38 -10 -94 -10 -76 0 -95 3 -100 16 -9 22 -7 179 2 188 4 4 8 -35 10 -88
l3 -96 89 0z m2084 -330 c4 -201 11 -419 17 -485 5 -66 14 -253 20 -415 16
-484 19 -571 34 -885 7 -165 14 -302 14 -304 1 -2 8 -1 16 2 8 4 17 2 20 -3 4
-6 -3 -10 -14 -10 -12 0 -24 -1 -28 -2 -5 -2 -11 67 -14 152 -3 85 -11 252
-18 370 -6 118 -16 352 -21 520 -5 168 -16 451 -24 630 -17 367 -27 946 -16
855 4 -33 11 -224 14 -425z m760 414 c3 -8 2 -12 -4 -9 -6 3 -10 10 -10 16 0
14 7 11 14 -7z m-952 -66 c-8 -8 -9 -4 -5 13 4 13 8 18 11 10 2 -7 -1 -18 -6
-23z m-532 18 c0 -2 -7 -7 -16 -10 -8 -3 -12 -2 -9 4 6 10 25 14 25 6z m40
-22 c0 -16 -16 -19 -25 -4 -8 13 4 32 16 25 5 -4 9 -13 9 -21z m247 4 c-3 -8
-6 -5 -6 6 -1 11 2 17 5 13 3 -3 4 -12 1 -19z m-9357 2 c0 -5 -11 -10 -25 -10
-14 0 -25 5 -25 10 0 6 11 10 25 10 14 0 25 -4 25 -10z m12184 -44 c3 -17 7
-64 10 -105 4 -65 9 -77 31 -95 14 -12 30 -37 35 -56 6 -20 10 -195 10 -413 0
-335 -2 -380 -16 -395 -15 -14 -15 -17 1 -28 26 -19 19 -213 -9 -243 -11 -12
-24 -20 -30 -18 -13 4 -47 -30 -43 -44 1 -7 -13 -14 -30 -16 l-33 -4 7 48 c3
26 10 56 14 65 5 9 9 25 9 34 0 10 6 25 14 33 7 9 16 30 19 47 5 27 1 36 -29
63 -20 17 -40 29 -44 26 -17 -10 -22 17 -6 34 9 10 16 27 16 38 0 22 39 53 67
53 11 0 14 3 7 8 -6 4 -13 15 -17 25 -4 10 -11 16 -16 13 -12 -8 -27 13 -39
56 -9 34 -8 37 16 43 14 3 28 1 32 -4 8 -14 80 51 80 73 0 18 -15 22 -25 6 -4
-6 -11 -8 -16 -4 -5 3 -16 1 -24 -6 -10 -8 -19 -8 -36 2 -42 24 -64 51 -36 46
7 -2 12 7 11 20 0 14 5 22 15 22 12 1 8 7 -11 24 -16 15 -26 34 -26 48 1 12 1
39 0 59 -2 32 -6 37 -32 43 -29 5 -30 8 -30 55 0 28 5 61 11 75 7 14 8 33 4
43 -18 43 -25 125 -12 160 8 25 8 38 -2 56 -19 36 -11 72 16 71 14 0 25 7 29
18 3 10 16 26 30 34 13 9 22 19 19 23 -2 4 9 5 25 3 24 -3 30 -10 34 -36z
m-12231 -89 c-3 -37 -10 -67 -14 -67 -11 0 -12 134 -2 144 16 15 22 -14 16
-77z m4744 27 c-3 -3 -12 -4 -19 -1 -8 3 -5 6 6 6 11 1 17 -2 13 -5z m3661
-29 c3 -3 -12 -5 -34 -5 -27 0 -35 3 -25 9 14 9 49 7 59 -4z m1220 -3 c6 -18
-15 -14 -22 4 -4 10 -1 14 6 12 6 -2 14 -10 16 -16z m-1328 -7 c0 -9 -9 -15
-25 -15 -16 0 -25 6 -25 15 0 9 9 15 25 15 16 0 25 -6 25 -15z m-9750 -5 c-20
-13 -80 -13 -80 0 0 6 21 10 48 10 34 0 43 -3 32 -10z m9184 -6 c15 -6 15 -8
-1 -21 -10 -8 -2 -5 18 6 38 22 123 29 134 11 3 -5 -10 -17 -29 -27 -38 -18
-44 -27 -24 -39 7 -4 0 -13 -19 -23 -63 -34 -140 -91 -157 -115 -9 -14 -23
-26 -31 -26 -8 0 -15 -9 -15 -20 0 -24 -35 -28 -44 -4 -10 26 -8 31 39 88 25
31 45 62 45 71 0 8 9 19 20 25 15 8 23 6 39 -12 12 -12 24 -18 28 -14 4 4 -1
15 -13 24 -23 19 -46 67 -37 76 8 8 27 8 47 0z m-64 -12 c0 -4 -22 -17 -50
-30 -35 -16 -50 -29 -50 -42 0 -11 -4 -20 -10 -20 -20 0 -9 27 24 63 22 25 42
37 60 37 14 0 26 -3 26 -8z m827 -8 c2 -6 -5 -14 -17 -17 -15 -4 -20 -13 -20
-36 0 -17 -4 -31 -10 -31 -5 0 -10 7 -10 16 0 10 -6 14 -15 10 -8 -3 -15 -1
-15 3 0 5 7 11 15 15 8 3 15 17 15 31 0 23 4 26 27 23 14 -2 28 -8 30 -14z
m-1552 -54 c10 -11 16 -20 13 -20 -3 0 -13 9 -23 20 -10 11 -16 20 -13 20 3 0
13 -9 23 -20z m1150 -1 c0 -8 -12 -15 -27 -17 -31 -4 -37 12 -10 27 21 13 37
9 37 -10z m-9625 -8 c0 -5 14 -14 30 -21 17 -7 30 -14 30 -16 0 -14 -47 -74
-58 -74 -20 0 -132 -112 -132 -131 0 -14 -7 -17 -32 -15 -18 2 -42 6 -53 10
-11 5 -26 10 -32 12 -22 6 -14 21 18 34 23 10 29 18 26 32 -7 26 30 68 60 68
14 0 23 6 23 15 0 8 11 17 25 21 14 3 25 13 25 21 0 28 21 53 45 53 14 0 25
-4 25 -9z m11650 -22 c0 -5 -4 -9 -10 -9 -5 0 -10 7 -10 16 0 8 5 12 10 9 6
-3 10 -10 10 -16z m-3553 -13 c45 -3 91 -9 102 -15 11 -7 31 -9 44 -6 17 5 53
-9 125 -46 101 -51 113 -61 91 -75 -8 -4 -7 -9 2 -15 7 -4 11 -11 7 -14 -3 -3
-21 7 -39 22 -55 47 -277 93 -340 71 -16 -6 -36 -7 -45 -4 -25 10 -119 -22
-150 -51 l-28 -26 -13 29 c-7 16 -10 41 -7 57 5 24 2 27 -19 27 -14 0 -27 -7
-31 -15 -3 -8 -15 -15 -26 -15 -51 0 -266 -254 -309 -365 -9 -24 -10 -25 -7
-5 25 138 161 333 266 381 28 12 50 27 50 31 0 5 8 8 18 7 9 -1 29 1 44 5 15
4 35 3 46 -3 17 -9 23 -6 36 14 13 20 22 23 58 19 24 -2 80 -6 125 -8z m553
-113 c0 -7 -73 53 -95 78 -11 13 6 1 38 -25 31 -27 57 -51 57 -53z m-1800 37
c0 -6 -30 -9 -72 -8 l-73 1 60 7 c33 4 66 7 73 8 6 1 12 -2 12 -8z m5826 -90
c29 0 58 -14 98 -47 31 -26 95 -57 110 -54 5 1 16 -1 25 -5 9 -4 29 -6 45 -5
17 2 26 -1 22 -8 -4 -5 2 -10 11 -11 10 0 38 -2 63 -3 l45 -2 5 40 c5 39 6 39
13 -20 4 -33 9 -177 12 -320 3 -201 2 -250 -7 -218 -7 26 -18 45 -29 48 -11 4
-19 13 -19 21 0 10 -13 14 -48 14 -27 0 -56 6 -67 15 -41 32 -91 65 -120 81
-16 9 -40 28 -51 43 -27 33 -117 201 -108 201 4 0 1 6 -5 14 -6 7 -9 20 -6 29
4 9 -2 21 -14 29 -12 9 -21 25 -20 39 1 13 -1 50 -4 82 -4 36 -1 69 6 85 l12
27 3 -38 c3 -32 7 -37 28 -37z m-5882 35 c9 -25 -29 -37 -75 -23 l-41 12 38
12 c54 17 71 16 78 -1z m-417 -41 c4 -13 -24 -27 -37 -19 -5 3 -7 12 -3 21 6
17 34 15 40 -2z m6730 -36 c-3 -7 -5 -2 -5 12 0 14 2 19 5 13 2 -7 2 -19 0
-25z m-6312 -18 c-3 -5 -12 -10 -18 -10 -7 0 -6 4 3 10 19 12 23 12 15 0z
m855 -24 c0 -8 -13 -24 -30 -36 -36 -25 -41 -8 -8 27 25 26 38 29 38 9z
m-1312 -55 c17 -54 15 -113 -4 -140 -24 -33 -34 -11 -34 76 0 107 17 136 38
64z m7302 -37 c-8 -27 -8 -26 -9 16 0 32 2 40 9 29 5 -9 6 -28 0 -45z m-8115
36 c9 -14 -23 -70 -40 -70 -16 0 -20 35 -9 64 7 18 39 22 49 6z m79 -20 c-22
-9 -29 -6 -20 9 4 6 14 7 23 4 15 -6 14 -7 -3 -13z m133 4 c3 -9 -3 -22 -18
-32 -31 -22 -62 -35 -54 -22 3 6 0 10 -8 10 -8 0 -17 -7 -21 -15 -6 -18 -60
-21 -54 -3 2 6 17 16 34 21 38 13 41 16 24 27 -8 5 -11 12 -7 16 3 4 13 1 22
-6 12 -10 16 -9 21 4 8 21 53 21 61 0z m5075 -19 c9 -19 9 -28 0 -37 -12 -12
-13 -10 -16 32 -1 12 -13 14 -59 12 -37 -3 -57 0 -57 7 0 7 23 11 60 11 55 0
61 -2 72 -25z m-4172 -4 c0 -11 -31 -24 -39 -16 -3 3 1 10 9 15 19 12 30 12
30 1z m916 -33 c-19 -27 -21 -19 -4 18 7 14 14 21 16 15 2 -6 -4 -21 -12 -33z
m-5246 -74 c0 -43 -4 -74 -10 -74 -5 0 -10 21 -10 48 0 93 1 92 -109 91 -53
-1 -102 -6 -108 -12 -8 -6 -13 -35 -13 -78 0 -38 -4 -69 -10 -69 -13 0 -22 56
-18 115 l3 50 130 5 c72 3 133 4 138 2 4 -2 7 -37 7 -78z m1879 39 c0 -40 -2
-44 -10 -25 -8 21 -3 72 7 72 2 0 4 -21 3 -47z m-1469 33 c0 -11 -19 -15 -25
-6 -3 5 1 10 9 10 9 0 16 -2 16 -4z m1220 -48 c0 -38 -3 -49 -11 -41 -10 10
-4 93 7 93 2 0 4 -23 4 -52z m-383 -35 c-2 -16 -4 -3 -4 27 0 30 2 43 4 28 2
-16 2 -40 0 -55z m1030 40 c-3 -10 -5 -4 -5 12 0 17 2 24 5 18 2 -7 2 -21 0
-30z m-2460 -17 c-10 -25 -37 -19 -37 7 0 13 3 27 7 31 11 11 36 -21 30 -38z
m1188 -33 c-2 -21 -4 -42 -4 -47 -1 -6 -5 -6 -11 0 -5 5 -6 35 -3 68 5 46 8
55 14 38 5 -12 6 -38 4 -59z m5505 60 c0 -10 -16 -31 -36 -47 -29 -23 -38 -26
-45 -15 -13 21 -11 40 8 61 21 24 73 24 73 1z m2380 -87 c0 -38 -2 -67 -5 -64
-9 9 -33 157 -26 163 15 16 31 -35 31 -99z m-8523 12 c-2 -18 -4 -6 -4 27 0
33 2 48 4 33 2 -15 2 -42 0 -60z m8145 -8 l3 -75 -70 -2 c-69 -1 -69 -1 -21 7
28 5 53 7 58 4 4 -3 8 32 8 77 0 103 17 94 22 -11z m-10722 60 c0 -21 -33 -29
-45 -10 -9 15 4 30 26 30 12 0 19 -7 19 -20z m6690 0 c0 -12 -12 -16 -55 -17
-38 -1 -55 2 -55 11 0 22 12 26 62 24 36 -2 48 -6 48 -18z m4154 -48 c-1 -93
-6 -100 -13 -17 -6 72 -5 85 7 85 4 0 7 -30 6 -68z m-11094 50 c0 -4 -10 -9
-22 -9 -18 -2 -20 0 -8 7 18 12 30 13 30 2z m4910 -1 c0 -12 -96 -35 -110 -26
-23 14 -7 24 48 28 31 2 58 4 60 5 1 1 2 -2 2 -7z m5917 -23 c-3 -7 -5 -2 -5
12 0 14 2 19 5 13 2 -7 2 -19 0 -25z m-10917 12 c-20 -13 -33 -13 -25 0 3 6
14 10 23 10 15 0 15 -2 2 -10z m7558 2 c7 -5 10 -16 6 -25 -4 -10 -1 -17 6
-17 6 0 14 9 17 20 3 11 12 20 19 20 17 0 17 -2 2 -34 -9 -20 -17 -25 -42 -23
-28 2 -31 -1 -34 -30 -6 -64 -35 -22 -35 50 0 39 30 58 61 39z m-5679 -11 c17
-11 26 -154 12 -179 -5 -9 -10 19 -13 72 -5 92 -15 111 -53 101 -11 -3 -91 -8
-177 -12 l-158 -6 0 -78 c0 -44 -5 -81 -11 -84 -17 -11 -18 -4 -11 90 l7 90
53 1 c29 1 55 4 59 7 10 11 276 8 292 -2z m1288 -38 c-3 -10 -5 -2 -5 17 0 19
2 27 5 18 2 -10 2 -26 0 -35z m1193 28 c0 -4 -21 -11 -46 -15 -69 -9 -84 -8
-84 9 0 12 14 15 65 15 36 0 65 -4 65 -9z m-623 -27 c4 -11 -135 -30 -145 -20
-2 3 -2 12 2 21 5 13 19 15 73 13 37 -2 68 -8 70 -14z m3944 -27 c-8 -8 -11
-5 -11 9 0 27 14 41 18 19 2 -9 -1 -22 -7 -28z m-6115 19 c6 -17 -12 -56 -26
-56 -11 0 -14 53 -3 63 11 11 23 8 29 -7z m256 -18 c-15 -15 -26 -4 -18 18 5
13 9 15 18 6 9 -9 9 -15 0 -24z m610 4 c-2 -9 4 -11 18 -7 16 5 20 2 20 -14 0
-18 -6 -20 -65 -19 -65 1 -65 1 -65 30 0 28 1 29 48 26 33 -2 46 -7 44 -16z
m655 -9 c3 -7 -15 -13 -49 -15 -55 -5 -75 2 -63 22 9 14 107 9 112 -7z m-1369
-9 c44 -6 52 -10 52 -28 0 -42 -12 -66 -34 -67 -20 -2 -20 -2 2 -6 12 -2 22
-9 22 -14 0 -5 -40 -9 -88 -9 -76 0 -88 2 -89 18 -1 9 -5 31 -8 48 -12 58 22
72 143 58z m5149 -26 c-3 -7 -5 -2 -5 12 0 14 2 19 5 13 2 -7 2 -19 0 -25z
m4481 22 c17 0 32 -4 32 -8 0 -5 -19 -8 -42 -8 -24 1 -55 -3 -70 -7 -24 -6
-28 -5 -28 14 0 19 4 21 38 15 20 -3 52 -6 70 -6z m-3746 -72 c-2 -5 -7 -8
-13 -8 -11 0 -12 63 -1 74 7 8 21 -53 14 -66z m-1848 16 c20 -8 21 -48 2 -64
-8 -6 -25 -10 -38 -8 -30 4 -40 64 -11 71 28 7 30 7 47 1z m236 -26 c0 -15
-37 -26 -103 -31 -68 -5 -81 0 -72 25 4 9 28 13 90 13 47 0 85 -3 85 -7z m903
5 c-7 -2 -19 -2 -25 0 -7 3 -2 5 12 5 14 0 19 -2 13 -5z m100 0 c-7 -2 -21 -2
-30 0 -10 3 -4 5 12 5 17 0 24 -2 18 -5z m-2020 -80 c3 -5 -17 -8 -43 -9 -27
0 -47 3 -44 8 6 10 81 11 87 1z m124 -105 c-2 -24 -4 -7 -4 37 0 44 2 63 4 43
2 -21 2 -57 0 -80z m-767 92 c12 -8 9 -10 -11 -10 -15 0 -41 -3 -58 -6 -19 -4
-31 -2 -31 4 0 20 74 29 100 12z m6737 -107 c-2 -21 -4 -4 -4 37 0 41 2 58 4
38 2 -21 2 -55 0 -75z m-7389 87 c33 0 0 -13 -38 -15 -30 -2 -40 1 -40 13 0
11 7 13 31 8 17 -3 38 -6 47 -6z m51 -19 c-15 -5 -22 6 -14 19 6 9 10 9 16 -1
5 -8 4 -15 -2 -18z m476 -108 c22 -8 18 -22 -4 -16 -15 4 -20 17 -23 66 -3 34
-2 67 1 72 3 6 7 -18 9 -53 2 -44 7 -65 17 -69z m242 105 c-3 -8 -6 -5 -6 6
-1 11 2 17 5 13 3 -3 4 -12 1 -19z m-2037 -18 c-20 -13 -63 -13 -55 0 3 6 21
10 38 10 24 0 28 -3 17 -10z m70 0 c0 -5 -6 -10 -14 -10 -8 0 -18 5 -21 10 -3
6 3 10 14 10 12 0 21 -4 21 -10z m608 4 c42 -12 22 -19 -56 -21 -71 -2 -75 -1
-52 12 27 15 70 19 108 9z m98 -120 c-6 -22 -42 -39 -51 -24 -3 5 5 10 17 12
21 3 23 10 28 68 4 64 4 64 8 16 2 -27 1 -60 -2 -72z m380 38 c-13 -12 -17 8
-9 44 l8 39 3 -39 c2 -21 1 -41 -2 -44z m7354 38 c0 -43 -14 -54 -24 -17 -10
37 -7 57 9 57 11 0 15 -11 15 -40z m-8495 -95 l110 0 6 42 c8 63 22 67 17 5
-3 -29 -7 -55 -10 -57 -8 -8 -236 -11 -244 -3 -11 12 -17 105 -8 125 6 13 10
-1 14 -47 l5 -65 110 0z m526 -11 c12 -14 11 -16 -6 -13 -18 4 -20 13 -21 79
l-2 75 8 -62 c4 -34 13 -70 21 -79z m1491 54 c-2 -5 -22 -8 -45 -7 l-42 1 38
10 c34 9 37 13 38 46 l2 37 6 -40 c4 -22 5 -43 3 -47z m6786 -77 l27 -10 -29
2 c-24 2 -31 8 -38 32 -5 17 -5 46 -1 65 7 33 8 31 11 -22 3 -51 6 -58 30 -67z
m222 67 c0 -66 -10 -85 -36 -69 -17 9 -17 10 -1 11 14 0 17 9 17 55 0 30 5 55
10 55 6 0 10 -24 10 -52z m-6417 25 c-7 -2 -19 -2 -25 0 -7 3 -2 5 12 5 14 0
19 -2 13 -5z m-1357 -38 c49 3 101 8 116 10 21 3 26 1 21 -10 -4 -12 -30 -15
-134 -15 -71 0 -129 4 -129 8 0 16 13 22 25 12 8 -6 48 -8 101 -5z m7402 -31
c-3 -14 -5 -12 -10 9 -3 19 -2 25 4 19 6 -6 8 -18 6 -28z m934 14 c-7 -7 -12
-8 -12 -2 0 14 12 26 19 19 2 -3 -1 -11 -7 -17z m-8927 -7 c-14 -13 -123 -26
-110 -13 12 13 40 19 85 21 20 1 30 -3 25 -8z m3815 -99 c0 -5 -9 -17 -20 -27
-20 -18 -25 -11 -14 19 6 17 34 23 34 8z m-845 -32 c-3 -5 -13 -10 -21 -10 -8
0 -14 -6 -14 -14 0 -23 -29 -41 -43 -27 -17 17 3 45 39 52 44 10 46 10 39 -1z
m62 -6 c-3 -3 -12 -4 -19 -1 -8 3 -5 6 6 6 11 1 17 -2 13 -5z m870 -27 c-2 -6
-22 -12 -45 -14 -32 -3 -42 -1 -42 11 0 8 8 16 18 18 28 6 73 -4 69 -15z
m6039 4 c14 -11 50 -22 84 -26 33 -4 63 -11 66 -16 3 -5 30 -9 59 -9 50 0 56
-2 70 -30 21 -40 45 -40 45 1 0 17 4 28 10 24 6 -4 10 6 10 22 0 15 4 34 9 41
4 7 11 -67 14 -169 7 -186 7 -459 0 -381 -3 32 -8 42 -22 42 -10 0 -32 7 -49
16 -18 8 -36 13 -40 10 -5 -3 -26 4 -48 14 -21 11 -46 20 -56 20 -10 0 -18 4
-18 9 0 5 -16 18 -35 30 -19 11 -35 27 -35 35 0 9 -16 30 -35 47 -19 18 -35
40 -35 50 0 10 -4 21 -10 24 -5 3 -10 14 -10 25 0 10 -7 21 -16 24 -12 5 -13
10 -5 19 7 10 7 19 -3 33 -23 33 -25 70 -4 83 20 12 25 51 7 51 -8 0 -8 5 1
15 16 19 17 19 46 -4z m-7837 -10 c-45 -4 -74 -12 -88 -25 -16 -15 -21 -16
-21 -5 0 30 23 39 100 37 l75 -1 -66 -6z m-949 -28 c-1 -16 -28 -43 -44 -43
-19 0 -21 21 -4 38 13 13 48 16 48 5z m145 -2 c9 -15 -5 -18 -68 -13 -31 2
-55 8 -51 13 7 12 111 12 119 0z m1735 -6 c-14 -17 -46 -20 -54 -6 -7 11 10
19 43 20 20 1 21 -1 11 -14z m-72 -7 c-6 -18 -25 -20 -31 -3 -5 10 0 15 14 15
12 0 19 -5 17 -12z m-2561 -25 c3 -9 -11 -11 -51 -7 -51 5 -57 4 -86 -25 -18
-17 -36 -28 -41 -25 -16 9 -10 53 9 63 24 14 164 9 169 -6z m1712 1 c2 -2 -12
-4 -32 -4 -20 0 -40 -1 -44 -2 -3 -2 -8 2 -10 9 -3 8 9 10 39 6 24 -3 45 -7
47 -9z m-4453 -19 c-11 -8 -27 -15 -37 -15 -9 0 -22 -7 -29 -15 -7 -8 -24 -15
-39 -16 -14 0 -35 -4 -46 -9 -13 -6 13 -7 70 -4 77 5 93 4 104 -10 10 -12 14
-64 16 -206 2 -210 8 -190 -57 -194 -9 -1 -19 -4 -23 -7 -3 -4 -15 -4 -27 -1
-37 9 -48 60 -48 216 l0 144 -30 11 c-16 5 -30 14 -30 18 0 16 -62 35 -98 30
l-37 -5 35 16 c118 54 140 60 230 61 59 0 63 -1 46 -14z m1749 -5 c3 -6 -5
-14 -18 -19 -13 -5 -27 -17 -30 -25 -8 -21 -37 -21 -37 0 0 32 20 54 50 54 16
0 32 -5 35 -10z m120 -8 c3 -8 3 -17 0 -20 -9 -9 -88 13 -93 26 -6 19 85 13
93 -6z m4315 -2 c6 -11 17 -20 25 -20 8 0 15 -5 15 -11 0 -5 -5 -7 -11 -4 -5
4 -19 -1 -29 -10 -31 -28 -52 3 -34 49 8 22 21 20 34 -4z m-2595 0 c3 -5 0
-10 -9 -10 -8 0 -21 -3 -30 -6 -9 -3 -16 -1 -16 4 0 9 15 16 42 21 4 0 10 -3
13 -9z m-95 -4 c0 -11 -19 -15 -25 -6 -3 5 1 10 9 10 9 0 16 -2 16 -4z m1849
-51 c26 0 46 -5 48 -12 3 -9 -9 -11 -46 -6 -35 4 -51 2 -51 -6 0 -13 -26 -15
-34 -2 -3 4 0 22 6 39 12 30 12 30 23 9 8 -18 19 -22 54 -22z m-2634 20 c0 -5
-19 -11 -41 -13 -40 -3 -42 -5 -51 -45 l-11 -42 -1 52 c-1 33 4 53 12 57 20 8
92 2 92 -9z m3563 -30 c-2 -9 -8 -12 -17 -6 -11 7 -11 13 0 32 11 20 14 21 17
7 2 -10 2 -25 0 -33z m7072 14 c0 -18 -2 -20 -15 -9 -13 11 -13 15 -3 21 18
12 18 12 18 -12z m-12583 -81 c-2 -18 -4 -6 -4 27 0 33 2 48 4 33 2 -15 2 -42
0 -60z m967 70 c9 -9 10 -18 2 -35 -16 -33 -24 -28 -24 12 0 38 3 41 22 23z
m86 -8 c0 -5 -2 -10 -4 -10 -3 0 -8 5 -11 10 -3 6 -1 10 4 10 6 0 11 -4 11
-10z m2582 -1 c3 -9 10 -9 27 0 28 16 51 8 51 -17 0 -16 -10 -20 -52 -25 -28
-4 -54 -5 -56 -2 -2 2 -2 16 2 30 7 26 22 33 28 14z m-4622 -9 c0 -5 -4 -10
-10 -10 -5 0 -10 5 -10 10 0 6 5 10 10 10 6 0 10 -4 10 -10z m1400 -44 c0 -39
-4 -55 -15 -60 -8 -3 -102 -8 -208 -10 -226 -6 -180 10 63 22 l145 7 1 35 c1
47 3 60 9 60 3 0 5 -24 5 -54z m8840 15 c0 -5 -9 -7 -20 -4 -11 3 -20 7 -20 9
0 2 9 4 20 4 11 0 20 -4 20 -9z m665 -1 c-28 -12 -85 -12 -85 0 0 6 24 10 53
9 38 0 47 -3 32 -9z m89 -97 c7 -139 6 -243 -4 -243 -5 0 -9 69 -9 153 -1 85
-3 163 -6 175 -2 12 0 22 4 22 5 0 11 -48 15 -107z m-7251 87 c7 0 6 -4 -3
-10 -12 -8 -11 -10 7 -10 12 0 23 5 25 11 2 7 13 9 26 5 37 -12 24 -26 -24
-26 -25 0 -54 -5 -65 -10 -16 -9 -19 -7 -19 13 0 29 9 39 28 32 7 -3 19 -5 25
-5z m6609 -131 c-2 -72 -5 -129 -7 -127 -6 6 -12 220 -7 241 12 46 17 5 14
-114z m3207 70 c-21 -12 -23 -3 -8 33 l14 33 3 -29 c2 -16 -2 -32 -9 -37z
m-4164 41 c-3 -5 -21 -9 -38 -9 l-32 2 35 7 c19 4 36 8 38 9 2 0 0 -3 -3 -9z
m-6486 -16 c21 -4 31 -12 31 -24 0 -15 -6 -17 -40 -13 -29 4 -45 1 -59 -11 -9
-9 -21 -13 -24 -9 -9 8 -9 48 0 56 8 9 51 9 92 1z m4300 -91 c0 -18 -3 -33 -9
-33 -6 0 -9 27 -9 63 1 49 3 56 9 32 4 -16 8 -45 9 -62z m2938 55 c-18 -43
-53 -50 -67 -13 -5 14 -10 28 -10 30 0 5 32 13 63 14 27 1 27 1 14 -31z
m-8097 -8 c0 -24 -7 -27 -73 -33 -50 -5 -66 6 -53 38 4 11 21 15 66 15 54 0
60 -2 60 -20z m7303 -62 c4 -46 6 -101 6 -123 l-1 -40 -8 40 c-13 67 -21 205
-12 205 5 0 12 -37 15 -82z m107 45 c26 -33 24 -86 -3 -91 -24 -5 -87 44 -87
68 0 57 53 70 90 23z m710 7 c0 -5 -4 -10 -10 -10 -5 0 -10 5 -10 10 0 6 5 10
10 10 6 0 10 -4 10 -10z m3380 -41 c0 -31 -4 -48 -10 -44 -5 3 -10 17 -10 31
0 14 -4 22 -10 19 -5 -3 -10 -4 -10 -1 0 6 32 46 37 46 2 0 3 -23 3 -51z
m-3092 11 c-7 -11 -19 -20 -26 -20 -10 0 -10 5 -2 20 6 11 17 20 25 20 13 0
13 -3 3 -20z m-2688 -20 c0 -5 -5 -10 -11 -10 -5 0 -7 5 -4 10 3 6 8 10 11 10
2 0 4 -4 4 -10z m-2385 -172 c1 -62 7 -210 13 -328 7 -118 14 -262 16 -320 3
-58 5 -109 6 -115 0 -5 -1 -32 -2 -60 -5 -85 -23 -56 -25 40 -1 50 -7 160 -13
245 -17 252 -26 549 -20 665 0 5 5 4 12 -3 7 -7 12 -54 13 -124z m4169 106
c10 -25 7 -62 -5 -70 -18 -11 -27 9 -22 49 5 39 17 48 27 21z m3926 4 c0 -7
-5 -20 -10 -28 -12 -19 -35 2 -27 24 7 19 37 21 37 4z m74 -14 c13 -5 16 -23
17 -83 0 -42 4 -98 7 -126 6 -45 10 -50 32 -50 33 0 37 -20 39 -165 1 -109 0
-116 -19 -117 -16 -1 -20 5 -21 30 0 26 -2 29 -8 12 -5 -11 -7 -23 -5 -26 6
-10 -42 -31 -62 -27 -17 3 -19 13 -18 75 0 47 -3 70 -10 67 -16 -6 -30 7 -44
39 -14 32 -8 49 13 40 8 -3 15 0 15 5 0 6 9 9 20 7 11 -2 18 0 15 6 -4 5 -19
9 -34 9 -30 0 -45 12 -55 47 -6 18 -2 22 23 28 27 6 29 8 20 38 -11 43 -5 91
12 95 17 3 39 48 39 79 0 25 1 26 24 17z m-2024 -24 c0 -5 -2 -10 -4 -10 -3 0
-8 5 -11 10 -3 6 -1 10 4 10 6 0 11 -4 11 -10z m-10176 -16 c9 -3 16 -12 16
-20 0 -8 10 -14 26 -14 25 0 26 -2 19 -37 -7 -37 -19 -53 -41 -53 -18 0 -35
26 -28 44 4 10 -1 25 -11 36 -10 11 -15 26 -12 35 7 17 9 17 31 9z m116 -9 c0
-9 -7 -18 -16 -22 -18 -7 -39 11 -30 26 11 17 46 13 46 -4z m-390 -14 c0 -9
-24 -21 -42 -21 -6 0 -6 6 2 15 14 16 40 20 40 6z m814 1 c9 -15 -54 -72 -80
-72 -27 0 -33 25 -11 52 17 23 81 37 91 20z m1726 4 c0 -3 -4 -8 -10 -11 -5
-3 -10 -1 -10 4 0 6 5 11 10 11 6 0 10 -2 10 -4z m6636 -50 c4 -26 2 -36 -5
-31 -6 3 -11 22 -11 42 0 45 8 39 16 -11z m91 22 c-3 -8 -6 -5 -6 6 -1 11 2
17 5 13 3 -3 4 -12 1 -19z m-9311 -42 c7 -29 -1 -46 -21 -46 -19 0 -29 38 -15
55 18 21 29 18 36 -9z m9374 -12 c0 -2 -16 -4 -35 -4 -19 0 -35 4 -35 8 0 4
16 6 35 4 19 -2 35 -6 35 -8z m-2191 -114 c1 -26 -2 -31 -9 -20 -5 8 -9 44 -9
80 1 65 2 65 10 20 4 -25 8 -61 8 -80z m-511 98 c1 -7 5 -41 8 -75 6 -57 8
-62 33 -66 23 -4 23 -4 -6 -6 -31 -1 -32 -1 -38 57 -7 60 -8 82 -6 95 2 11 7
8 9 -5z m2542 -7 c0 -5 -14 -9 -31 -9 -20 1 -26 4 -17 9 18 12 48 11 48 0z
m-8854 -26 c19 -15 19 -15 0 -30 -25 -19 -45 -19 -52 0 -6 15 11 45 25 45 4 0
16 -7 27 -15z m7989 -14 c-6 -5 -25 10 -25 20 0 5 6 4 14 -3 8 -7 12 -15 11
-17z m-925 -26 l0 -45 -112 2 -113 2 108 3 107 4 0 39 c0 22 2 40 5 40 3 0 5
-20 5 -45z m-7447 29 c9 -10 -4 -34 -18 -34 -20 0 -30 21 -14 31 17 10 24 11
32 3z m8470 -1 c-7 -2 -21 -2 -30 0 -10 3 -4 5 12 5 17 0 24 -2 18 -5z m-9691
-43 c-3 -31 -7 -34 -37 -26 -30 8 -34 36 -5 36 11 0 20 5 20 11 0 6 6 9 13 6
6 -2 11 -15 9 -27z m7676 -65 c-2 -1 -47 -6 -102 -9 -68 -5 -96 -4 -91 3 3 7
43 11 96 11 l89 0 2 48 2 47 3 -49 c2 -26 3 -49 1 -51z m-7575 53 c7 -21 -7
-49 -34 -64 l-24 -14 30 5 c24 4 26 3 10 -4 -25 -12 -65 -14 -65 -3 0 18 32
72 48 82 23 13 29 12 35 -2z m8068 -41 c-6 -6 -14 -7 -18 -2 -5 4 -2 10 5 12
6 3 13 14 13 26 2 20 2 20 6 -2 3 -13 0 -28 -6 -34z m-725 -29 c-16 -10 -29 7
-31 41 l-3 30 22 -32 c15 -21 19 -34 12 -39z m-3216 32 c0 -5 -8 -10 -17 -10
-15 0 -16 2 -3 10 19 12 20 12 20 0z m3818 -7 c-10 -2 -28 -2 -40 0 -13 2 -5
4 17 4 22 1 32 -1 23 -4z m-8130 -19 c28 -6 30 -8 20 -30 -12 -25 -34 -32 -40
-12 -7 21 -36 0 -43 -31 -7 -31 -19 -39 -30 -21 -11 17 -24 11 -31 -15 -6 -26
-15 -31 -28 -17 -4 4 -18 7 -29 7 -18 0 -21 5 -19 25 6 38 32 62 64 58 16 -3
29 1 32 9 3 7 14 13 25 13 11 0 23 5 26 10 7 12 12 12 53 4z m2527 -13 c-10
-17 -93 -59 -103 -52 -16 10 0 28 38 45 39 17 74 21 65 7z m10676 -377 c2
-150 -12 -222 -25 -125 -4 29 -11 49 -16 46 -5 -3 -12 6 -16 20 -4 17 -12 25
-23 23 -21 -4 -52 28 -45 47 5 11 2 14 -12 9 -11 -4 -25 -12 -33 -18 -11 -8
-13 -8 -8 0 9 15 -21 41 -64 55 -116 37 -144 65 -140 135 1 26 -3 45 -13 53
-13 11 -12 18 9 59 23 46 56 65 70 41 4 -5 14 -9 24 -9 10 0 26 -11 35 -25 14
-22 22 -25 50 -20 28 6 39 2 71 -28 40 -37 47 -36 73 8 6 11 12 14 12 8 0 -7
5 -13 10 -13 6 0 11 26 11 58 3 100 27 -168 30 -324z m-4256 346 c-3 -5 -10
-10 -16 -10 -5 0 -9 5 -9 10 0 6 7 10 16 10 8 0 12 -4 9 -10z m60 -19 c5 -9
-31 -41 -46 -41 -10 0 -20 30 -13 41 7 12 51 12 59 0z m53 -41 c0 -19 -4 -30
-13 -30 -16 0 -27 53 -12 62 17 10 24 2 25 -32z m-370 23 c-10 -2 -26 -2 -35
0 -10 3 -2 5 17 5 19 0 27 -2 18 -5z m79 -69 c3 -77 -10 -63 -21 24 -5 42 -4
53 6 50 9 -3 14 -28 15 -74z m-592 52 c-72 -12 -117 -10 -94 4 6 5 46 8 88 8
l76 -1 -70 -11z m345 -78 c0 -32 -4 -58 -10 -58 -6 0 -10 31 -10 73 0 50 3 67
10 57 5 -8 10 -41 10 -72z m-973 56 c-3 -3 -12 -4 -19 -1 -8 3 -5 6 6 6 11 1
17 -2 13 -5z m116 -1 c-18 -2 -48 -2 -65 0 -18 2 -4 4 32 4 36 0 50 -2 33 -4z
m106 -70 c-2 -57 -3 -61 -8 -28 -6 39 -3 95 5 95 2 0 3 -30 3 -67z m241 -27
c-7 -7 -10 9 -9 45 l1 54 9 -45 c5 -28 5 -48 -1 -54z m-490 2 c0 -32 -4 -58
-10 -58 -6 0 -10 31 -10 73 0 50 3 67 10 57 5 -8 10 -41 10 -72z m3792 44 c2
-15 4 -93 3 -172 l0 -145 -40 -1 -40 -1 39 4 c38 4 38 5 32 41 -3 20 -6 94 -6
164 0 112 -2 127 -17 131 -14 4 -14 5 3 6 16 1 23 -6 26 -27z m-3045 -4 c-3
-8 -6 -5 -6 6 -1 11 2 17 5 13 3 -3 4 -12 1 -19z m2503 12 c-108 -14 -100 1
-100 -180 0 -180 -1 -177 83 -166 30 4 36 3 22 -3 -30 -14 -91 -13 -103 2 -9
11 -20 286 -13 340 2 15 13 17 84 16 80 -2 81 -2 27 -9z m-3140 -31 c0 -10
-34 -12 -43 -2 -4 3 -2 12 4 20 9 10 15 10 25 2 8 -6 14 -15 14 -20z m2943
-184 c4 -99 3 -125 -6 -110 -6 12 -12 83 -14 170 -3 181 12 136 20 -60z m-903
179 c0 -8 -5 -12 -10 -9 -6 4 -8 11 -5 16 9 14 15 11 15 -7z m796 -19 c-3 -20
-36 -55 -52 -55 -16 0 -30 48 -18 60 10 9 55 18 66 13 3 -2 5 -10 4 -18z
m-977 11 c-2 -2 -22 -11 -44 -20 l-40 -16 24 20 c13 11 32 20 44 20 11 0 18
-2 16 -4z m1251 -26 c0 -11 -7 -20 -15 -20 -15 0 -21 21 -8 33 12 13 23 7 23
-13z m-2620 -6 c0 -2 -9 -4 -20 -4 -11 0 -20 4 -20 9 0 5 9 7 20 4 11 -3 20
-7 20 -9z m1720 -3 c0 -10 -7 -24 -15 -31 -12 -10 -16 -9 -21 4 -6 16 11 46
27 46 5 0 9 -8 9 -19z m-64 -16 c19 -29 12 -55 -14 -55 -26 0 -42 20 -42 52 0
36 33 38 56 3z m-2146 4 c0 -5 -12 -9 -27 -10 -27 0 -27 -1 -5 -9 22 -9 31
-30 12 -30 -5 0 -10 5 -10 10 0 6 -6 10 -14 10 -13 0 -29 24 -21 32 8 7 65 5
65 -3z m6180 -9 c0 -5 -4 -10 -10 -10 -5 0 -10 5 -10 10 0 6 5 10 10 10 6 0
10 -4 10 -10z m-4136 -168 c4 -85 3 -132 -3 -128 -5 4 -10 65 -10 138 -1 72 0
130 2 127 3 -2 7 -64 11 -137z m4266 30 c0 -61 -4 -102 -12 -110 -13 -13 -12
-135 3 -140 5 -2 9 -29 8 -60 -1 -44 -3 -51 -9 -32 -5 16 -8 -9 -9 -73 -1 -64
-5 -96 -11 -92 -6 4 -8 11 -4 16 3 6 3 22 -1 36 -6 23 -7 24 -24 9 -36 -32
-107 -11 -85 26 4 5 0 21 -7 35 -12 22 -11 27 4 38 24 17 21 42 -7 76 -20 23
-24 36 -19 67 3 20 10 41 14 47 5 5 9 21 9 35 0 14 5 31 12 38 9 9 8 12 -5 12
-11 0 -17 8 -16 23 1 33 14 63 22 50 4 -6 16 -9 28 -6 16 4 20 12 16 30 -3 18
-1 22 12 18 11 -3 25 5 39 25 13 16 27 30 32 30 6 0 10 -41 10 -98z m-4082 28
c4 -38 -12 -60 -29 -43 -15 15 -2 86 14 80 7 -2 13 -18 15 -37z m-9780 -38 c3
-27 9 -36 32 -44 20 -7 26 -13 20 -21 -49 -60 -60 -77 -60 -90 0 -17 -128 -36
-197 -29 -77 8 -83 53 -11 87 29 14 44 28 46 44 3 15 8 21 19 17 16 -6 43 15
43 35 0 9 -3 9 -14 0 -10 -9 -16 -9 -21 -1 -17 27 4 37 72 36 l68 -1 3 -33z
m7469 27 c-14 -8 -22 -8 -30 0 -8 8 -3 11 19 11 25 -1 27 -2 11 -11z m1417
-26 c4 -5 13 -8 19 -8 15 0 16 -54 2 -57 -5 -2 -14 7 -20 20 -5 12 -18 22 -27
22 -10 0 -18 7 -18 15 0 15 31 21 44 8z m108 -78 c-13 -28 -32 -25 -32 4 0 24
21 44 34 31 6 -6 5 -19 -2 -35z m-542 -30 c0 -19 -4 -35 -8 -35 -4 0 -6 16 -4
35 2 19 6 35 8 35 2 0 4 -16 4 -35z m2665 25 c3 -5 2 -10 -4 -10 -5 0 -13 5
-16 10 -3 6 -2 10 4 10 5 0 13 -4 16 -10z m-3605 -10 c0 -5 -4 -10 -10 -10 -5
0 -10 5 -10 10 0 6 5 10 10 10 6 0 10 -4 10 -10z m1190 -45 c0 -30 -3 -55 -7
-55 -5 0 -6 25 -5 55 5 71 12 71 12 0z m1800 15 c0 -17 -6 -20 -37 -19 -32 2
-33 3 -10 6 16 3 31 11 34 19 7 20 13 17 13 -6z m-2541 -43 c-1 -31 -1 -31 -9
-7 -11 36 -11 52 0 45 6 -3 10 -21 9 -38z m239 -29 c-3 -21 -8 -22 -85 -22
-105 -1 -109 12 -5 16 l77 3 4 35 c3 26 6 29 8 13 3 -13 3 -33 1 -45z m-751
-5 c-3 -10 -5 -2 -5 17 0 19 2 27 5 18 2 -10 2 -26 0 -35z m1007 22 c3 -8 1
-15 -4 -15 -6 0 -10 7 -10 15 0 8 2 15 4 15 2 0 6 -7 10 -15z m176 -13 c0 -5
-23 -9 -51 -11 -34 -1 -49 2 -44 8 7 13 95 15 95 3z m-113 -8 c-3 -3 -12 -4
-19 -1 -8 3 -5 6 6 6 11 1 17 -2 13 -5z m-519 -21 c-10 -2 -26 -2 -35 0 -10 3
-2 5 17 5 19 0 27 -2 18 -5z m3302 -19 c0 -4 -7 -12 -17 -19 -23 -17 -7 -35
33 -35 33 0 54 -14 82 -56 7 -10 10 -14 7 -7 -3 6 -1 14 5 18 21 13 15 -43 -8
-68 -14 -16 -14 -21 4 -55 20 -36 60 -56 62 -30 0 7 4 29 7 48 10 52 -10 118
-38 123 -16 3 -13 5 11 6 34 1 39 9 20 30 -11 11 -10 13 0 7 43 -25 66 -150
40 -213 -28 -64 -62 -91 -130 -104 -92 -17 -134 -6 -185 46 -49 52 -62 107
-43 183 12 47 49 100 59 83 4 -5 17 -4 31 1 24 10 24 11 5 18 -19 8 -19 8 5
18 29 12 50 15 50 6z m106 -2 c7 -4 -12 -8 -42 -8 -30 -1 -54 2 -54 7 0 11 80
12 96 1z m36 -54 c-7 -7 -12 -8 -12 -2 0 14 12 26 19 19 2 -3 -1 -11 -7 -17z
m-403 -375 c6 -164 13 -319 15 -345 2 -28 -2 -52 -9 -58 -16 -13 -119 -20
-480 -30 -494 -15 -1042 -39 -1145 -50 -52 -5 -160 -10 -240 -10 -80 -1 -219
-5 -310 -11 -91 -5 -338 -15 -550 -22 -212 -7 -390 -16 -396 -20 -6 -3 -106
-9 -222 -12 l-212 -6 -9 23 c-11 28 -32 620 -24 662 5 26 8 28 41 22 20 -3 65
-1 101 4 87 12 514 16 570 6 28 -5 46 -4 50 2 4 7 20 8 46 2 53 -13 105 -12
105 0 0 6 27 10 61 10 37 0 58 4 54 10 -4 6 17 10 54 10 51 0 61 -3 61 -17 1
-16 2 -16 16 2 15 19 26 20 352 18 285 -1 331 1 297 11 l-40 13 80 6 c44 4
144 7 223 7 115 0 146 -3 158 -15 14 -13 17 -13 30 0 21 21 179 18 217 -4 22
-13 31 -13 47 -3 30 18 110 28 119 14 5 -8 17 -9 41 -2 19 6 46 10 60 10 20 0
22 -2 10 -11 -11 -8 0 -9 40 -5 30 3 66 6 80 6 20 0 22 2 10 10 -24 15 1 26
45 19 22 -3 31 -7 20 -8 -11 -1 -27 -6 -35 -11 -11 -7 -3 -10 28 -10 26 0 41
4 37 10 -4 6 9 10 32 11 21 1 29 3 18 6 -11 3 -24 9 -29 14 -9 8 88 4 186 -7
34 -4 53 -2 70 10 14 10 45 16 83 17 33 1 74 5 90 9 17 4 55 8 86 9 l56 1 12
-297z m-731 240 c-10 -2 -26 -2 -35 0 -10 3 -2 5 17 5 19 0 27 -2 18 -5z
m-6258 -88 c-14 -7 -29 -10 -35 -6 -5 5 -17 11 -25 14 -8 3 8 6 35 6 48 0 49
0 25 -14z m9790 -61 c0 -14 -4 -22 -10 -19 -6 3 -7 -1 -4 -10 7 -17 -14 -75
-26 -75 -14 0 -18 39 -5 43 7 3 15 24 19 46 7 45 26 56 26 15z m16 -41 c-10
-10 -19 5 -10 18 6 11 8 11 12 0 2 -7 1 -15 -2 -18z m-9384 -223 c0 -94 2
-113 8 -75 4 28 5 75 3 105 l-5 55 28 -52 c25 -48 26 -54 12 -70 -19 -22 -31
-80 -18 -88 6 -3 10 5 10 19 0 16 6 26 15 26 12 0 15 18 15 102 0 56 2 99 4
97 3 -2 6 -56 8 -119 l3 -115 38 3 c20 2 37 -1 37 -6 0 -5 -36 -13 -80 -16
-44 -4 -82 -12 -85 -17 -17 -26 -20 5 -17 158 3 126 6 162 14 143 5 -14 10
-81 10 -150z m9342 146 c14 2 16 0 7 -9 -7 -7 -17 -12 -24 -12 -7 0 -13 -10
-15 -23 l-4 -23 -19 22 c-10 12 -16 26 -12 32 5 8 8 7 11 -1 7 -21 25 -13 19
9 -4 14 -2 18 6 11 7 -5 20 -8 31 -6z m-11517 -10 c4 -3 -21 -6 -55 -6 -34 0
-62 3 -62 8 0 8 109 7 117 -2z m2200 -38 c-3 -7 -5 -2 -5 12 0 14 2 19 5 13 2
-7 2 -19 0 -25z m-2310 -20 c-3 -7 -5 -2 -5 12 0 14 2 19 5 13 2 -7 2 -19 0
-25z m4191 -108 c2 -69 8 -120 13 -120 6 0 31 21 57 46 36 35 40 42 17 28 -22
-14 -15 -2 30 46 98 107 104 112 115 105 6 -4 9 -1 8 5 -2 7 5 17 15 23 14 10
20 9 27 -3 19 -29 9 -46 -81 -139 -65 -67 -87 -96 -78 -102 7 -4 17 -5 21 -3
4 3 8 1 8 -5 0 -9 25 -43 68 -88 12 -13 22 -28 22 -34 0 -5 7 -12 15 -15 16
-6 45 -59 45 -81 0 -7 -7 -16 -16 -20 -18 -6 -37 13 -145 145 l-59 74 -35 -37
c-34 -35 -36 -39 -34 -106 2 -77 -9 -101 -39 -83 -14 9 -18 32 -22 135 -10
230 -7 349 10 359 27 17 35 -9 38 -130z m7297 110 c4 -6 10 -8 14 -5 5 2 16
-2 26 -9 18 -13 18 -14 -3 -20 -27 -9 -28 -26 -3 -48 24 -20 31 -14 31 29 0
18 5 33 10 33 6 0 10 -28 10 -63 0 -36 5 -68 12 -75 8 -8 8 -12 1 -12 -6 0
-10 -25 -11 -60 0 -33 4 -60 9 -60 5 0 9 -9 9 -21 0 -11 -4 -18 -9 -15 -12 8
-23 -38 -15 -59 4 -9 3 -20 -2 -24 -12 -8 -27 -34 -61 -99 -20 -41 -31 -52
-45 -49 -14 4 -18 -1 -18 -19 0 -17 -8 -27 -26 -34 -14 -6 -32 -17 -40 -25
-23 -22 -65 -30 -74 -14 -7 11 -13 10 -29 -5 -12 -11 -21 -14 -21 -8 0 7 -38
11 -115 10 -64 0 -119 2 -122 6 -4 3 30 6 75 6 66 0 82 3 82 15 0 8 6 15 14
15 9 0 12 7 9 20 -4 16 1 21 27 26 19 4 35 15 40 28 5 12 9 16 9 9 1 -7 15 -5
41 8 28 14 40 26 40 40 0 17 3 19 14 10 23 -20 27 3 6 43 -13 27 -19 62 -21
119 -1 77 0 82 19 80 14 -2 22 5 26 22 7 28 -2 55 -19 55 -9 0 -11 19 -8 72 3
69 13 110 13 55 0 -14 4 -29 10 -32 6 -3 7 1 4 9 -4 10 1 18 12 23 11 3 23 12
27 20 9 15 43 17 52 3z m-735 -7 c-2 -32 -136 -123 -182 -123 -18 0 -18 1 -4
16 9 8 21 12 27 8 7 -4 9 -3 6 2 -11 18 9 35 44 38 42 3 82 23 74 37 -4 5 -3
14 0 19 7 12 35 14 35 3z m-6795 -21 c6 -4 16 -7 24 -9 8 -1 25 -13 38 -28 13
-14 28 -23 33 -20 5 3 14 -3 19 -14 8 -14 7 -20 -4 -25 -8 -3 -15 -1 -15 4 0
5 -7 7 -15 4 -23 -9 -6 -26 21 -21 13 2 21 1 19 -4 -3 -4 0 -9 7 -11 8 -3 14
-33 16 -82 5 -101 -14 -157 -75 -212 -38 -35 -53 -42 -100 -47 -44 -5 -64 -2
-93 13 -44 22 -85 68 -105 117 -28 66 -13 305 17 261 7 -10 11 -9 23 7 8 11
19 26 26 33 6 7 8 16 4 20 -4 4 -15 -4 -26 -17 -11 -13 -22 -22 -24 -19 -3 2
9 18 26 34 24 23 32 26 39 15 7 -12 11 -11 26 3 14 14 26 16 63 11 25 -4 51
-10 56 -13z m7415 -152 c0 -16 -17 -20 -28 -7 -8 10 -6 13 9 14 10 1 19 -2 19
-7z m-8696 -20 c22 -8 26 -16 26 -49 0 -39 0 -39 -50 -50 -72 -15 -263 -14
-279 2 -10 10 -11 9 -7 -3 8 -25 15 -80 22 -196 6 -102 5 -114 -12 -132 -30
-31 -58 -35 -80 -11 -17 18 -19 40 -22 174 -3 137 -5 152 -20 149 -34 -6 -248
-10 -281 -5 -30 5 -35 10 -38 36 -6 55 4 60 134 61 65 1 90 -1 56 -3 -36 -2
-63 -9 -63 -15 0 -7 -18 -8 -52 -4 -44 5 -49 4 -33 -6 11 -6 25 -19 32 -27 10
-14 12 -14 18 2 4 9 17 17 29 16 20 0 20 -1 1 -9 -14 -6 5 -9 60 -10 94 -3 84
-3 118 5 22 6 26 4 21 -9 -4 -12 0 -16 15 -16 24 0 27 10 9 28 -10 10 -10 15
2 22 19 12 57 13 64 1 3 -4 29 -7 58 -5 29 2 74 3 100 4 39 0 46 3 41 16 -5
13 3 15 48 14 81 -3 89 1 39 15 -42 12 -43 13 -13 14 17 1 43 -3 57 -9z
m-4414 -65 c12 -24 24 -74 27 -113 5 -65 3 -74 -30 -143 -31 -66 -41 -77 -82
-97 -26 -12 -66 -25 -89 -28 l-42 -6 -12 59 c-22 109 -11 196 33 239 8 9 15
21 15 27 0 14 99 112 120 119 21 7 36 -7 60 -57z m3980 51 c0 -2 -7 -7 -16
-10 -8 -3 -12 -2 -9 4 6 10 25 14 25 6z m9087 -53 c-3 -10 -5 -4 -5 12 0 17 2
24 5 18 2 -7 2 -21 0 -30z m-9157 17 c19 -6 13 -7 -22 -6 -26 1 -51 5 -54 9
-10 9 44 7 76 -3z m-1231 -86 c23 -24 24 -28 10 -52 -17 -31 7 -28 -481 -51
-274 -13 -298 -11 -298 32 1 66 -10 63 233 76 122 7 267 13 322 14 55 2 120 4
145 5 37 1 49 -3 69 -24z m10648 -46 c-3 -8 -6 -5 -6 6 -1 11 2 17 5 13 3 -3
4 -12 1 -19z m-447 -175 c-23 -9 -37 -27 -32 -41 6 -18 -76 -16 -94 3 -9 8
-14 15 -12 16 2 0 18 1 37 2 19 1 36 8 39 15 2 7 19 12 40 11 21 0 30 -3 22
-6z m-223 -63 c-1 -11 -7 -22 -14 -25 -10 -3 -11 0 -3 14 8 16 6 21 -8 24 -13
4 -12 5 5 6 16 1 21 -4 20 -19z m68 -30 c-3 -5 -14 -10 -23 -10 -15 0 -15 2
-2 10 20 13 33 13 25 0z m-4475 -130 c0 -5 -7 -10 -15 -10 -8 0 -15 5 -15 10
0 6 7 10 15 10 8 0 15 -4 15 -10z m-79 -33 c-8 -8 -11 -7 -11 4 0 20 13 34 18
19 3 -7 -1 -17 -7 -23z m407 21 c-6 -18 -25 -21 -25 -3 0 8 7 15 15 15 7 0 12
-5 10 -12z m-108 -22 c0 -3 -4 -8 -10 -11 -5 -3 -10 -1 -10 4 0 6 5 11 10 11
6 0 10 -2 10 -4z m1550 -16 c0 -5 -2 -10 -4 -10 -3 0 -8 5 -11 10 -3 6 -1 10
4 10 6 0 11 -4 11 -10z m-2185 -30 c8 -13 -35 -13 -55 0 -11 7 -7 10 17 10 17
0 35 -4 38 -10z m935 -5 c0 -9 -12 -20 -26 -25 -33 -13 -94 -13 -94 0 0 6 12
10 28 10 15 1 38 7 52 15 32 18 40 18 40 0z m-2163 -11 c-3 -3 -12 -4 -19 -1
-8 3 -5 6 6 6 11 1 17 -2 13 -5z m934 -1 c14 9 21 9 31 -1 10 -10 8 -14 -10
-19 l-22 -5 20 -18 c19 -16 19 -18 3 -24 -10 -4 -14 -4 -10 0 8 8 -22 33 -40
34 -7 0 -13 -5 -13 -11 0 -6 7 -9 15 -5 20 7 19 -4 -2 -20 -21 -16 -63 -18
-63 -4 0 6 7 10 15 10 8 0 15 7 15 15 0 24 23 56 34 45 5 -5 16 -4 27 3z m348
-19 c2 -2 -16 -4 -40 -4 -31 0 -40 3 -29 10 13 8 57 4 69 -6z m254 -1 c-13 -2
-33 -2 -45 0 -13 2 -3 4 22 4 25 0 35 -2 23 -4z m90 0 c-7 -2 -21 -2 -30 0
-10 3 -4 5 12 5 17 0 24 -2 18 -5z m180 0 c-7 -2 -21 -2 -30 0 -10 3 -4 5 12
5 17 0 24 -2 18 -5z m-1278 -38 c0 -6 18 -13 40 -16 32 -5 25 -6 -30 -7 -38 0
-64 2 -57 5 6 2 12 10 12 17 0 7 8 12 18 11 9 0 17 -5 17 -10z m-555 -15 c12
-8 9 -10 -13 -10 -16 0 -26 4 -22 10 8 12 16 12 35 0z m-691 -9 c11 -7 10 -11
-7 -20 -28 -15 -52 -14 -52 2 0 27 30 36 59 18z m61 -1 c12 -7 10 -9 -8 -7
-12 0 -22 5 -22 9 0 11 12 10 30 -2z m328 3 c-10 -2 -28 -2 -40 0 -13 2 -5 4
17 4 22 1 32 -1 23 -4z m459 1 c-3 -3 -12 -4 -19 -1 -8 3 -5 6 6 6 11 1 17 -2
13 -5z m161 -1 c-21 -2 -55 -2 -75 0 -21 2 -4 4 37 4 41 0 58 -2 38 -4z
m-3556 -41 c-7 -2 -12 -11 -12 -20 0 -12 -3 -13 -11 -5 -13 13 10 45 26 35 5
-3 4 -7 -3 -10z m-262 1 c0 -5 -10 -13 -23 -19 -19 -8 -23 -7 -23 8 0 12 8 18
23 18 13 0 23 -3 23 -7z m650 -15 c0 -6 -6 -5 -15 2 -8 7 -15 14 -15 16 0 2 7
1 15 -2 8 -4 15 -11 15 -16z m-74 -11 c4 -4 -7 -7 -24 -7 -18 0 -32 5 -32 10
0 11 45 9 56 -3z m1427 6 c-7 -2 -19 -2 -25 0 -7 3 -2 5 12 5 14 0 19 -2 13
-5z m175 0 c-10 -2 -26 -2 -35 0 -10 3 -2 5 17 5 19 0 27 -2 18 -5z m575 0
c-7 -2 -21 -2 -30 0 -10 3 -4 5 12 5 17 0 24 -2 18 -5z m-4278 -13 c3 -5 1
-10 -4 -10 -6 0 -11 5 -11 10 0 6 2 10 4 10 3 0 8 -4 11 -10z m533 -27 c-2
-20 -9 -29 -25 -31 -26 -4 -31 19 -10 43 21 24 39 18 35 -12z m-278 1 c0 -2
-7 -4 -15 -4 -8 0 -15 4 -15 10 0 5 7 7 15 4 8 -4 15 -8 15 -10z m1188 0 c1
-5 -2 -9 -8 -8 -5 1 -17 2 -25 3 -8 0 -15 5 -15 10 0 12 44 8 48 -5z m439 10
c-3 -3 -12 -4 -19 -1 -8 3 -5 6 6 6 11 1 17 -2 13 -5z m1213 -19 c0 -11 -11
-15 -37 -15 -49 0 -28 20 30 29 4 0 7 -6 7 -14z m-2805 -5 c3 -5 1 -10 -4 -10
-6 0 -11 5 -11 10 0 6 2 10 4 10 3 0 8 -4 11 -10z m470 0 c3 -5 -1 -10 -10
-10 -9 0 -13 5 -10 10 3 6 8 10 10 10 2 0 7 -4 10 -10z m1285 0 c0 -5 -13 -10
-29 -10 -17 0 -33 5 -36 10 -4 6 8 10 29 10 20 0 36 -4 36 -10z m55 0 c18 -8
17 -9 -7 -9 -16 -1 -28 4 -28 9 0 12 8 12 35 0z m230 0 c-3 -5 -10 -10 -16
-10 -5 0 -9 5 -9 10 0 6 7 10 16 10 8 0 12 -4 9 -10z m435 0 c0 -5 -5 -10 -11
-10 -5 0 -7 5 -4 10 3 6 8 10 11 10 2 0 4 -4 4 -10z m235 0 c15 -6 6 -9 -32
-9 -29 -1 -53 4 -53 9 0 12 57 12 85 0z m-2795 -10 c13 -8 13 -10 -2 -10 -9 0
-20 5 -23 10 -8 13 5 13 25 0z m-66 -9 c3 -5 -1 -11 -9 -15 -8 -3 -15 -12 -15
-20 0 -15 -59 -41 -69 -30 -3 4 0 9 7 11 6 3 12 11 12 19 0 7 12 20 28 28 32
18 39 19 46 7z m1286 -5 c0 -8 -10 -17 -22 -19 -17 -3 -14 -5 10 -6 17 0 32
-5 32 -10 0 -5 -19 -8 -42 -7 -31 1 -42 5 -44 18 -2 19 21 37 49 38 9 0 17 -6
17 -14z m-905 -36 c14 -6 3 -9 -40 -9 -42 -1 -56 2 -45 9 18 12 58 12 85 0z
m162 2 c8 -5 -1 -8 -22 -8 -21 0 -30 3 -22 8 6 4 17 8 22 8 6 0 16 -4 22 -8z
m133 -2 c0 -13 -60 -13 -80 0 -11 7 -2 10 33 10 26 0 47 -4 47 -10z m280 0 c0
-5 -15 -10 -32 -10 -25 0 -29 3 -18 10 20 13 50 13 50 0z m440 0 c-8 -5 -19
-10 -25 -10 -5 0 -3 5 5 10 8 5 20 10 25 10 6 0 3 -5 -5 -10z m-1332 -7 c-10
-2 -28 -2 -40 0 -13 2 -5 4 17 4 22 1 32 -1 23 -4z m189 1 c-3 -3 -12 -4 -19
-1 -8 3 -5 6 6 6 11 1 17 -2 13 -5z m740 0 c-3 -3 -12 -4 -19 -1 -8 3 -5 6 6
6 11 1 17 -2 13 -5z"/>
<path d="M11143 11803 c-4 -10 -11 -21 -17 -25 -6 -5 -3 -8 9 -8 31 1 57 24
43 38 -17 17 -28 15 -35 -5z"/>
<path d="M10928 11473 c7 -3 16 -2 19 1 4 3 -2 6 -13 5 -11 0 -14 -3 -6 -6z"/>
<path d="M11372 11345 c-9 -10 -9 -15 -1 -15 6 0 19 -10 28 -22 10 -12 23 -18
30 -14 8 5 5 16 -11 36 -27 33 -29 34 -46 15z"/>
<path d="M10863 11323 c-19 -4 -22 -10 -20 -36 2 -26 -2 -33 -20 -35 -13 -2
-23 -8 -23 -13 0 -8 78 -2 89 7 2 2 -2 10 -9 19 -7 8 -8 15 -2 15 5 0 10 11
10 25 0 14 -1 24 -2 24 0 -1 -11 -4 -23 -6z"/>
<path d="M10967 11303 c-4 -3 -7 -17 -7 -30 0 -20 5 -23 35 -23 19 0 35 5 35
10 0 6 10 10 23 11 21 0 21 1 2 9 -11 4 -30 6 -42 3 -24 -5 -32 12 -10 20 6 3
3 6 -9 6 -11 1 -24 -2 -27 -6z"/>
<path d="M11235 11300 c-3 -5 -2 -10 4 -10 5 0 13 5 16 10 3 6 2 10 -4 10 -5
0 -13 -4 -16 -10z"/>
<path d="M11320 11300 c0 -5 12 -10 26 -10 14 0 23 4 19 10 -3 6 -15 10 -26
10 -10 0 -19 -4 -19 -10z"/>
<path d="M10795 11270 c3 -5 8 -10 11 -10 2 0 4 5 4 10 0 6 -5 10 -11 10 -5 0
-7 -4 -4 -10z"/>
<path d="M11517 9673 c3 -7 6 -13 8 -13 1 0 7 6 13 13 8 10 6 13 -7 13 -11 0
-17 -6 -14 -13z"/>
<path d="M11445 9631 c-16 -10 -36 -29 -42 -43 -18 -35 -60 -61 -103 -63 -138
-5 -155 -9 -144 -39 6 -15 7 -15 19 1 10 13 16 14 26 7 10 -7 53 -8 134 -3 66
4 132 8 146 8 32 1 43 24 27 54 -7 12 -11 29 -10 39 2 9 -2 19 -7 22 -6 4 -8
13 -4 21 7 19 -4 18 -42 -4z"/>
<path d="M10853 9614 c-7 -19 0 -26 21 -18 20 8 21 20 1 28 -9 3 -18 -1 -22
-10z"/>
<path d="M10833 9544 c-1 -23 4 -34 13 -34 14 0 30 -43 26 -72 -4 -24 14 -31
32 -12 15 14 16 14 16 0 0 -22 27 -20 40 3 12 24 -1 35 -30 26 -14 -4 -20 -2
-20 8 0 8 -6 20 -14 26 -8 7 -12 21 -9 31 6 23 -9 46 -35 52 -15 4 -18 -1 -19
-28z"/>
<path d="M10890 9570 c0 -5 5 -10 10 -10 6 0 10 5 10 10 0 6 -4 10 -10 10 -5
0 -10 -4 -10 -10z"/>
<path d="M10998 9563 c-22 -3 -38 -10 -38 -17 0 -7 -10 -12 -22 -12 -16 1 -24
-5 -26 -21 -3 -19 0 -21 37 -16 33 5 42 2 53 -16 27 -43 113 -17 106 33 -1 11
1 27 6 35 6 10 4 12 -12 7 -11 -4 -23 -2 -27 4 -3 5 -14 9 -23 8 -9 -1 -34 -3
-54 -5z m42 -73 c0 -5 -4 -10 -10 -10 -5 0 -10 5 -10 10 0 6 5 10 10 10 6 0
10 -4 10 -10z"/>
<path d="M11106 9468 c-19 -27 -4 -37 20 -13 11 11 13 20 7 26 -7 7 -16 3 -27
-13z"/>
<path d="M10770 7440 c0 -48 16 -58 57 -37 l28 15 -27 7 c-16 4 -29 16 -32 31
-10 38 -26 28 -26 -16z"/>
<path d="M17636 14025 c-17 -18 -18 -26 -16 -125 2 -84 18 -110 68 -110 21 0
48 7 60 16 20 14 22 24 22 97 0 109 -12 131 -72 135 -32 2 -50 -2 -62 -13z"/>
<path d="M16753 13999 c-27 -8 -33 -15 -33 -38 0 -38 21 -53 71 -53 49 1 69
16 69 52 0 22 -6 30 -31 39 -36 12 -33 12 -76 0z"/>
<path d="M16736 13835 c-21 -22 -20 -41 4 -65 22 -22 55 -25 95 -10 23 9 26
15 23 47 l-3 38 -51 3 c-37 2 -56 -2 -68 -13z"/>
<path d="M16479 13929 c-21 -23 -23 -29 -10 -29 26 0 43 16 39 38 -3 18 -5 18
-29 -9z"/>
<path d="M14998 13894 c-21 -19 -38 -40 -38 -46 0 -12 134 -7 146 5 7 7 -53
77 -65 77 -4 0 -23 -16 -43 -36z"/>
<path d="M13828 13846 c-34 -27 -35 -36 -4 -36 18 0 25 7 29 28 3 15 5 28 4
29 -1 0 -14 -9 -29 -21z"/>
<path d="M15648 13353 c7 -3 16 -2 19 1 4 3 -2 6 -13 5 -11 0 -14 -3 -6 -6z"/>
<path d="M15708 13353 c7 -3 16 -2 19 1 4 3 -2 6 -13 5 -11 0 -14 -3 -6 -6z"/>
<path d="M15750 13345 c0 -8 7 -15 15 -15 8 0 15 4 15 9 0 5 -7 11 -15 15 -9
3 -15 0 -15 -9z"/>
<path d="M15115 13340 c3 -5 12 -7 20 -3 21 7 19 13 -6 13 -11 0 -18 -4 -14
-10z"/>
<path d="M14595 13330 c-3 -5 -4 -10 -1 -10 2 0 12 -3 20 -6 12 -5 15 -2 10
10 -7 18 -20 21 -29 6z"/>
<path d="M15107 13269 c7 -7 15 -10 18 -7 3 3 -2 9 -12 12 -14 6 -15 5 -6 -5z"/>
<path d="M18200 13030 c17 -11 71 -11 115 0 22 6 8 8 -50 9 -55 0 -75 -2 -65
-9z"/>
<path d="M18162 12922 c-1 -27 3 -54 12 -67 12 -19 21 -21 53 -16 26 4 41 14
50 31 17 34 16 60 -2 60 -18 0 -20 16 -2 24 6 3 1 4 -13 3 -23 -2 -25 -6 -24
-48 2 -43 1 -46 -22 -41 -32 6 -37 15 -26 56 8 28 7 35 -7 38 -13 4 -17 -4
-19 -40z"/>
<path d="M18320 12891 c0 -25 6 -27 13 -6 4 8 2 17 -3 20 -6 4 -10 -3 -10 -14z"/>
<path d="M20037 13093 c-9 -8 -9 -86 -1 -107 13 -34 184 -2 184 34 0 20 -29
68 -45 74 -22 8 -130 8 -138 -1z"/>
<path d="M19722 13033 l3 -48 58 -3 c64 -3 101 12 112 48 12 38 -11 50 -97 50
l-79 0 3 -47z"/>
<path d="M22016 12812 c-10 -16 37 -43 83 -49 56 -8 70 -27 31 -42 -16 -6 -43
-16 -60 -22 -19 -7 -30 -18 -30 -30 0 -25 12 -24 100 10 113 44 146 64 142 84
-2 9 -4 17 -5 17 -2 1 -153 26 -218 36 -21 4 -39 2 -43 -4z"/>
<path d="M22455 12690 c3 -5 12 -10 19 -10 15 0 42 -28 34 -35 -2 -3 -32 -8
-66 -11 l-62 -7 -6 32 c-7 35 -29 37 -28 3 0 -12 1 -49 2 -83 2 -52 5 -60 20
-57 10 2 18 14 20 30 2 17 11 28 25 32 31 8 104 7 92 -2 -22 -16 -2 -72 23
-65 10 2 22 -5 29 -16 13 -22 18 -21 -107 -2 -62 9 -92 3 -88 -17 2 -9 10 -18
18 -19 67 -8 90 -15 84 -25 -4 -6 1 -6 14 1 31 17 47 14 32 -4 -7 -8 -22 -15
-34 -15 -12 0 -31 -7 -42 -15 -10 -8 -27 -15 -36 -15 -12 0 -18 -8 -18 -23 0
-36 7 -37 66 -11 30 13 67 24 83 24 16 0 31 6 35 15 9 24 45 18 56 -10 5 -14
14 -25 20 -25 7 0 8 6 0 19 -5 11 -10 35 -10 54 0 19 -7 40 -15 47 -20 17 -19
40 3 57 15 12 15 13 -8 8 -17 -4 -34 2 -55 19 -36 29 -28 41 26 41 21 0 39 1
39 3 0 1 -9 21 -20 42 -21 40 -45 51 -67 29 -8 -8 -17 -7 -34 5 -26 18 -54 22
-44 6z"/>
<path d="M22190 12632 c-27 -15 -39 -17 -62 -8 -35 13 -59 1 -72 -37 -14 -39
15 -97 48 -97 43 0 42 31 -1 44 -30 10 -29 30 1 44 20 9 27 7 42 -9 23 -25 42
-24 46 4 4 29 52 37 67 10 11 -22 5 -35 -26 -52 -14 -7 -20 -17 -17 -26 9 -22
27 -18 58 10 36 33 36 86 0 114 -33 26 -40 26 -84 3z"/>
<path d="M21811 12615 c-43 -15 -61 -40 -61 -81 0 -39 6 -44 81 -59 54 -12 62
-11 109 11 49 23 50 24 50 68 0 43 -2 47 -36 61 -42 18 -95 18 -143 0z m118
-36 c41 -14 39 -36 -4 -55 -65 -27 -145 -15 -145 22 0 13 41 31 85 37 17 2 30
5 31 6 1 0 15 -4 33 -10z"/>
<path d="M22175 12440 c-26 -28 -28 -33 -18 -60 10 -27 9 -30 -7 -30 -40 0
-48 10 -44 50 3 22 0 41 -6 45 -16 10 -20 3 -27 -39 -7 -47 13 -71 76 -86 99
-24 180 22 167 95 -8 41 -21 51 -71 54 -33 2 -45 -3 -70 -29z m95 -25 c6 -8 9
-23 5 -35 -6 -18 -13 -21 -48 -18 -38 3 -42 5 -39 28 1 13 8 28 15 32 19 12
54 9 67 -7z"/>
<path d="M21975 12410 c-3 -5 -19 -10 -35 -10 -16 0 -58 -7 -94 -15 -36 -8
-69 -15 -73 -14 -23 4 -23 -3 0 -21 14 -11 29 -29 32 -40 9 -28 21 -25 34 10
6 17 18 31 28 31 10 1 47 3 81 5 35 1 66 5 68 7 7 6 -18 57 -27 57 -4 0 -11
-4 -14 -10z"/>
<path d="M19174 13052 c-47 -37 -57 -168 -20 -240 30 -59 102 -56 131 5 63
133 -20 309 -111 235z"/>
<path d="M17816 12182 c-2 -4 -7 -23 -11 -43 -5 -28 -3 -38 9 -42 13 -5 16 2
16 43 0 48 -3 59 -14 42z"/>
<path d="M17850 11021 c0 -12 5 -21 10 -21 6 0 10 6 10 14 0 8 -4 18 -10 21
-5 3 -10 -3 -10 -14z"/>
<path d="M17847 10856 c-11 -27 -8 -36 8 -36 16 0 17 5 6 34 -7 18 -8 18 -14
2z"/>
<path d="M17841 10798 c1 -27 15 -52 23 -40 4 6 2 21 -4 32 -12 23 -20 26 -19
8z"/>
<path d="M17845 10410 c-3 -5 -2 -10 4 -10 5 0 13 5 16 10 3 6 2 10 -4 10 -5
0 -13 -4 -16 -10z"/>
<path d="M18801 12156 c-29 -34 10 -93 46 -70 29 18 39 42 27 62 -14 22 -57
27 -73 8z"/>
<path d="M18853 11100 c-21 -8 -23 -16 -23 -75 l0 -65 68 1 c87 0 133 16 150
52 12 24 11 31 -3 53 -9 14 -27 29 -41 34 -31 12 -121 12 -151 0z"/>
<path d="M23650 10632 c0 -15 51 -25 63 -13 8 8 7 11 -3 11 -8 0 -25 3 -37 6
-13 4 -23 2 -23 -4z"/>
<path d="M23186 10611 c-2 -3 7 -17 20 -31 25 -26 24 -27 28 22 1 11 -42 20
-48 9z"/>
<path d="M23262 10588 c3 -7 15 -14 29 -16 23 -2 23 -2 5 13 -24 18 -39 20
-34 3z"/>
<path d="M23077 10233 c-4 -3 -7 -11 -7 -17 0 -6 5 -5 12 2 6 6 9 14 7 17 -3
3 -9 2 -12 -2z"/>
<path d="M23100 10124 c0 -8 5 -12 10 -9 6 3 10 10 10 16 0 5 -4 9 -10 9 -5 0
-10 -7 -10 -16z"/>
<path d="M23130 9725 c0 -8 2 -15 4 -15 2 0 6 7 10 15 3 8 1 15 -4 15 -6 0
-10 -7 -10 -15z"/>
<path d="M23135 9561 c-8 -20 -3 -22 34 -15 17 4 30 11 28 17 -5 16 -56 15
-62 -2z"/>
<path d="M23172 9214 c1 -9 9 -19 16 -22 9 -3 13 2 10 14 -1 9 -9 19 -16 22
-9 3 -13 -2 -10 -14z"/>
<path d="M25161 9454 c0 -11 3 -14 6 -6 3 7 2 16 -1 19 -3 4 -6 -2 -5 -13z"/>
<path d="M25159 9390 c-9 -23 2 -60 17 -60 16 0 18 12 5 26 -5 5 -11 18 -13
29 -3 15 -5 16 -9 5z"/>
<path d="M12745 9580 c-3 -5 3 -10 15 -10 12 0 18 5 15 10 -3 6 -10 10 -15 10
-5 0 -12 -4 -15 -10z"/>
<path d="M25258 7850 c-3 -8 -9 -31 -13 -50 -3 -19 -8 -46 -11 -60 -4 -24 20
-69 31 -58 3 3 5 45 3 94 -2 49 -6 82 -10 74z"/>
<path d="M25184 7817 c-3 -9 -3 -25 1 -34 6 -16 8 -15 16 6 6 16 6 28 0 34 -7
7 -12 5 -17 -6z"/>
<path d="M25150 7740 c0 -5 7 -10 15 -10 8 0 15 5 15 10 0 6 -7 10 -15 10 -8
0 -15 -4 -15 -10z"/>
<path d="M22661 7626 c-22 -26 -25 -109 -6 -147 10 -19 16 -36 14 -38 -2 -2 1
-6 8 -8 14 -5 20 52 15 145 -4 63 -10 73 -31 48z"/>
<path d="M22758 7623 c-26 -6 -22 -30 9 -61 l27 -27 9 32 c16 53 3 69 -45 56z"/>
<path d="M22750 7483 c0 -20 -7 -44 -16 -54 -15 -17 -15 -18 7 -23 13 -3 45
-7 70 -8 36 -2 46 0 45 12 -1 10 8 15 27 15 29 -1 36 12 12 21 -8 4 -22 1 -30
-6 -13 -11 -22 -5 -57 34 -23 25 -45 46 -50 46 -4 0 -8 -17 -8 -37z"/>
<path d="M21923 7513 c15 -2 39 -2 55 0 15 2 2 4 -28 4 -30 0 -43 -2 -27 -4z"/>
<path d="M22137 7504 c-1 -1 -90 -4 -197 -8 -107 -3 -262 -10 -345 -16 -82 -5
-289 -15 -460 -21 -289 -10 -650 -25 -668 -28 -5 0 -5 -6 -2 -12 4 -5 10 -127
14 -269 4 -143 9 -262 12 -265 4 -3 129 0 280 6 348 14 368 14 382 0 13 -13
41 -15 32 -1 -10 15 125 33 168 22 20 -5 20 -6 1 -14 -12 -5 5 -7 46 -4 35 3
66 9 68 15 2 6 18 11 35 11 l32 -1 -25 -15 c-24 -14 -24 -14 15 -8 22 3 48 8
58 11 9 2 17 -1 17 -7 0 -6 4 -9 9 -5 5 3 12 1 15 -4 4 -6 19 -6 39 0 17 5 69
9 114 9 56 0 83 4 83 11 0 9 -32 10 -117 6 l-118 -6 85 14 c121 20 177 19 189
-2 9 -15 10 -16 11 -2 0 14 22 17 152 22 83 4 198 7 255 7 75 0 103 3 104 13
5 116 -5 445 -14 487 l-13 55 -128 0 c-70 0 -128 -1 -129 -1z m197 -117 c21
-262 16 -314 -34 -362 -23 -22 -43 -29 -108 -37 -78 -10 -81 -10 -133 18 -72
40 -78 58 -86 269 l-6 175 46 2 c26 1 59 2 75 2 l27 1 10 -198 c8 -156 14
-200 25 -207 24 -15 97 -12 114 5 23 23 29 96 22 248 -7 141 -1 172 29 161 9
-4 15 -31 19 -77z m-394 49 c0 -7 -20 -74 -45 -147 -39 -115 -45 -145 -45
-214 0 -50 -5 -86 -12 -93 -7 -7 -39 -12 -74 -12 l-61 0 -2 85 c-1 47 -5 93
-8 102 -4 10 -2 14 4 10 7 -4 10 0 8 10 -2 10 -4 20 -4 23 -1 3 -5 -2 -11 -10
-7 -11 -11 -9 -19 13 -11 28 -15 65 -4 40 2 -7 9 -13 14 -13 19 0 7 23 -31 60
-22 21 -40 46 -40 55 0 9 -7 23 -15 31 -8 9 -14 25 -14 37 1 18 2 19 6 4 4
-14 8 -16 19 -6 10 8 22 8 43 1 25 -9 30 -7 39 11 10 21 11 21 12 2 1 -20 2
-20 9 -1 6 16 15 5 45 -60 21 -43 39 -89 40 -101 1 -16 5 -19 18 -12 17 9 22
20 33 77 4 17 11 32 16 32 6 0 8 4 5 9 -3 5 -1 22 5 39 9 28 17 33 62 41 4 0
7 -5 7 -13z m-263 -2 c-3 -3 -12 -4 -19 -1 -8 3 -5 6 6 6 11 1 17 -2 13 -5z
m-172 -14 c-3 -5 -2 -10 4 -10 5 0 12 -10 14 -22 3 -16 5 -12 6 12 2 28 4 31
10 15 5 -11 11 -113 15 -227 7 -199 6 -207 -13 -217 -27 -15 -114 -15 -105 0
3 6 0 15 -7 20 -11 7 -11 11 -2 17 9 6 9 18 1 47 -23 91 -38 345 -19 345 6 0
13 -5 16 -10 4 -6 11 -8 16 -4 5 3 6 10 3 16 -5 7 0 9 14 6 12 -4 25 -1 29 4
3 7 1 8 -5 4 -7 -4 -12 -2 -12 3 0 6 9 11 21 11 11 0 17 -4 14 -10z m-185 -17
c8 -8 27 -440 19 -448 -6 -5 -128 -9 -134 -4 -2 3 -5 57 -6 121 -2 130 -1 128
-76 119 l-33 -3 0 -124 0 -124 -69 0 -68 0 -7 61 c-3 34 -6 86 -6 115 0 43 3
52 15 48 8 -4 15 -1 15 5 0 6 -6 11 -14 11 -15 0 -26 61 -26 151 l0 59 33 1
32 1 -30 8 c-26 6 -22 8 23 9 85 2 92 -6 92 -99 l0 -80 60 0 60 0 -6 48 c-2
26 -7 62 -9 79 -2 18 1 35 6 38 5 4 9 -1 9 -9 0 -22 20 -20 21 2 1 9 1 21 0
26 -2 8 89 -1 99 -11z m-550 -13 c-13 -9 -13 -10 0 -11 36 -3 86 3 95 12 36
35 33 -39 -4 -105 -16 -28 -47 -85 -69 -126 -21 -41 -51 -96 -66 -122 -15 -26
-25 -52 -21 -58 4 -6 39 -7 94 -3 85 6 88 5 94 -16 7 -28 6 -28 -128 -35 -60
-3 -138 -9 -172 -12 l-63 -7 0 38 c0 27 13 61 44 114 47 82 139 256 148 282 5
13 -1 14 -46 8 -111 -16 -163 -6 -137 25 20 24 140 18 125 -6 -4 -6 2 -8 15
-4 11 3 30 9 41 12 11 3 18 10 15 15 -4 5 6 9 22 9 22 0 25 -2 13 -10z"/>
<path d="M22001 7264 c0 -11 3 -14 6 -6 3 7 2 16 -1 19 -3 4 -6 -2 -5 -13z"/>
<path d="M22310 7214 c0 -14 4 -23 9 -20 5 3 7 15 4 26 -7 28 -13 25 -13 -6z"/>
<path d="M21760 7286 c0 -2 7 -9 15 -16 13 -11 14 -10 9 4 -5 14 -24 23 -24
12z"/>
<path d="M21260 7245 c-10 -12 -10 -15 4 -15 9 0 16 7 16 15 0 8 -2 15 -4 15
-2 0 -9 -7 -16 -15z"/>
<path d="M20620 7111 c-6 -12 -7 -21 -1 -21 10 0 24 30 17 37 -2 3 -9 -5 -16
-16z"/>
<path d="M20645 7100 c-3 -6 1 -7 9 -4 18 7 21 14 7 14 -6 0 -13 -4 -16 -10z"/>
<path d="M20615 7050 c-4 -6 -11 -7 -17 -4 -7 4 -8 2 -4 -4 10 -17 36 -15 36
3 0 17 -6 19 -15 5z"/>
<path d="M20561 7006 c-7 -8 -8 -17 -3 -20 6 -3 13 1 16 10 9 23 2 28 -13 10z"/>
<path d="M20798 6953 c7 -3 16 -2 19 1 4 3 -2 6 -13 5 -11 0 -14 -3 -6 -6z"/>
<path d="M20788 7483 c7 -3 16 -2 19 1 4 3 -2 6 -13 5 -11 0 -14 -3 -6 -6z"/>
<path d="M20888 7473 c7 -3 16 -2 19 1 4 3 -2 6 -13 5 -11 0 -14 -3 -6 -6z"/>
<path d="M20660 7460 c-22 -7 -21 -8 12 -9 20 -1 40 4 43 9 7 12 -19 12 -55 0z"/>
<path d="M20498 7453 c7 -3 16 -2 19 1 4 3 -2 6 -13 5 -11 0 -14 -3 -6 -6z"/>
<path d="M19188 7433 c6 -2 18 -2 25 0 6 3 1 5 -13 5 -14 0 -19 -2 -12 -5z"/>
<path d="M19056 7420 c7 -7 19 -7 35 -1 23 9 22 10 -10 10 -24 1 -32 -2 -25
-9z"/>
<path d="M19930 7408 c-30 -4 -88 -8 -128 -9 -65 -2 -73 -4 -77 -23 -8 -34 0
-57 25 -76 15 -11 19 -20 11 -24 -6 -4 -11 -18 -11 -32 l0 -25 243 6 c133 3
257 8 275 11 30 5 32 7 32 46 l0 40 -87 -6 c-49 -4 -113 -9 -143 -12 -108 -9
-191 -10 -196 -3 -7 12 46 18 221 24 212 7 199 4 203 51 l3 39 -158 0 c-87 1
-183 -3 -213 -7z"/>
<path d="M19424 7390 c-10 -12 -29 -30 -41 -42 -13 -12 -23 -34 -23 -49 0 -35
37 -43 85 -18 26 14 56 19 114 19 93 0 111 12 91 60 l-12 29 -81 -6 c-72 -6
-80 -5 -74 10 9 25 -35 22 -59 -3z"/>
<path d="M19319 7386 c-3 -3 -60 -7 -128 -8 l-122 -3 5 -29 c3 -16 6 -33 6
-38 0 -6 9 -8 20 -5 15 4 20 0 20 -17 0 -12 -9 -38 -20 -59 -30 -55 -23 -137
10 -117 8 5 27 10 43 10 24 0 27 -3 27 -35 0 -35 0 -35 -45 -35 -42 0 -45 -2
-45 -27 0 -16 -3 -38 -6 -49 -5 -21 -4 -21 34 -11 48 13 70 5 78 -28 11 -43
-1 -55 -55 -55 l-49 0 -4 -40 c-3 -35 -1 -39 17 -35 43 8 129 16 124 11 -3 -3
-23 -10 -45 -15 l-39 -9 36 -1 c20 -1 51 2 70 6 28 5 30 7 14 15 -13 5 0 7 38
5 l57 -2 0 33 c0 34 -6 37 -66 33 -30 -2 -31 -1 -30 41 1 42 1 43 41 48 35 4
40 8 38 30 -5 60 -5 60 -50 60 -41 0 -43 1 -43 30 0 28 3 30 35 30 41 0 55 23
55 89 0 65 -60 86 -70 26 -5 -27 -9 -30 -43 -32 -42 -1 -44 5 -19 58 14 30 24
38 52 43 19 3 45 3 57 0 17 -5 22 0 28 26 5 22 3 37 -7 46 -8 8 -16 12 -19 10z"/>
<path d="M19549 7208 c-27 -69 -48 -80 -61 -32 -9 37 -26 53 -58 56 -18 2 -25
-3 -31 -24 -5 -19 -3 -31 7 -39 8 -6 14 -21 14 -32 0 -11 7 -28 15 -37 8 -9
21 -34 28 -55 12 -33 11 -45 -5 -94 -10 -31 -27 -63 -38 -73 -24 -20 -28 -73
-4 -64 8 3 12 2 9 -4 -8 -13 56 -13 75 1 12 8 8 10 -17 7 l-31 -4 29 27 c16
15 29 34 29 43 0 9 7 16 15 16 8 0 15 -9 15 -19 0 -11 12 -29 28 -42 26 -20
26 -21 3 -14 -17 5 -22 4 -19 -6 5 -16 58 -25 58 -10 0 5 12 11 28 13 15 2 26
6 25 11 -2 4 -3 21 -3 37 0 23 -4 30 -16 28 -9 -2 -21 6 -28 17 -6 10 -16 25
-23 32 -24 27 -36 82 -23 113 7 18 17 27 24 23 8 -5 8 -3 0 8 -8 10 -7 23 6
52 9 20 20 34 25 30 4 -5 6 -3 3 2 -4 6 -3 29 2 53 l7 42 -32 0 c-30 0 -33 -4
-56 -62z"/>
<path d="M19912 7199 c-9 -4 -47 -9 -83 -13 l-65 -7 4 -141 c4 -123 3 -142
-12 -150 -9 -5 -16 -21 -16 -37 0 -26 3 -28 46 -30 52 -1 81 14 64 34 -6 7 -8
25 -4 40 6 25 9 26 48 19 22 -4 51 -8 64 -8 12 -1 22 -5 22 -10 0 -5 6 -4 13
2 7 6 30 12 52 15 22 2 5 4 -37 4 -132 -1 -96 10 58 17 80 4 149 5 152 1 15
-14 -21 -24 -113 -30 -103 -7 -122 -13 -112 -38 4 -12 36 -16 149 -19 79 -3
148 -1 153 4 10 9 12 335 2 345 -8 7 -365 9 -385 2z m302 -68 c13 -21 -29 -32
-150 -41 -148 -11 -173 -11 -124 1 23 5 10 6 -37 2 -47 -3 -73 -1 -73 5 0 14
53 21 225 31 77 4 143 9 147 10 4 0 9 -3 12 -8z m-6 -103 c-3 -9 -37 -15 -99
-19 -52 -4 -133 -10 -181 -14 -52 -4 -88 -4 -88 2 0 5 39 10 88 12 48 1 123 6
167 10 78 8 78 8 20 9 -33 0 -96 -3 -141 -6 -87 -8 -114 -6 -114 9 0 5 75 9
176 9 136 0 175 -3 172 -12z"/>
<path d="M19160 6950 c0 -5 5 -10 11 -10 5 0 7 5 4 10 -3 6 -8 10 -11 10 -2 0
-4 -4 -4 -10z"/>
<path d="M22370 6930 c0 -5 9 -10 20 -10 11 0 20 5 20 10 0 6 -9 10 -20 10
-11 0 -20 -4 -20 -10z"/>
<path d="M21930 6920 c-13 -8 -13 -10 2 -10 9 0 20 5 23 10 8 13 -5 13 -25 0z"/>
<path d="M21995 6923 c16 -3 33 -9 36 -15 4 -6 23 -7 48 -3 70 12 55 23 -32
22 -45 0 -69 -2 -52 -4z"/>
<path d="M21988 6903 c7 -3 16 -2 19 1 4 3 -2 6 -13 5 -11 0 -14 -3 -6 -6z"/>
<path d="M21273 6893 c9 -2 23 -2 30 0 6 3 -1 5 -18 5 -16 0 -22 -2 -12 -5z"/>
<path d="M20813 6873 c9 -2 25 -2 35 0 9 3 1 5 -18 5 -19 0 -27 -2 -17 -5z"/>
<path d="M20968 6873 c6 -2 18 -2 25 0 6 3 1 5 -13 5 -14 0 -19 -2 -12 -5z"/>
<path d="M20480 6860 c0 -12 77 -12 105 0 14 6 2 9 -42 9 -36 1 -63 -3 -63 -9z"/>
<path d="M20633 6863 c9 -2 25 -2 35 0 9 3 1 5 -18 5 -19 0 -27 -2 -17 -5z"/>
<path d="M20733 6863 c9 -2 25 -2 35 0 9 3 1 5 -18 5 -19 0 -27 -2 -17 -5z"/>
<path d="M20055 6830 c8 -12 142 -13 149 -1 3 5 -30 9 -75 10 -52 1 -78 -2
-74 -9z"/>
<path d="M17801 7164 c0 -11 3 -14 6 -6 3 7 2 16 -1 19 -3 4 -6 -2 -5 -13z"/>
<path d="M25032 7108 c-8 -8 -7 -17 5 -34 18 -28 38 -32 28 -6 -4 9 -8 22 -9
29 -3 20 -11 24 -24 11z"/>
<path d="M25170 7029 c0 -24 4 -38 10 -34 6 3 10 22 10 41 0 19 -4 34 -10 34
-5 0 -10 -18 -10 -41z"/>
<path d="M25165 6957 c-9 -33 2 -80 15 -72 13 8 13 65 1 84 -8 12 -11 9 -16
-12z"/>
<path d="M25160 6861 c0 -17 18 -21 24 -6 3 9 0 15 -9 15 -8 0 -15 -4 -15 -9z"/>
<path d="M24955 6650 c4 -6 11 -8 16 -5 14 9 11 15 -7 15 -8 0 -12 -5 -9 -10z"/>
<path d="M24898 6573 c7 -3 16 -2 19 1 4 3 -2 6 -13 5 -11 0 -14 -3 -6 -6z"/>
<path d="M17535 7142 c-76 -6 -125 -82 -125 -193 0 -37 4 -71 10 -74 5 -3 15
-15 21 -27 7 -13 7 -18 1 -14 -6 3 -13 2 -16 -3 -7 -11 23 -38 49 -43 11 -2
19 -10 18 -16 -2 -8 13 -12 46 -12 38 0 53 5 64 20 8 11 17 17 20 13 4 -3 7 1
7 10 0 9 9 25 21 36 18 16 21 32 22 93 1 126 -58 217 -138 210z"/>
<path d="M14310 6860 c-12 -8 -11 -10 8 -10 13 0 21 -4 18 -9 -10 -15 21 -21
56 -10 18 5 48 9 67 9 54 0 26 14 -32 15 -28 1 -63 5 -77 9 -14 3 -32 2 -40
-4z"/>
<path d="M13960 6850 c-14 -5 -18 -9 -10 -10 8 -1 2 -6 -15 -9 -16 -4 -36 -3
-42 2 -10 7 -13 4 -13 -12 0 -17 5 -20 23 -16 23 5 154 26 172 27 6 0 35 -3
65 -7 40 -5 51 -4 40 4 -11 8 -2 11 40 12 54 2 53 2 -24 12 -57 7 -84 7 -97
-1 -12 -8 -20 -8 -24 -2 -7 12 -79 12 -115 0z"/>
<path d="M14238 6823 c7 -3 16 -2 19 1 4 3 -2 6 -13 5 -11 0 -14 -3 -6 -6z"/>
</g>
</svg>
