<?xml version="1.0" standalone="no"?>
<!DOCTYPE svg PUBLIC "-//W3C//DTD SVG 20010904//EN"
 "http://www.w3.org/TR/2001/REC-SVG-20010904/DTD/svg10.dtd">
<svg version="1.0" xmlns="http://www.w3.org/2000/svg"
 width="1554.000000pt" height="891.000000pt" viewBox="0 0 1554.000000 891.000000"
 preserveAspectRatio="xMidYMid meet">
<metadata>
Created by potrace 1.16, written by Peter Selinger 2001-2019
</metadata>
<g transform="translate(0.000000,891.000000) scale(0.100000,-0.100000)"
fill="#000000" stroke="none">
<path d="M16 4469 c-4 -2437 -6 -4433 -3 -4435 2 -3 15479 -22 15504 -19 1 0
5 1994 9 4431 l7 4432 -154 6 c-85 3 -3574 8 -7755 11 l-7601 5 -7 -4431z
m14397 3949 c20 -30 37 -62 37 -72 0 -10 7 -25 16 -33 13 -14 15 -35 10 -132
-3 -64 -5 -127 -5 -141 0 -14 1 -198 2 -410 1 -212 0 -401 -4 -420 -4 -19 -7
-29 -8 -22 0 6 -4 12 -9 12 -9 0 -2 -83 8 -90 4 -3 10 -19 14 -35 6 -27 1 -36
-44 -80 -27 -27 -50 -47 -50 -45 0 3 -2 82 -5 175 -7 280 -15 478 -20 505 -4
24 -8 142 -20 550 -3 96 -8 211 -11 254 l-7 79 29 -20 c16 -12 46 -45 67 -75z
m-4653 -148 c12 -7 12 -13 4 -27 -9 -15 -28 -19 -101 -21 -89 -3 -91 -3 -96
-29 -3 -15 -1 -37 4 -50 7 -20 14 -23 56 -20 45 2 48 1 48 -23 0 -23 -4 -25
-47 -28 l-48 -3 0 -51 0 -51 80 6 c90 6 120 1 120 -19 0 -25 -38 -34 -144 -34
l-106 0 -2 88 c-2 107 -3 115 -12 175 -4 26 -4 56 -1 67 6 20 3 19 190 28 22
1 47 -3 55 -8z m-615 -51 c23 -22 30 -38 30 -67 0 -34 -9 -47 -65 -106 -36
-37 -65 -72 -65 -79 0 -8 21 -12 65 -12 58 0 65 -2 68 -21 3 -19 -4 -22 -70
-29 -40 -5 -95 -9 -123 -9 -45 -1 -50 1 -53 22 -3 17 17 44 78 109 45 47 89
97 98 111 15 23 15 25 -7 43 -35 29 -96 25 -117 -6 -10 -15 -26 -25 -40 -25
-32 0 -31 26 3 65 20 23 37 31 77 36 66 8 85 3 121 -32z m-271 9 c3 -13 6 -68
6 -123 l0 -101 -58 -57 c-32 -31 -62 -57 -68 -57 -5 0 -37 26 -71 58 l-62 57
-2 105 c-2 135 -3 132 24 128 21 -3 22 -10 30 -108 8 -102 9 -106 42 -140 l34
-34 27 24 c41 39 46 57 45 157 -1 51 1 98 4 103 11 19 43 10 49 -12z m-903
-53 c4 -22 8 -97 10 -168 2 -104 0 -130 -12 -143 -17 -16 -17 -16 -134 146
-27 38 -52 70 -55 70 -3 0 -3 -49 -2 -110 3 -95 2 -111 -13 -116 -9 -4 -21 -2
-26 3 -5 5 -11 86 -12 179 -2 146 0 169 14 172 15 3 69 -61 139 -165 19 -29
39 -53 44 -53 5 0 6 46 2 108 -3 60 -3 112 1 116 17 17 38 -1 44 -39z m299 30
c0 -24 -35 -35 -114 -35 -41 0 -77 -4 -81 -9 -3 -6 -3 -28 1 -50 l7 -41 48 0
c37 0 49 -4 49 -15 0 -20 -44 -47 -72 -43 -22 3 -23 0 -26 -70 -2 -54 -7 -74
-18 -79 -8 -3 -20 -1 -25 4 -11 11 -25 314 -15 338 8 22 246 22 246 0z m-623
-37 c18 -19 24 -43 32 -128 l10 -105 -28 -40 c-27 -40 -27 -40 -98 -43 -67 -3
-74 -1 -102 25 -30 27 -31 32 -37 135 -6 98 -5 109 15 142 23 36 37 42 121 49
42 3 58 -3 87 -35z m6400 15 c13 -20 18 -47 17 -102 0 -65 -5 -86 -32 -143
-67 -138 -192 -199 -312 -153 -19 7 -30 14 -24 14 16 1 25 53 12 68 -7 9 -7
23 1 44 6 18 11 42 11 55 0 26 45 106 91 164 27 33 38 39 85 45 30 3 67 13 82
21 38 20 49 18 69 -13z m-6709 -9 c29 -20 43 -55 30 -71 -15 -18 -22 -16 -57
13 -26 22 -37 25 -71 19 -55 -9 -63 -29 -58 -137 5 -96 11 -108 60 -108 30 0
78 19 78 31 0 5 10 13 21 20 17 9 23 8 30 -2 13 -21 11 -26 -27 -69 -34 -38
-40 -40 -93 -40 -50 0 -61 4 -85 29 -34 35 -45 82 -46 182 0 82 18 121 64 139
37 15 130 11 154 -6z m-595 -24 c35 -28 46 -84 23 -123 -16 -28 -16 -31 0 -48
19 -21 21 -77 4 -109 -17 -32 -51 -49 -113 -56 -56 -7 -59 -6 -93 27 -29 28
-34 40 -34 79 0 25 5 51 12 58 9 9 7 21 -7 51 -21 46 -16 77 19 114 23 24 32
27 94 27 55 0 75 -4 95 -20z m-602 -29 c54 -54 53 -85 -7 -153 -26 -29 -61
-65 -78 -80 l-31 -27 57 -1 c71 0 111 -14 106 -37 -4 -21 -57 -30 -173 -29
-76 1 -80 2 -80 23 0 14 34 59 94 124 93 100 94 102 80 128 -11 20 -24 27 -55
29 -33 2 -44 -2 -69 -28 -32 -33 -47 -37 -64 -16 -10 12 -5 22 24 55 35 39 54
46 124 50 27 1 41 -7 72 -38z m281 -33 c3 -71 4 -73 31 -76 35 -4 37 -38 2
-54 -22 -10 -24 -17 -27 -82 -3 -63 -5 -71 -23 -71 -18 0 -21 8 -25 74 l-5 74
-75 1 c-70 1 -75 2 -75 23 0 27 150 183 176 183 16 0 19 -10 21 -72z m-651 22
c4 -14 7 -78 8 -142 1 -129 -4 -120 79 -157 12 -6 22 -18 22 -27 0 -13 -6 -15
-31 -10 -17 3 -75 6 -128 7 -53 0 -89 3 -81 6 8 3 24 16 36 28 11 12 26 24 32
26 14 5 16 25 14 127 -2 70 -3 72 -27 72 -37 0 -33 37 8 72 38 33 59 32 68 -2z
m-457 5 c3 -8 8 -67 11 -132 3 -65 8 -134 10 -153 5 -41 -3 -57 -30 -62 -11
-1 -23 -7 -26 -12 -4 -5 -12 -5 -19 -1 -9 6 -9 9 0 15 10 6 6 19 -14 52 -55
87 -116 172 -117 163 0 -6 -1 -57 -2 -115 -2 -105 -2 -105 -27 -105 l-25 0 -7
159 c-7 160 -2 196 27 196 7 0 24 -15 37 -32 12 -18 26 -37 30 -43 34 -43 66
-88 80 -114 24 -43 39 -40 34 7 -14 106 -15 155 -6 172 13 24 36 26 44 5z
m4161 -16 c11 -33 -9 -39 -133 -39 -95 0 -114 3 -119 16 -12 32 24 44 138 44
101 0 108 -1 114 -21z m-4761 -6 c11 -28 -6 -43 -48 -43 -73 0 -145 -12 -150
-25 -3 -8 -1 -26 3 -42 6 -23 13 -28 42 -29 57 -2 59 -3 59 -28 0 -28 -28 -41
-66 -32 -18 5 -24 2 -25 -11 0 -10 -1 -45 -2 -78 -2 -49 -5 -60 -21 -63 -10
-2 -22 0 -26 5 -13 13 -15 344 -3 351 6 4 61 7 122 8 82 0 112 -3 115 -13z
m249 -35 c57 -60 65 -87 66 -225 1 -76 -1 -83 -19 -83 -28 0 -42 34 -38 93 l3
52 -73 3 -73 3 2 -72 c2 -67 1 -73 -22 -84 -29 -16 -312 -31 -288 -16 12 8
148 20 237 21 9 0 12 32 12 127 l0 127 52 53 c29 29 61 53 72 53 10 0 42 -24
69 -52z m-1203 -53 l0 -75 31 -7 c23 -4 29 -10 27 -27 -2 -13 -12 -22 -25 -24
-22 -3 -23 -8 -23 -78 0 -71 -1 -74 -24 -74 -29 0 -36 16 -36 78 0 26 -4 52
-8 58 -4 6 -38 11 -76 12 -38 1 -72 4 -74 7 -15 15 161 205 189 205 17 0 19
-8 19 -75z m155 -65 c5 -87 12 -143 19 -149 7 -6 52 -11 101 -13 92 -3 109
-12 80 -42 -13 -13 -38 -16 -116 -16 -54 0 -99 -4 -99 -9 0 -4 -24 -11 -52
-14 -29 -4 -65 -16 -80 -27 -29 -21 -38 -24 -38 -12 0 15 81 52 115 52 31 0
34 2 26 18 -7 14 -17 290 -12 340 0 6 12 12 25 12 24 0 24 -1 31 -140z m-402
118 c5 -14 -35 -91 -64 -124 -28 -30 -23 -53 26 -118 46 -61 56 -93 31 -102
-23 -9 -43 8 -80 65 l-35 53 -46 -71 c-41 -64 -48 -70 -66 -60 -27 14 -20 40
31 116 22 33 40 64 40 68 0 4 -22 35 -50 70 -52 65 -60 89 -35 99 24 9 38 -1
74 -54 19 -28 39 -50 45 -50 6 0 20 16 31 36 19 35 68 84 85 84 5 0 10 -6 13
-12z m-405 -110 c7 -57 12 -124 12 -150 0 -40 3 -47 22 -50 27 -4 33 -21 14
-41 -11 -11 -34 -15 -78 -14 -57 2 -63 4 -66 24 -3 17 3 24 22 29 26 6 26 7
26 108 l0 102 -27 -1 c-38 0 -39 18 -2 59 52 60 63 51 77 -66z m10448 -22 c10
-32 10 -36 0 -25 -17 18 -36 75 -28 84 4 3 8 0 11 -7 2 -7 9 -31 17 -52z
m-7928 32 c-3 -22 -9 -23 -123 -30 -95 -6 -122 -5 -133 6 -11 11 -11 16 3 30
13 13 38 16 136 16 119 0 120 0 117 -22z m-388 -199 c0 -5 -19 -9 -42 -8 -35
1 -38 2 -18 8 38 11 60 11 60 0z m-3712 -16 c33 -63 19 -177 -32 -254 -29 -44
-33 -57 -11 -39 26 21 19 -33 -7 -56 -24 -20 -91 -54 -108 -54 -20 0 -9 18 14
24 13 3 26 13 30 21 6 17 1 15 -44 -15 -14 -10 -40 -21 -59 -25 -28 -6 -33 -5
-28 8 3 9 -1 21 -9 27 -8 7 -14 21 -14 31 0 11 -4 19 -10 19 -5 0 -10 5 -10
10 0 6 6 10 13 10 16 0 37 42 37 73 0 38 32 114 59 141 77 74 107 95 138 96
21 0 36 -6 41 -17z m3432 -4 c-32 -9 -135 -11 -127 -3 9 9 119 21 137 15 10
-4 7 -7 -10 -12z m951 -6 c13 -16 12 -17 -3 -4 -10 7 -18 15 -18 17 0 8 8 3
21 -13z m-1417 -11 c4 -7 -219 -5 -254 2 -8 2 44 4 117 5 72 0 134 -3 137 -7z
m-549 -22 c3 -5 -3 -10 -15 -10 -12 0 -18 5 -15 10 3 6 10 10 15 10 5 0 12 -4
15 -10z m1778 -17 c12 -21 16 -63 7 -63 -5 0 -10 7 -10 15 0 8 -9 15 -20 15
-23 0 -26 10 -8 28 14 14 25 15 31 5z m330 -90 c4 -7 14 -13 22 -13 8 0 17 -4
20 -10 3 -5 0 -10 -8 -10 -17 0 -77 50 -77 63 0 11 31 -12 43 -30z m1609 -3
c4 -19 8 -109 8 -200 0 -91 5 -262 10 -380 26 -566 30 -676 35 -965 8 -468 15
-699 26 -815 5 -58 9 -213 8 -345 -1 -132 -1 -273 -1 -313 0 -40 -5 -75 -11
-79 -6 -3 -75 -7 -154 -9 -107 -2 -143 0 -140 9 3 8 29 11 80 9 74 -2 77 -2
91 25 8 16 28 38 44 50 l30 22 -4 108 c-3 60 -9 146 -13 193 -5 47 -6 129 -3
182 4 83 -4 337 -23 768 -9 195 -15 957 -7 964 8 9 10 33 11 197 1 69 -3 137
-8 150 -5 13 -10 18 -10 12 -1 -7 -5 -13 -11 -13 -14 0 -13 96 1 119 9 13 9
23 1 37 -10 17 -11 16 -12 -11 -1 -26 -2 -28 -11 -12 -6 11 -9 32 -7 49 8 54
-16 61 -231 60 -218 0 -463 -8 -671 -23 -80 -5 -188 -8 -240 -7 -105 3 -539
-17 -702 -32 -57 -5 -249 -14 -428 -20 -179 -5 -433 -14 -565 -20 -268 -11
-895 -23 -1110 -21 -77 0 -211 -5 -299 -13 -152 -14 -186 -13 -186 4 0 12 165
23 323 20 106 -1 147 2 147 10 0 6 7 19 16 28 15 14 15 17 -2 29 -10 7 -12 13
-6 13 11 0 12 30 2 39 -9 7 -183 -10 -241 -24 -30 -7 -74 -24 -97 -39 -26 -16
-68 -30 -114 -37 -40 -6 -81 -15 -90 -20 -26 -13 -50 -11 -73 7 -19 16 -19 16
8 12 15 -3 27 -1 27 4 0 4 11 6 24 2 13 -3 27 -1 30 5 4 6 18 11 32 11 22 0
54 20 54 33 0 2 -13 7 -29 10 -16 3 -40 9 -55 13 -19 4 -26 2 -26 -9 0 -18
-30 -27 -92 -27 -49 0 -62 7 -49 29 9 14 119 29 251 36 41 2 161 8 265 14 105
6 249 14 320 17 126 5 131 6 174 36 39 28 52 32 109 31 56 0 67 -4 89 -27 15
-16 31 -25 40 -22 8 3 59 6 114 6 59 0 99 4 99 10 0 6 -7 10 -15 10 -24 0 -17
29 8 34 52 11 276 16 282 6 3 -5 2 -18 -4 -27 -8 -17 -2 -18 114 -13 91 4 128
9 141 21 31 25 72 39 120 39 59 0 87 -15 79 -41 -6 -18 -4 -19 12 -12 10 5 77
11 148 12 102 2 134 6 147 18 12 10 44 18 93 21 63 4 79 2 95 -13 24 -22 76
-22 490 -4 14 1 70 5 125 10 55 5 156 13 225 19 69 5 175 14 235 20 61 6 211
15 335 20 124 5 274 12 333 16 l109 7 -4 -23 c-3 -26 -34 -36 -42 -14 -6 15
-46 20 -46 5 0 -5 -10 -11 -22 -13 -31 -4 -33 -22 -5 -52 23 -24 76 -38 62
-16 -3 6 -2 10 4 10 5 0 11 -4 13 -9 3 -10 118 -21 118 -11 0 12 -24 30 -42
30 -9 0 -22 9 -28 20 -7 14 -7 20 0 20 5 0 10 11 10 23 0 35 8 38 84 35 l70
-3 8 -35z m-1871 -13 c-9 -9 -14 -8 -21 3 -16 24 -11 31 11 19 16 -8 18 -14
10 -22z m1629 -18 c0 -5 -4 -9 -10 -9 -5 0 -10 7 -10 16 0 8 5 12 10 9 6 -3
10 -10 10 -16z m4120 13 c0 -4 -18 -26 -40 -47 -22 -21 -40 -34 -40 -27 0 6 9
16 20 22 11 6 20 19 20 29 0 10 3 21 7 24 9 10 33 9 33 -1z m730 1 c0 -5 -37
-7 -82 -5 -143 4 -157 9 -35 10 64 1 117 -1 117 -5z m-11261 -169 c35 -29 39
-44 13 -44 -25 0 -49 20 -57 48 -8 29 6 28 44 -4z m11482 -41 c8 -9 -5 -2 -28
17 -24 18 -43 35 -43 37 0 7 56 -35 71 -54z m-567 30 c8 -20 -12 -42 -43 -48
-29 -5 -40 -15 -20 -16 29 -3 34 -4 39 -14 3 -5 -5 -11 -17 -13 -13 -2 -23 -7
-23 -11 0 -4 46 -7 103 -7 151 0 271 -40 384 -131 24 -19 46 -45 49 -59 4 -14
13 -24 24 -24 18 0 34 -28 35 -60 1 -8 6 -14 13 -13 6 2 9 -4 5 -13 -3 -8 4
-25 15 -37 77 -84 118 -337 74 -460 -17 -48 -18 -49 -101 -82 -82 -32 -109
-36 -95 -13 5 8 1 9 -12 4 -34 -15 -95 -27 -104 -21 -5 3 -37 1 -72 -5 -35 -6
-128 -15 -208 -20 -80 -6 -161 -15 -180 -21 -19 -6 -101 -13 -183 -16 -144 -6
-147 -6 -141 -27 6 -19 28 -46 93 -113 13 -13 21 -27 18 -30 -14 -14 -122 99
-157 165 -11 21 -24 44 -30 52 -23 38 -59 151 -66 208 -6 53 -4 65 11 75 15
12 15 14 1 26 -20 17 -20 40 -1 65 8 11 15 32 15 46 0 51 76 183 155 270 41
46 75 89 75 96 0 7 20 24 45 38 46 27 59 41 28 29 -96 -37 -250 -168 -291
-248 -113 -217 -125 -317 -65 -555 6 -23 5 -24 -11 -11 -29 24 -42 62 -56 154
-26 182 13 311 150 498 78 107 246 203 360 206 46 1 65 5 65 15 0 14 -8 14
-37 3 -24 -9 -37 24 -16 39 16 12 13 86 -4 86 -6 0 -8 -7 -4 -15 9 -25 -15
-65 -40 -65 -27 0 -40 17 -36 45 6 37 31 45 143 45 91 0 108 -3 113 -17z m690
-3 c-16 -16 -73 -30 -79 -19 -12 18 7 29 48 29 28 0 38 -3 31 -10z m-11416
-27 c7 -7 11 -13 9 -13 -8 0 -77 30 -77 34 0 8 56 -9 68 -21z m9858 16 c4 -7
9 -54 12 -105 5 -90 4 -94 -16 -94 -20 0 -21 6 -24 88 l-3 87 -55 -1 c-185 -3
-285 -7 -297 -11 -11 -4 -13 -25 -8 -99 5 -80 3 -94 -10 -94 -13 0 -15 18 -15
110 l0 110 33 1 c88 3 171 9 175 14 11 11 201 5 208 -6z m-2770 -31 c4 -7 10
-50 12 -96 4 -78 3 -84 -14 -80 -13 2 -19 12 -20 33 0 17 -1 51 -2 78 l-2 47
-149 0 c-175 0 -177 -1 -160 -77 13 -56 6 -103 -15 -103 -18 0 -22 28 -18 122
l4 77 41 3 c125 10 316 7 323 -4z m-5509 -50 c-3 -7 -5 -2 -5 12 0 14 2 19 5
13 2 -7 2 -19 0 -25z m8218 22 c4 -6 -7 -24 -24 -40 -16 -17 -25 -30 -19 -30
24 0 -15 -28 -47 -34 -21 -4 -35 -13 -35 -21 0 -14 -37 -21 -80 -16 -8 1 -29
2 -47 3 -25 2 -33 7 -38 26 -10 40 11 49 30 13 19 -38 39 -33 24 6 -7 19 -7
34 1 48 10 18 22 21 88 24 42 1 88 8 102 15 32 18 37 18 45 6z m-248 -15 c3
-9 3 -18 0 -22 -11 -10 -57 7 -57 22 0 20 49 20 57 0z m-2517 -9 c0 -20 -20
-32 -60 -35 -19 -2 -43 -7 -52 -12 -21 -12 -24 3 -4 20 14 12 84 39 104 40 6
1 12 -5 12 -13z m-186 -6 c30 -11 35 -44 9 -54 -12 -5 -13 -10 -5 -18 8 -8 15
-8 25 0 7 6 34 11 60 10 26 0 54 5 62 12 9 7 17 11 20 8 2 -2 5 -67 6 -144 1
-76 7 -145 12 -152 18 -24 -6 -31 -118 -33 l-110 -3 -2 65 c-3 129 -14 239
-24 263 -22 48 7 69 65 46z m2423 -12 c12 -20 22 -370 11 -391 -5 -10 -17 -17
-26 -15 -21 4 -35 83 -26 147 10 73 -16 44 -48 -54 -32 -99 -38 -108 -59 -100
-16 6 -35 39 -73 128 -14 31 -27 57 -30 57 -3 0 -2 -37 1 -83 5 -69 3 -86 -11
-100 -20 -20 -45 -12 -51 17 -2 11 -7 103 -10 202 -6 192 -4 200 40 184 18 -7
34 -40 109 -222 8 -21 19 -38 24 -38 5 0 20 37 35 83 38 118 57 170 69 184 13
17 35 17 45 1z m-2583 -20 c22 -32 20 -39 -8 -26 -20 8 -28 7 -41 -6 -16 -16
-35 -22 -35 -11 0 13 45 65 56 65 7 0 20 -10 28 -22z m-5051 -6 c-2 -7 6 -12
18 -12 12 0 19 -5 17 -12 -6 -18 -68 -20 -75 -2 -8 21 -19 17 -20 -8 -2 -24
-30 -51 -44 -42 -32 19 31 91 77 89 17 0 28 -6 27 -13z m116 4 c14 -16 -1 -31
-42 -41 -33 -9 -36 6 -7 35 24 24 34 25 49 6z m7120 -4 c58 -29 78 -118 40
-178 -24 -39 -66 -54 -152 -54 l-59 0 7 -64 c8 -70 -4 -106 -34 -106 -11 0
-22 8 -26 18 -4 9 -9 100 -12 201 -5 150 -3 185 8 192 26 17 191 11 228 -9z
m1175 -6 c-6 -17 -25 -21 -38 -9 -3 4 4 12 16 19 27 14 31 13 22 -10z m-1505
8 c39 -8 71 -57 71 -109 0 -45 -32 -100 -62 -108 -20 -6 -20 -7 -5 -29 37 -50
77 -124 77 -140 0 -12 -8 -18 -24 -18 -18 0 -35 17 -76 80 -41 62 -60 82 -84
89 -17 4 -34 6 -38 4 -5 -2 -8 -41 -8 -87 0 -80 -9 -106 -36 -106 -22 0 -32
61 -39 227 -4 110 -3 169 5 183 10 18 20 20 99 20 49 0 103 -3 120 -6z m-588
-35 c52 -36 69 -86 69 -194 0 -147 -41 -205 -144 -205 -74 0 -116 44 -142 149
-14 54 -14 70 -3 124 16 69 43 116 79 134 39 20 108 16 141 -8z m-347 -6 c8
-31 18 -360 11 -382 -4 -13 -15 -21 -29 -21 -22 0 -23 5 -29 83 -4 45 -7 112
-7 149 l0 66 -40 -5 c-32 -5 -41 -2 -47 12 -4 13 1 23 18 34 13 9 39 31 57 49
36 36 58 41 66 15z m2156 -13 c0 -5 -19 -9 -42 -9 l-43 2 35 7 c19 4 38 8 43
9 4 0 7 -3 7 -9z m-8130 -10 c0 -5 -7 -10 -15 -10 -8 0 -15 5 -15 10 0 6 7 10
15 10 8 0 15 -4 15 -10z m7537 -6 c-3 -3 -12 -4 -19 -1 -8 3 -5 6 6 6 11 1 17
-2 13 -5z m-2469 -21 c-4 -25 -68 -32 -68 -8 0 9 3 14 8 12 4 -3 16 -1 27 4
31 12 37 10 33 -8z m592 -110 l41 -48 20 25 c46 59 59 70 77 70 30 0 36 -30
12 -62 -11 -15 -30 -41 -42 -58 l-21 -29 47 -55 c40 -47 45 -58 36 -76 -17
-32 -44 -24 -79 25 -18 25 -36 45 -40 45 -5 0 -20 -15 -35 -34 -40 -53 -55
-66 -71 -60 -8 4 -15 14 -15 24 0 17 38 80 66 107 8 8 14 17 14 20 0 3 -20 28
-45 54 -42 45 -55 76 -38 92 15 15 33 5 73 -40z m5355 7 c-3 -5 1 -10 9 -10 9
0 16 -7 16 -14 0 -12 -6 -13 -30 -4 -29 9 -29 11 -13 24 22 16 26 17 18 4z
m-266 -6 c35 -7 41 -23 11 -31 -11 -3 -20 -13 -20 -22 0 -25 -10 -31 -29 -20
-9 5 -29 14 -46 20 -23 8 -26 12 -15 19 9 5 19 5 27 -1 6 -6 22 -9 35 -7 23 4
23 4 -4 18 -46 22 -23 36 41 24z m-10816 -56 c11 -67 29 -128 38 -128 5 0 9
10 9 23 0 17 2 19 9 8 7 -11 13 -12 23 -3 12 10 14 6 10 -18 -2 -17 -8 -33
-13 -36 -5 -3 -9 -17 -9 -32 0 -15 -7 -46 -15 -70 -9 -24 -13 -48 -9 -53 3 -6
-2 -26 -11 -45 -10 -22 -14 -46 -10 -61 5 -20 3 -24 -9 -20 -10 4 -16 1 -16
-8 0 -8 -4 -15 -8 -15 -18 0 -30 395 -16 469 8 38 20 33 27 -11z m10839 -51
c-2 -16 4 -39 12 -53 9 -13 12 -24 6 -24 -5 0 -10 4 -10 9 0 5 -16 12 -35 15
-36 7 -48 32 -20 42 8 4 15 15 15 26 0 13 6 18 18 16 12 -2 16 -11 14 -31z
m308 29 c0 -3 -4 -8 -10 -11 -5 -3 -10 -1 -10 4 0 6 5 11 10 11 6 0 10 -2 10
-4z m-6 -48 c3 -13 2 -26 -3 -31 -5 -5 -11 5 -13 22 -5 36 7 42 16 9z m-6636
-27 c36 -31 28 -58 -37 -122 -69 -68 -59 -65 -310 -79 -270 -15 -268 -15 -299
18 -103 108 -115 128 -94 158 19 29 148 40 482 42 216 1 237 0 258 -17z m6612
-1 c0 -5 -4 -10 -10 -10 -5 0 -10 5 -10 10 0 6 5 10 10 10 6 0 10 -4 10 -10z
m-5700 -25 c21 -19 28 -19 32 0 2 10 8 12 17 5 12 -7 12 -11 2 -24 -19 -22
-90 -21 -107 1 -17 24 -23 15 -17 -25 6 -36 8 -37 66 -47 20 -3 37 -10 37 -15
0 -15 -97 -31 -125 -20 -24 9 -25 13 -19 47 4 21 10 48 15 60 7 18 5 21 -9 16
-13 -4 -13 -2 3 11 24 19 79 15 105 -9z m-200 5 c13 -9 13 -12 -2 -24 -14 -10
-18 -28 -18 -85 l0 -71 113 0 c61 0 136 3 165 6 l52 7 0 83 c0 46 4 84 9 84
11 0 19 -123 11 -166 l-5 -29 -183 -3 -183 -2 2 82 2 83 -117 -3 c-109 -3
-117 -2 -114 15 2 14 16 19 68 24 110 10 184 9 200 -1z m6070 -50 c0 -29 -8
-44 -45 -80 -25 -24 -45 -39 -45 -33 0 17 29 81 40 88 5 3 15 24 21 46 14 46
29 35 29 -21z m-6012 8 c1 -23 5 -50 8 -60 4 -14 0 -18 -18 -18 -22 0 -24 3
-22 50 2 27 5 54 9 60 13 21 22 9 23 -32z m-2548 19 c14 1 69 3 123 3 94 2 99
1 123 -25 23 -25 24 -29 10 -44 -9 -9 -29 -33 -46 -53 -49 -58 -85 -75 -180
-83 -168 -14 -316 -20 -374 -15 -58 5 -60 7 -117 70 -85 94 -80 115 31 129 41
5 136 13 210 16 74 4 137 9 139 11 2 2 16 1 30 -3 14 -4 37 -7 51 -6z m8890 6
c-1 -9 -89 -53 -104 -53 -15 0 6 18 45 40 36 20 59 25 59 13z m-294 -51 c-8
-9 -19 -13 -22 -9 -10 9 16 38 28 31 6 -4 4 -13 -6 -22z m-196 -2 c0 -11 -13
-34 -30 -52 l-30 -33 12 35 c9 31 35 70 45 70 1 0 3 -9 3 -20z m-6510 -15 c19
-20 25 -41 31 -112 12 -143 11 -253 -3 -254 -10 0 -10 -2 0 -6 16 -6 15 -40
-2 -46 -10 -4 -14 -32 -14 -112 -1 -157 -22 -233 -68 -254 -29 -13 -54 -14
-54 -3 0 5 -25 35 -55 67 l-56 58 6 101 c3 56 8 144 10 196 2 52 9 131 16 175
l11 80 67 66 c36 37 71 67 77 68 6 1 21 -10 34 -24z m6379 -2 c0 -25 -1 -25
-8 -8 -5 11 -7 23 -4 28 8 14 13 7 12 -20z m-12030 -13 c63 -5 116 -12 119
-15 3 -3 -2 -5 -12 -5 -9 0 -19 -7 -22 -15 -4 -8 -12 -15 -20 -15 -7 0 -21
-11 -30 -25 -12 -18 -22 -24 -35 -20 -26 9 -36 -21 -15 -44 20 -22 20 -40 1
-47 -8 -4 -15 -15 -15 -25 0 -22 -39 -71 -52 -63 -4 3 -8 -17 -8 -44 l0 -48
65 -14 c36 -8 69 -18 74 -24 15 -20 31 -100 35 -181 9 -151 17 -192 40 -203
15 -7 27 -29 40 -76 18 -65 17 -81 -7 -81 -24 0 -38 -49 -31 -108 3 -33 2 -63
-4 -70 -5 -6 -13 -48 -16 -92 -11 -146 -16 -173 -37 -178 -10 -3 -17 -11 -15
-19 2 -7 7 -27 10 -45 5 -29 3 -32 -22 -36 -19 -3 -13 -5 18 -7 35 -2 22 -5
-60 -17 -101 -14 -161 -17 -280 -12 -84 4 -146 -9 -179 -37 -29 -24 -31 -24
-68 -8 -46 20 -169 21 -355 3 l-128 -13 0 -137 0 -138 188 5 c235 7 400 19
522 38 84 14 276 21 225 9 -11 -3 -24 -9 -30 -15 -10 -10 24 -8 182 8 59 6 61
5 56 -14 -3 -11 -14 -28 -24 -38 -10 -9 -19 -25 -19 -35 0 -10 -9 -21 -20 -24
-11 -3 -20 -15 -20 -26 0 -10 -4 -19 -10 -19 -15 0 -50 -164 -50 -234 0 -31
-2 -30 38 -11 22 12 40 14 64 7 47 -12 70 -64 74 -172 2 -47 8 -134 13 -195 5
-60 8 -173 7 -250 -2 -133 -3 -142 -29 -186 -15 -26 -36 -49 -47 -52 -12 -3
-20 -14 -21 -29 -1 -17 -3 -18 -6 -5 -2 9 -12 17 -22 17 -16 0 -18 -13 -20
-130 -2 -114 0 -130 14 -130 15 0 15 -1 0 -17 -20 -19 -108 -36 -147 -27 -23
5 -28 11 -28 36 l0 31 -57 -7 c-31 -4 -88 -20 -127 -37 l-71 -31 -280 -10
c-189 -7 -282 -14 -288 -22 -9 -14 3 -210 14 -214 4 -2 5 -11 2 -19 -5 -13 -2
-15 12 -9 11 4 22 2 26 -6 4 -7 11 -9 16 -5 4 5 -3 16 -16 26 l-24 18 22 6
c14 3 24 0 28 -9 4 -10 18 -14 44 -12 21 1 42 -1 45 -5 4 -4 -2 -7 -14 -7 -11
0 -24 -4 -27 -10 -8 -13 438 -14 463 -1 9 5 60 23 112 39 102 32 245 47 315
33 l40 -7 -55 -13 c-85 -20 -90 -22 -90 -33 0 -8 26 -9 83 -5 71 5 80 4 64 -7
-31 -24 -47 -110 -47 -262 0 -108 -3 -145 -15 -160 -18 -24 -19 -34 -1 -34 7
0 19 13 26 30 14 33 66 70 99 70 35 0 47 -50 55 -235 4 -93 11 -222 15 -285 3
-63 2 -138 -2 -167 -8 -50 -10 -52 -63 -78 -31 -15 -62 -24 -73 -20 -26 8 -28
-5 -21 -193 4 -114 9 -165 18 -171 19 -12 -26 -48 -71 -56 -20 -4 -53 -4 -72
-1 -33 7 -35 9 -35 49 0 24 -5 48 -11 54 -16 16 -80 4 -109 -21 -102 -87 -109
-91 -215 -97 -55 -4 -182 -7 -283 -8 -137 -1 -184 -4 -186 -13 -16 -54 -17
-54 -34 -13 -10 22 -25 52 -35 66 -16 24 -16 31 -3 83 16 60 13 79 -15 107 -9
9 -26 42 -38 73 -19 51 -21 77 -21 254 1 108 5 223 11 256 6 32 11 109 13 170
2 106 5 116 34 168 44 76 42 113 -6 169 -21 24 -42 52 -45 63 -18 46 -28 475
-14 561 13 79 9 176 -8 195 -7 8 -25 38 -40 65 l-27 50 7 280 c9 387 7 686 -6
744 -9 42 -7 57 12 107 34 94 34 106 0 171 -20 37 -31 72 -30 94 1 40 -26 146
-44 167 -9 11 -12 76 -12 226 -1 307 7 441 28 464 9 10 17 23 17 29 0 5 11 20
24 32 33 31 37 64 37 296 -1 147 -5 212 -15 236 -20 50 -10 104 21 118 34 15
602 40 728 32 17 -1 50 2 75 7 25 6 68 8 95 6 28 -2 101 -8 164 -14z m4793
-19 c20 -21 41 -48 47 -59 14 -26 5 -364 -13 -505 l-13 -97 -59 -64 c-79 -85
-125 -86 -137 -2 -4 21 -8 41 -11 43 -3 3 -40 9 -83 13 l-78 7 60 4 c33 1 69
3 81 3 21 0 21 6 28 209 5 135 12 222 21 247 8 22 10 42 5 45 -4 3 -11 -1 -13
-7 -3 -7 -6 -1 -6 14 -1 15 3 29 8 33 6 3 13 25 16 49 8 52 53 106 87 106 14
0 38 -16 60 -39z m-2365 -4 c3 -4 2 -14 -2 -24 -8 -17 -8 -17 -12 0 -5 20 -14
22 -31 5 -10 -10 -17 -7 -35 11 l-22 23 48 -5 c26 -2 51 -7 54 -10z m1675 -26
l33 -29 -2 -164 c-3 -305 -6 -378 -12 -323 -5 40 -8 25 -12 -72 -5 -107 -9
-127 -30 -158 -36 -52 -66 -48 -135 20 -37 37 -54 61 -50 73 2 9 7 125 11 257
6 277 9 303 39 316 11 5 41 31 66 59 25 27 48 50 52 50 4 0 22 -13 40 -29z
m-867 -18 c58 -58 66 -82 67 -201 1 -59 -5 -141 -11 -182 -7 -41 -12 -93 -12
-115 1 -22 -1 -69 -5 -105 -6 -64 -6 -65 -76 -132 -77 -75 -102 -82 -132 -41
-18 24 -19 39 -11 252 8 245 8 237 5 330 -1 47 2 66 13 72 7 5 14 25 15 45 1
20 9 46 19 57 18 20 73 57 85 57 3 0 22 -16 43 -37z m-857 -25 c-12 -10 -30
-25 -39 -33 -20 -19 -109 -32 -109 -16 0 10 38 16 56 9 4 -2 11 8 16 22 10 24
11 24 18 5 8 -19 9 -19 9 3 1 12 6 22 12 22 5 0 7 -4 4 -10 -3 -6 1 -7 9 -4 9
3 14 9 12 13 -3 4 5 7 16 7 19 0 19 -1 -4 -18z m9687 12 c3 -5 -1 -10 -10 -10
-9 0 -13 5 -10 10 3 6 8 10 10 10 2 0 7 -4 10 -10z m-3104 -57 c1 -32 2 -65 3
-73 2 -8 3 -32 4 -52 l2 -38 103 0 c57 0 138 3 180 6 76 7 77 7 77 35 0 33 9
59 21 59 5 0 9 -26 9 -58 l0 -59 -202 -6 c-112 -3 -205 -3 -208 0 -7 7 -19
214 -13 230 12 30 23 9 24 -44z m3027 21 c-9 -10 -21 -13 -29 -8 -9 5 -8 9 7
15 31 12 39 10 22 -7z m42 -16 c0 -19 -66 -59 -107 -65 -34 -6 -35 -5 -24 16
7 12 21 21 35 21 13 0 34 9 47 20 27 22 49 26 49 8z m128 -49 c-17 -11 -68
-11 -68 -1 0 14 33 40 55 44 24 4 34 -30 13 -43z m-3093 9 c32 -14 27 -32 -9
-36 -36 -4 -54 12 -36 33 15 18 13 18 45 3z m-6528 -65 c-2 -16 -4 -5 -4 22 0
28 2 40 4 28 2 -13 2 -35 0 -50z m-827 7 c0 -5 -2 -10 -4 -10 -3 0 -8 5 -11
10 -3 6 -1 10 4 10 6 0 11 -4 11 -10z m7360 -20 c-20 -13 -47 -13 -55 0 -4 6
9 10 32 10 28 0 34 -3 23 -10z m-7373 -152 c-2 -13 -4 -5 -4 17 -1 22 1 32 4
23 2 -10 2 -28 0 -40z m4891 -16 c9 -6 13 -46 15 -135 1 -86 6 -128 14 -131 6
-3 10 -20 9 -40 -2 -20 0 -36 4 -36 4 0 5 -11 3 -24 -3 -16 -10 -23 -19 -19
-8 3 -14 -1 -14 -10 0 -8 -3 -17 -7 -19 -5 -1 -15 -16 -23 -33 -9 -18 -25 -31
-39 -33 -21 -3 -21 -5 -5 -16 41 -30 -26 -49 -76 -21 -22 12 -27 11 -42 -2
-23 -20 -52 -9 -45 17 3 13 0 20 -9 20 -10 0 -14 -13 -14 -44 0 -50 13 -65 38
-44 30 26 46 33 40 17 -4 -10 5 -15 35 -16 50 -3 55 -8 32 -33 -24 -26 -92
-28 -111 -2 -10 14 -15 15 -25 5 -27 -27 -36 -13 -43 67 -4 44 -12 82 -17 85
-5 4 -9 3 -10 -2 -1 -14 -1 -187 0 -200 1 -17 103 -17 224 -2 l90 12 -6 81
c-7 91 3 125 28 92 16 -21 21 -125 9 -183 l-6 -30 -180 -7 c-145 -6 -183 -5
-189 6 -5 7 -9 42 -9 78 0 36 -4 71 -8 77 -5 8 -31 12 -75 11 -92 -3 -111 17
-25 26 107 12 116 14 116 41 0 52 14 135 22 130 5 -3 11 9 14 27 18 123 20
166 12 190 -5 15 -7 30 -4 33 3 3 36 1 74 -4 47 -7 82 -7 112 1 23 6 46 8 49
4 13 -12 -13 -26 -67 -35 -30 -5 -45 -9 -32 -10 13 0 20 -5 17 -11 -4 -6 -12
-7 -18 -4 -8 4 -7 2 1 -7 11 -12 14 -12 21 0 5 8 23 15 41 16 33 3 32 4 66
-85 12 -33 13 -29 14 67 l0 103 -142 -5 c-79 -3 -149 -5 -157 -5 -11 0 -13
-12 -8 -54 3 -30 3 -72 0 -95 l-6 -40 -29 15 c-23 12 -27 18 -19 28 6 8 10 26
9 42 -3 51 2 109 11 123 8 12 43 15 166 17 86 2 160 5 163 8 7 8 15 7 30 -2z
m4906 -22 c10 -10 -3 -90 -15 -90 -5 0 -9 9 -9 20 0 13 -7 20 -19 20 -11 0
-22 4 -25 9 -3 4 -19 11 -36 14 -33 7 -41 33 -12 39 25 6 105 -3 116 -12z
m-176 -17 c8 -14 2 -24 -29 -48 -33 -26 -38 -35 -39 -72 0 -51 -8 -73 -26 -73
-8 0 -14 -4 -14 -10 0 -14 -55 -40 -84 -40 -28 0 -46 25 -46 64 0 27 24 37 33
14 3 -10 9 -10 26 0 11 6 29 12 40 12 14 0 20 10 25 41 4 22 4 44 1 49 -11 18
14 54 46 66 47 17 57 17 67 -3z m-4307 -3 c22 -12 49 -61 49 -89 0 -32 -50
-79 -92 -87 -34 -5 -41 -3 -68 26 -41 44 -41 91 -1 131 31 31 75 38 112 19z
m-829 -52 c3 -7 -8 -23 -23 -36 l-29 -24 0 24 c0 38 41 66 52 36z m3183 -38
c4 -6 9 -54 12 -108 5 -89 4 -96 -11 -82 -10 10 -18 42 -22 94 l-7 78 -173 -4
c-95 -2 -176 -6 -180 -10 -4 -4 -6 -48 -5 -98 1 -71 -2 -90 -13 -90 -11 0 -14
21 -15 98 -1 53 2 102 7 109 9 15 59 19 249 21 96 1 154 -2 158 -8z m361 -58
c-8 -7 -24 7 -47 41 l-22 32 36 -34 c20 -19 35 -37 33 -39z m-2349 21 c50 -37
86 -90 79 -116 -11 -45 -34 -40 -72 13 -38 54 -64 66 -118 56 -70 -13 -106
-73 -106 -178 0 -98 35 -161 101 -178 53 -15 100 7 134 60 30 48 58 51 63 7 4
-35 -31 -93 -72 -118 -23 -14 -50 -19 -101 -19 -70 0 -71 0 -117 46 -57 56
-78 112 -78 208 0 107 53 203 130 235 38 16 127 7 157 -16z m1680 -14 c8 -8 7
-20 -5 -45 -24 -48 -42 -44 -42 11 0 37 3 45 18 45 10 0 23 -5 29 -11z m243 1
c8 -5 11 -12 8 -16 -10 -9 -38 3 -38 16 0 12 10 13 30 0z m-3115 -41 c4 -6 5
-13 2 -16 -8 -7 -47 7 -47 18 0 13 37 11 45 -2z m-4542 -204 c-32 -39 -42 -45
-75 -45 l-38 0 0 43 c0 23 3 53 7 67 l7 25 6 -25 c8 -33 37 -39 36 -8 -1 13
-5 26 -11 30 -5 4 7 5 27 2 l37 -6 18 58 18 59 3 -78 c3 -76 2 -78 -35 -122z
m2784 169 c-3 -3 -12 -4 -19 -1 -8 3 -5 6 6 6 11 1 17 -2 13 -5z m-1925 -163
c-21 -29 -52 -40 -52 -18 0 7 -11 24 -25 37 -30 28 -31 35 -7 44 40 16 63 32
68 51 15 46 29 34 32 -27 2 -49 -1 -67 -16 -87z m6815 133 c6 -18 -25 -26
-127 -31 -105 -6 -145 -18 -95 -28 21 -5 31 -13 31 -26 0 -10 -4 -19 -8 -19
-4 0 -8 -7 -8 -16 0 -8 -4 -12 -10 -9 -5 3 -10 -1 -10 -9 0 -20 24 -11 71 26
21 16 49 28 66 28 16 0 35 6 41 12 10 10 15 10 22 -2 8 -12 10 -10 10 8 0 13
4 20 10 17 5 -3 9 -33 7 -66 -2 -33 0 -62 3 -64 13 -8 20 -208 8 -222 -8 -10
-8 -24 1 -52 22 -74 13 -82 -96 -92 -48 -5 -114 -11 -145 -15 -40 -4 -58 -3
-58 5 0 6 5 11 10 11 11 0 5 480 -6 525 -6 23 -4 24 58 28 117 7 221 2 225 -9z
m2669 -21 c-10 -10 -19 5 -10 18 6 11 8 11 12 0 2 -7 1 -15 -2 -18z m-6559 -9
c32 -6 93 -62 93 -85 0 -11 -18 -39 -40 -62 -34 -38 -47 -45 -105 -55 -70 -13
-357 -32 -497 -32 l-88 0 -38 38 c-45 44 -44 70 7 127 31 35 39 39 120 51 47
7 145 14 216 14 72 1 139 5 150 9 19 8 137 5 182 -5z m6541 -30 c-10 -10 -23
-14 -37 -9 -32 10 -25 22 9 17 20 -3 30 0 30 9 0 7 3 9 7 5 4 -3 0 -14 -9 -22z
m95 -25 c-14 -14 -44 16 -36 37 5 13 9 13 27 -5 14 -15 17 -24 9 -32z m-8131
-36 c21 -20 38 -45 38 -55 0 -10 -21 -38 -46 -63 -35 -33 -57 -46 -88 -50
-101 -13 -312 -25 -458 -25 -151 0 -160 1 -165 20 -3 11 -13 20 -23 20 -25 0
-34 44 -16 78 8 15 29 41 48 59 29 28 43 33 113 41 44 5 188 10 320 11 l239 1
38 -37z m-2788 -16 c13 -15 20 -18 23 -9 3 6 11 12 19 12 8 0 14 6 14 13 0 8
4 7 10 -3 13 -20 13 -177 0 -185 -6 -4 -10 8 -10 29 0 20 -5 36 -11 36 -6 0
-8 -9 -4 -20 4 -11 2 -20 -4 -20 -6 0 -11 7 -11 15 0 8 -4 15 -9 15 -10 0 -21
-48 -21 -91 0 -29 -18 -40 -65 -38 -11 0 -39 -3 -63 -7 -35 -6 -41 -4 -37 8 4
10 32 20 81 28 58 9 73 14 65 24 -6 7 -13 26 -15 42 -2 16 -7 37 -11 47 -4 9
-5 23 -2 30 3 7 -1 27 -8 44 -12 29 -15 30 -64 25 -47 -4 -51 -3 -51 18 0 21
2 22 78 15 61 -5 81 -11 96 -28z m-439 2 c0 -9 -12 -14 -33 -15 -18 -1 -38 -6
-44 -12 -7 -7 -13 -55 -14 -113 l-3 -102 65 6 c58 6 65 4 62 -11 -3 -14 -16
-18 -75 -20 l-71 -3 -7 125 c-4 69 -5 132 -2 140 4 9 24 16 54 19 62 4 68 3
68 -14z m1679 -33 c54 -50 55 -57 5 -126 -42 -57 -82 -71 -229 -81 -143 -9
-199 -15 -253 -24 -22 -4 -43 -3 -50 4 -7 6 -55 12 -106 13 -91 3 -92 3 -117
35 -37 49 -41 92 -12 124 13 14 23 30 21 35 -5 15 73 32 177 40 52 3 115 9
140 13 25 4 119 8 210 9 l165 2 49 -44z m-1386 -69 c3 -70 1 -77 -16 -77 -15
0 -21 9 -25 44 -9 63 2 118 22 114 13 -3 17 -19 19 -81z m-308 55 c0 -10 -13
-28 -30 -40 l-30 -22 2 27 c1 16 6 34 11 41 15 19 47 15 47 -6z m63 -65 c-8
-96 -48 -96 -44 1 2 56 17 88 35 72 10 -7 12 -29 9 -73z m315 3 c2 -43 -1 -77
-8 -84 -19 -19 -30 16 -26 89 5 84 3 78 19 73 8 -3 13 -30 15 -78z m4529 61
c40 -34 45 -64 39 -276 -9 -321 -24 -436 -65 -502 -43 -68 -91 -66 -143 5
l-33 47 0 195 c0 208 8 333 25 391 9 34 126 159 147 159 4 -1 18 -9 30 -19z
m6209 -6 c18 -15 18 -15 -10 -13 -16 2 -31 9 -34 16 -5 17 20 15 44 -3z m-120
-20 c-19 -14 -36 -12 -36 6 0 5 12 9 28 9 26 -1 26 -1 8 -15z m247 0 c23 -4
37 -11 37 -20 0 -20 -31 -19 -75 2 -37 18 -47 34 -17 28 9 -2 34 -7 55 -10z
m317 -36 c0 -49 -1 -51 -22 -44 -13 3 -36 8 -53 11 -16 2 -38 7 -48 10 -10 3
-24 0 -32 -6 -16 -13 -45 -7 -45 9 0 5 35 9 78 9 108 0 104 -1 97 23 -6 18 6
38 23 39 1 0 2 -23 2 -51z m-11429 -35 c10 -12 2 -24 -15 -24 -7 0 -11 18 -10
48 3 60 6 67 11 22 3 -19 9 -40 14 -46z m11254 66 c3 -5 1 -10 -4 -10 -6 0
-11 5 -11 10 0 6 2 10 4 10 3 0 8 -4 11 -10z m-1895 -41 c0 -16 -4 -29 -9 -29
-10 0 -22 51 -14 63 9 15 23 -5 23 -34z m-6106 -11 c24 -54 23 -285 -2 -453
-12 -77 -21 -163 -22 -191 0 -39 -7 -61 -31 -97 -17 -26 -34 -49 -37 -51 -20
-10 -74 19 -104 56 l-33 42 -1 121 c0 110 18 380 32 465 8 50 106 140 151 140
26 0 35 -6 47 -32z m668 -29 c24 -25 37 -47 34 -57 -2 -9 -7 -43 -11 -75 -6
-53 -8 -57 -21 -40 -16 21 -19 47 -4 38 6 -3 10 1 10 9 0 8 -4 18 -10 21 -5 3
-10 22 -10 41 0 30 -3 34 -25 34 -22 0 -24 2 -15 26 13 33 13 37 -3 31 -8 -3
-20 -1 -28 4 -10 6 -6 9 15 9 20 0 40 -12 68 -41z m4288 31 c0 -5 -7 -10 -15
-10 -8 0 -15 5 -15 10 0 6 7 10 15 10 8 0 15 -4 15 -10z m3287 -33 c17 -27 55
-46 74 -36 20 10 37 -5 17 -17 -24 -15 -75 -7 -96 14 -12 12 -26 22 -32 22 -5
0 -7 7 -4 15 7 18 30 20 41 2z m-9129 -46 c33 -34 33 -36 26 -100 -8 -78 -14
-92 -14 -32 0 23 -4 40 -9 36 -6 -3 -8 9 -6 27 3 22 2 28 -4 19 -8 -12 -12
-13 -26 -1 -8 7 -15 20 -14 29 3 29 -1 33 -17 16 -12 -12 -19 -13 -30 -4 -16
13 -19 39 -4 39 6 0 10 -7 10 -15 0 -8 5 -15 10 -15 6 0 10 11 10 25 0 32 23
24 68 -24z m9002 17 c0 -6 -22 -32 -49 -58 -36 -32 -67 -50 -111 -63 -88 -26
-120 -18 -44 11 32 13 67 28 76 33 10 5 24 9 32 9 22 0 66 40 66 61 0 10 7 19
15 19 8 0 15 -5 15 -12z m-9727 -38 c-3 -11 -9 -18 -13 -15 -5 3 -6 14 -3 25
3 11 9 18 13 15 5 -3 6 -14 3 -25z m6567 22 c0 -13 -12 -22 -22 -16 -10 6 -1
24 13 24 5 0 9 -4 9 -8z m-6533 -34 c-3 -7 -5 -2 -5 12 0 14 2 19 5 13 2 -7 2
-19 0 -25z m8063 22 c8 -1 2 -6 -15 -11 -16 -5 -37 -6 -47 -3 -9 2 -19 0 -23
-6 -3 -5 -1 -10 4 -10 17 0 13 -15 -10 -41 l-21 -24 -46 26 c-57 32 -69 65
-25 72 25 3 143 2 183 -3z m-8900 -131 c0 -28 -4 -39 -12 -36 -8 2 -12 17 -10
37 3 27 1 32 -12 27 -12 -5 -16 0 -16 19 0 18 -4 25 -14 21 -9 -4 -16 3 -20
15 -10 41 7 40 45 -1 32 -34 39 -49 39 -82z m8341 104 c7 -7 5 -24 -7 -52 -11
-27 -14 -50 -8 -68 4 -16 6 -35 5 -43 -1 -9 5 -35 14 -59 20 -57 19 -71 -4
-71 -16 0 -21 9 -25 53 -3 28 -5 64 -5 78 2 39 -22 80 -60 106 -19 13 -29 23
-22 23 6 0 11 4 11 9 0 5 -9 7 -20 4 -11 -3 -20 -10 -20 -15 0 -6 -15 -27 -32
-48 -18 -20 -38 -45 -45 -56 -10 -18 -11 -18 -18 -1 -14 33 5 90 42 124 34 33
37 33 109 30 41 -2 79 -8 85 -14z m2270 -48 c-12 -25 -30 -49 -39 -54 -30 -15
-72 -22 -72 -11 0 5 11 12 25 16 14 3 25 10 25 15 0 5 10 14 23 20 13 6 28 24
35 42 6 17 15 28 19 24 3 -4 -4 -27 -16 -52z m-2072 34 c48 -2 69 -14 36 -21
-10 -2 -12 -8 -6 -17 11 -17 30 -6 42 26 13 34 62 30 67 -6 2 -13 -1 -28 -7
-34 -6 -6 -11 -20 -10 -31 0 -20 1 -20 11 2 19 39 43 27 39 -20 -1 -9 3 -20
10 -24 9 -5 10 -1 7 14 -4 15 -2 22 8 22 18 0 18 -24 -1 -40 -8 -7 -15 -9 -15
-4 0 4 -5 3 -12 -4 -17 -17 -58 -15 -58 3 0 12 -5 13 -24 3 -37 -16 -56 -4
-56 37 0 35 -6 39 -42 36 -10 -1 -18 2 -18 8 0 6 -9 15 -19 21 -28 15 -90 -21
-91 -53 0 -4 9 -3 19 3 11 5 27 8 35 5 9 -3 23 -7 31 -10 24 -7 -2 -43 -44
-61 -37 -16 -55 -10 -48 15 3 14 -1 17 -18 13 -32 -6 -39 12 -24 64 15 50 42
65 84 46 18 -9 25 -8 29 4 3 9 10 13 15 10 4 -3 31 -6 60 -7z m380 5 c37 -8
39 -16 9 -29 -13 -6 -24 -20 -26 -32 -4 -26 1 -28 27 -11 25 16 51 3 51 -25 0
-17 -10 -27 -36 -39 -32 -15 -41 -15 -85 -2 -50 15 -74 41 -63 68 3 9 15 16
25 16 10 0 19 6 19 14 0 16 26 46 39 46 5 0 23 -3 40 -6z m-9842 -106 c-2 -13
-4 -5 -4 17 -1 22 1 32 4 23 2 -10 2 -28 0 -40z m9136 -3 c-1 -16 3 -32 9 -36
15 -10 -29 -32 -49 -25 -12 5 -14 15 -8 44 9 47 13 54 33 50 12 -3 16 -13 15
-33z m57 -36 c0 -11 -4 -19 -9 -19 -16 0 -33 30 -27 46 5 13 9 14 21 4 8 -7
15 -21 15 -31z m-926 -5 c3 -9 6 -57 6 -109 0 -83 2 -93 19 -98 18 -4 189 7
297 19 47 6 53 16 55 99 l1 50 10 -55 c9 -52 12 -109 6 -115 -5 -5 -283 -25
-346 -25 -56 0 -62 2 -66 23 -9 41 -17 208 -11 217 9 15 22 12 29 -6z m773
-26 c-3 -8 -6 -5 -6 6 -1 11 2 17 5 13 3 -3 4 -12 1 -19z m1750 0 c38 -79 28
-88 -95 -81 -53 3 -106 5 -117 6 -52 2 -85 -4 -100 -19 -18 -19 -80 -23 -96
-7 -17 17 -2 33 30 33 15 0 49 7 76 16 34 12 53 14 65 7 10 -7 53 -9 109 -5
83 4 94 7 101 26 4 12 5 27 3 34 -9 22 13 13 24 -10z m-10459 -13 c3 -3 -8 -5
-24 -5 -17 0 -35 -5 -42 -12 -9 -9 -13 -7 -18 6 -9 25 12 36 49 25 16 -5 32
-11 35 -14z m-318 -8 c0 -18 -47 -40 -55 -27 -4 6 -22 10 -41 10 l-35 0 3
-112 3 -113 58 3 c33 1 57 -2 57 -8 0 -6 -28 -10 -64 -10 l-63 0 -7 103 c-4
56 -10 112 -13 124 -7 29 22 42 100 42 41 1 57 -3 57 -12z m390 3 c0 -5 -11
-10 -24 -10 -14 0 -28 5 -31 10 -4 6 7 10 24 10 17 0 31 -4 31 -10z m9390 -50
c11 0 20 -7 20 -15 0 -18 -27 -20 -44 -2 -8 7 -16 29 -20 48 l-6 34 15 -32
c10 -21 22 -33 35 -33z m145 -1 c0 -42 -2 -44 -30 -47 -41 -3 -56 9 -58 49 -2
31 1 34 33 40 52 9 55 6 55 -42z m-495 10 c6 -10 8 -30 4 -44 -5 -21 -12 -25
-45 -25 -42 0 -44 3 -52 60 l-5 35 44 -4 c31 -2 47 -9 54 -22z m249 4 c15 -33
6 -59 -22 -67 -38 -10 -46 -7 -62 24 -23 45 -13 65 34 66 32 1 41 -3 50 -23z
m-629 -25 c0 -10 -4 -18 -10 -18 -5 0 -10 15 -10 33 0 24 3 28 10 17 5 -8 10
-23 10 -32z m131 8 c12 -43 -5 -66 -47 -66 -37 0 -43 8 -47 55 -2 25 2 30 28
36 47 11 58 6 66 -25z m-8925 9 c12 -31 9 -128 -3 -132 -24 -8 -44 88 -27 131
8 20 23 21 30 1z m9264 -5 c27 -27 26 -43 -2 -34 -25 8 -49 34 -42 46 8 13 23
9 44 -12z m210 -11 c0 -10 -7 -19 -15 -19 -15 0 -21 31 -9 43 11 10 24 -3 24
-24z m-9790 1 c0 -5 -5 -10 -11 -10 -5 0 -7 5 -4 10 3 6 8 10 11 10 2 0 4 -4
4 -10z m65 -24 c8 -41 3 -81 -10 -81 -12 0 -24 57 -18 90 7 35 21 31 28 -9z
m10159 -9 c22 -9 20 -27 -3 -27 -20 0 -31 19 -30 53 l0 22 9 -21 c4 -12 15
-24 24 -27z m-4291 -42 c11 -10 17 -49 22 -132 3 -65 8 -130 10 -145 2 -16 -1
-28 -6 -28 -5 0 -9 15 -10 33 0 17 -5 41 -10 52 -10 23 -6 -59 8 -142 6 -31 6
-53 0 -53 -16 0 -35 -27 -48 -68 -10 -34 -17 -42 -36 -42 -13 0 -22 -4 -18 -9
13 -22 -15 -19 -39 4 -15 14 -30 25 -34 25 -14 -1 -42 -27 -35 -33 3 -4 -3 -7
-14 -7 -11 0 -25 -10 -31 -25 -16 -34 -46 -34 -40 0 7 33 -27 177 -35 150 -9
-30 7 -213 19 -225 8 -8 55 -8 155 -3 l144 8 -4 83 c-3 77 -2 84 15 80 17 -3
19 -15 22 -95 l3 -91 -48 -6 c-101 -12 -269 -16 -298 -8 -22 6 -31 15 -32 33
-6 66 -12 109 -17 117 -3 5 -17 10 -31 10 -32 0 -42 9 -27 24 10 10 17 10 31
1 28 -18 41 3 41 64 l0 54 -30 -16 c-28 -15 -30 -14 -30 3 0 23 19 42 42 42
10 0 18 5 18 10 0 6 -4 10 -10 10 -15 0 -12 26 5 40 8 6 13 17 12 23 -1 6 5
12 13 12 8 1 14 6 12 13 -1 7 4 27 11 45 7 17 11 43 7 57 -3 14 -4 38 -2 53
l5 29 113 -4 c105 -3 136 -9 121 -24 -3 -3 -30 -10 -59 -14 -29 -4 -42 -9 -28
-10 14 -1 31 -2 38 -1 19 3 42 -18 42 -38 0 -10 8 -26 18 -37 14 -14 16 -23 9
-35 -6 -9 -7 -25 -2 -35 6 -15 9 -11 15 21 11 56 5 184 -9 198 -6 6 -35 10
-69 8 -31 -1 -86 -4 -122 -5 -124 -6 -111 6 -106 -96 4 -82 3 -90 -14 -90 -11
0 -22 6 -27 13 -8 12 -6 139 3 168 6 22 46 30 184 39 63 4 127 7 142 8 15 1
33 -5 41 -13z m1401 -57 c21 -97 36 -443 21 -467 -3 -6 -16 -11 -28 -11 -16 1
-37 23 -80 88 -73 107 -166 236 -175 240 -4 1 -5 -74 -4 -168 l4 -170 -30 0
-30 0 -7 103 c-3 56 -5 167 -3 247 3 136 4 145 23 148 12 2 26 -7 35 -22 22
-35 185 -266 209 -296 l21 -25 -7 164 c-6 152 -5 165 12 177 26 19 34 17 39
-8z m-3276 -43 c-4 -49 -10 -60 -55 -107 -27 -30 -52 -60 -55 -68 -4 -12 -10
-13 -24 -4 -23 13 -29 68 -15 134 l9 45 1 -53 c1 -30 4 -52 9 -50 4 2 21 10
37 18 38 19 42 24 61 88 21 69 38 68 32 -3z m1460 28 c-2 -17 -10 -29 -20 -31
-14 -3 -18 3 -18 27 0 25 4 31 21 31 16 0 20 -5 17 -27z m1417 -10 c16 -55 21
-306 8 -353 -33 -118 -198 -166 -285 -84 -55 53 -59 70 -61 267 l-2 182 25 0
25 0 8 -140 c11 -199 14 -215 47 -254 25 -29 32 -32 44 -21 10 8 28 10 50 6
30 -6 37 -3 61 26 l28 33 -7 163 c-7 170 -2 202 33 202 12 0 22 -10 26 -27z
m-449 -9 c46 -22 78 -83 71 -137 -6 -42 -27 -71 -69 -93 -16 -8 -28 -20 -28
-26 0 -6 26 -49 57 -96 46 -67 55 -87 46 -100 -17 -28 -46 -25 -65 5 -31 53
-120 178 -132 185 -15 10 -84 10 -90 0 -3 -5 -1 -46 3 -92 10 -91 0 -130 -30
-130 -10 0 -22 8 -27 18 -6 9 -13 119 -17 244 -8 264 -25 235 138 237 82 1
118 -3 143 -15z m-6127 -3 c22 -14 3 -31 -35 -31 -39 0 -45 16 -11 30 28 11
29 11 46 1z m2141 -65 c0 -63 0 -63 -50 -110 -35 -33 -57 -46 -73 -44 -20 3
-22 8 -22 72 l0 70 35 3 c24 3 44 14 65 38 17 19 33 34 38 34 4 1 7 -28 7 -63z
m-2118 22 c-8 -8 -9 -4 -5 13 4 13 8 18 11 10 2 -7 -1 -18 -6 -23z m1397 -104
c1 -71 -1 -77 -28 -105 -16 -16 -36 -29 -44 -29 -9 0 -31 19 -50 42 -27 32
-33 46 -26 60 5 9 9 34 10 55 1 32 2 34 8 13 4 -16 9 -21 14 -13 4 7 14 10 22
7 8 -4 24 5 37 20 42 47 56 36 57 -50z m2920 -3 c45 -52 61 -77 61 -99 0 -27
-4 -31 -46 -41 -128 -32 -669 -38 -707 -7 -8 6 -17 31 -20 56 -5 41 -2 47 26
70 l30 24 -17 -29 c-12 -20 -2 -13 28 20 46 50 47 50 134 61 48 6 168 12 268
13 l181 1 62 -69z m-3872 32 c4 -10 13 -24 20 -31 10 -10 15 -8 29 13 11 16
24 24 40 23 20 -2 24 -8 24 -37 0 -27 -9 -43 -49 -82 -26 -27 -55 -49 -63 -49
-28 0 -41 44 -33 114 6 65 19 83 32 49z m2751 -25 c30 -25 41 -42 45 -71 14
-99 -49 -167 -155 -167 -32 0 -47 7 -74 34 -28 28 -34 42 -35 78 -2 67 -1 70
46 116 38 37 50 42 88 42 36 0 53 -7 85 -32z m-821 6 c-3 -3 -12 -4 -19 -1 -8
3 -5 6 6 6 11 1 17 -2 13 -5z m374 -59 c63 -66 82 -98 74 -125 -7 -23 -44 -35
-80 -26 -30 8 -107 -3 -100 -14 3 -4 -3 -11 -13 -15 -23 -9 -491 -6 -527 4
-16 4 -38 19 -49 34 -21 28 -21 24 19 98 20 35 45 57 45 38 0 -8 11 -2 25 13
37 40 40 41 361 46 l190 4 55 -57z m-2761 -4 c0 -25 -14 -41 -36 -41 -25 0
-28 7 -18 34 6 17 54 23 54 7z m-160 -37 c0 -21 -4 -33 -10 -29 -5 3 -10 19
-10 36 0 16 5 29 10 29 6 0 10 -16 10 -36z m11666 5 c31 -26 41 -160 49 -654
3 -170 8 -332 11 -360 3 -27 9 -192 14 -365 10 -328 22 -657 41 -1115 7 -148
14 -344 16 -435 6 -218 11 -211 -153 -218 l-119 -5 27 22 c14 11 31 21 36 21
18 0 0 41 -22 50 -12 4 -28 15 -35 24 -18 21 -31 20 -32 -1 0 -15 -3 -14 -16
4 -8 13 -23 23 -32 23 -10 0 -35 16 -56 36 -47 42 -67 54 -94 54 -12 0 -21 6
-21 14 0 7 -9 16 -21 19 -12 3 -18 10 -15 15 3 6 1 12 -6 14 -6 2 -13 13 -14
24 -1 10 -5 41 -9 68 -3 27 -9 54 -14 60 -14 19 -24 69 -27 141 -3 77 10 148
37 211 16 39 16 44 1 65 -8 12 -10 19 -4 15 18 -11 52 17 52 42 0 13 5 32 11
44 14 26 3 36 -21 20 -30 -18 -37 -15 -44 22 -9 45 -24 56 -75 53 -39 -2 -46
1 -62 27 -10 17 -17 32 -15 34 3 2 24 6 48 8 69 7 71 9 64 56 -4 22 -10 46
-13 52 -4 6 -6 25 -4 43 1 19 -2 33 -8 33 -15 0 -14 27 1 32 9 3 9 18 0 62
-12 57 -6 142 9 152 5 3 9 14 9 25 0 10 4 19 9 19 5 0 11 10 13 23 2 14 11 23
26 25 12 2 22 8 22 13 0 5 7 9 15 9 20 0 19 18 -5 68 -11 22 -20 50 -20 61 0
27 -17 35 -23 11 -15 -57 -47 12 -47 101 0 48 -4 60 -20 69 -11 6 -20 15 -20
21 0 6 -10 25 -22 41 -20 29 -20 31 -4 44 21 15 11 38 -14 31 -22 -6 -74 35
-68 53 3 10 7 10 19 -2 8 -9 30 -19 47 -23 30 -6 32 -5 32 20 0 14 -4 24 -9
20 -5 -3 -17 2 -26 11 -19 19 -33 11 -16 -10 8 -10 9 -16 1 -21 -5 -3 -10 -1
-10 5 0 6 -11 15 -25 20 -14 5 -25 17 -25 26 0 10 5 14 15 10 11 -4 15 2 15
24 0 23 -5 31 -23 35 -28 7 -31 35 -5 53 10 7 18 20 18 28 0 8 9 14 21 14 14
0 19 5 17 18 -2 10 -13 17 -28 17 -21 0 -26 6 -33 44 -5 25 -5 47 0 52 5 5 45
22 89 37 l79 27 6 90 c4 50 4 96 1 104 -4 11 -27 12 -115 7 -61 -3 -112 -8
-114 -10 -2 -2 5 -14 16 -27 11 -13 20 -21 21 -16 0 4 13 1 30 -8 16 -8 48
-15 71 -15 l43 0 -21 -20 c-12 -10 -33 -22 -47 -26 -18 -4 -25 -12 -23 -26 3
-25 -45 -56 -88 -57 -32 -1 -132 32 -149 49 -5 5 -20 10 -32 10 -12 0 -27 7
-34 15 -17 21 -25 19 -45 -11 -11 -17 -13 -29 -7 -37 5 -7 14 -34 20 -60 9
-43 8 -51 -9 -65 -17 -15 -17 -16 7 -41 14 -13 22 -31 19 -39 -3 -7 -5 -32 -6
-55 0 -33 -2 -38 -9 -22 -5 11 -9 35 -9 53 -1 31 -21 47 -21 16 0 -8 -4 -12
-10 -9 -5 3 -11 -4 -11 -17 -5 -95 4 -532 17 -813 20 -446 20 -452 34 -865 6
-195 14 -413 18 -484 8 -149 16 -139 -107 -151 -48 -5 -69 -10 -60 -16 8 -5
12 -9 9 -10 -3 0 -16 -3 -30 -5 -17 -3 -29 2 -41 18 -14 18 -20 20 -32 9 -9
-7 -47 -13 -89 -14 l-73 -2 -1 60 c-1 33 -5 150 -9 260 -4 110 -9 274 -12 365
-2 91 -6 201 -9 245 -2 44 -9 175 -14 290 -15 310 -16 335 -23 341 -4 4 -9 -1
-13 -10 -9 -22 -24 -10 -24 20 0 21 4 24 20 19 15 -5 20 -2 20 14 0 34 -23
121 -32 121 -5 0 -7 -4 -3 -10 3 -5 -1 -26 -10 -47 -9 -21 -13 -49 -10 -63 l6
-25 -16 23 c-10 14 -15 35 -13 52 3 16 1 31 -2 32 -11 5 -20 107 -9 113 5 4 9
-13 9 -40 0 -33 4 -45 13 -43 6 3 14 15 16 29 1 13 8 27 13 30 17 11 1 39 -22
39 -15 0 -20 6 -20 28 0 21 2 24 10 12 7 -12 13 -13 27 -3 10 6 16 17 13 25
-2 7 -4 52 -4 99 0 67 -3 86 -13 82 -7 -3 -10 -10 -6 -17 4 -6 0 -6 -9 2 -15
12 -16 9 -11 -27 7 -53 -2 -78 -22 -61 -12 10 -15 36 -15 114 0 144 -7 232
-22 256 -11 19 -10 24 10 37 23 16 31 38 10 30 -17 -6 -18 339 -1 368 11 19
12 18 24 -10 7 -17 14 -31 15 -33 1 -2 14 9 29 23 24 25 31 27 78 21 l52 -7 0
66 c-1 36 3 65 7 65 7 0 3 58 -8 107 -2 13 3 39 11 59 8 21 13 40 9 43 -14 14
235 28 411 23 439 -11 769 -2 793 23 10 10 123 -3 138 -16z m-11851 4 c-63 -5
-85 -12 -80 -26 3 -9 12 -131 15 -194 0 -8 21 -13 58 -15 81 -4 71 -22 -14
-26 l-71 -3 -7 38 c-8 49 -8 128 0 187 l7 46 66 -2 c42 -1 51 -3 26 -5z
m10489 -8 c0 -5 -25 -12 -55 -13 -30 -2 -55 -5 -56 -6 -2 -1 0 -62 4 -136 5
-112 9 -135 25 -149 19 -17 24 -41 8 -41 -8 0 -78 16 -118 26 -10 3 -10 9 -2
24 6 11 15 18 20 15 14 -9 52 14 44 26 -6 10 -125 5 -183 -7 l-24 -5 7 -137
c3 -75 8 -281 11 -457 3 -176 10 -367 15 -425 12 -139 19 -306 25 -645 3 -154
10 -338 16 -410 5 -71 13 -218 17 -325 l7 -195 53 -3 c28 -2 52 -7 52 -12 0
-14 -40 -22 -86 -18 l-39 3 -6 135 c-3 74 -11 234 -18 355 -6 121 -16 378 -22
570 -5 193 -14 424 -19 514 -14 251 -32 1064 -23 1071 5 4 54 13 111 20 l102
12 1 97 c1 53 1 101 0 108 -1 6 13 14 31 16 53 7 103 3 102 -8z m-8979 -5 c3
-5 -3 -10 -14 -10 -12 0 -21 5 -21 10 0 6 6 10 14 10 8 0 18 -4 21 -10z m7559
-41 c-12 -20 -20 -7 -16 23 5 31 5 31 13 9 5 -12 7 -27 3 -32z m-8616 12 c5
-30 -18 -24 -29 8 -7 18 -6 22 9 19 9 -2 19 -14 20 -27z m8422 -10 c6 -12 10
-98 10 -210 l0 -191 -77 1 -78 1 62 12 c34 6 64 14 68 17 3 4 3 86 -1 183 l-7
176 -108 0 c-112 0 -152 16 -56 23 145 10 176 8 187 -12z m-8589 -28 c4 -21 2
-39 -7 -50 -7 -10 -14 -26 -14 -35 0 -20 -35 -25 -45 -7 -4 6 -7 26 -7 46 0
26 -5 37 -19 40 -28 8 -23 31 9 36 60 10 76 4 83 -30z m7884 2 c0 -5 -31 -13
-68 -17 -66 -6 -104 -18 -58 -18 13 0 26 -9 33 -25 6 -13 19 -27 28 -30 32
-10 44 -58 28 -107 -18 -52 -43 -62 -53 -20 -3 17 -15 38 -26 48 -10 9 -19 28
-19 40 0 17 -4 22 -16 17 -14 -5 -16 2 -13 46 3 31 0 50 -6 48 -5 -2 -12 -39
-15 -83 -5 -73 -6 -77 -18 -51 -6 16 -12 60 -12 98 l0 70 108 -3 c63 -2 107
-7 107 -13z m-2730 -55 c3 -5 2 -10 -4 -10 -5 0 -13 5 -16 10 -3 6 -2 10 4 10
5 0 13 -4 16 -10z m2715 -10 c-11 -21 -19 -24 -44 -14 -24 9 -1 34 31 34 21 0
22 -3 13 -20z m610 -15 c14 -17 4 -55 -15 -55 -20 0 -28 17 -21 46 7 27 18 30
36 9z m-8426 -71 c24 -9 8 -24 -26 -24 -26 0 -29 2 -18 15 14 17 21 18 44 9z
m5524 -16 c-2 -17 -12 -25 -38 -30 -19 -3 -51 -11 -70 -16 -23 -6 -45 -5 -60
1 -22 10 -18 12 35 17 70 8 95 17 95 36 0 8 9 14 21 14 15 0 20 -5 17 -22z
m2898 3 c-4 -5 -2 -11 4 -13 14 -5 0 -48 -16 -48 -18 0 -19 56 -1 63 18 8 19
8 13 -2z m-8566 -11 c0 -5 -4 -10 -10 -10 -5 0 -10 5 -10 10 0 6 5 10 10 10 6
0 10 -4 10 -10z m7802 -112 l3 -93 88 -3 c120 -4 111 -22 -12 -22 l-99 0 -7
48 c-10 79 -3 162 15 162 5 0 11 -42 12 -92z m4103 -38 c3 -5 1 -10 -4 -10 -6
0 -11 5 -11 10 0 6 2 10 4 10 3 0 8 -4 11 -10z m-2120 -30 c0 -21 -6 -26 -37
-31 -38 -6 -38 -6 -38 28 0 33 1 34 38 31 32 -3 37 -6 37 -28z m-9590 10 c20
-1 20 -1 1 -15 -23 -17 -62 -20 -71 -5 -10 17 6 32 29 26 11 -3 30 -6 41 -6z
m9340 -20 c0 -23 -3 -25 -35 -21 -38 3 -51 16 -43 38 4 9 18 13 42 11 31 -3
36 -6 36 -28z m2330 -16 c18 5 25 1 30 -14 3 -11 13 -20 20 -20 8 0 19 -9 25
-21 7 -12 18 -18 26 -15 8 3 26 -1 39 -10 14 -9 31 -14 38 -11 11 4 14 -8 14
-51 0 -32 -2 -51 -4 -44 -3 6 -8 12 -12 12 -12 0 -81 -67 -81 -78 0 -24 -39
-51 -78 -55 l-42 -4 -1 86 c-1 89 -7 232 -10 247 -1 5 0 14 1 19 2 6 5 -3 7
-18 4 -25 8 -28 28 -23z m-2827 5 c3 -24 0 -26 -44 -27 -39 -2 -45 0 -40 14 3
8 6 19 6 24 0 9 35 18 60 16 8 -1 16 -13 18 -27z m252 12 c0 -10 -7 -24 -15
-31 -12 -10 -16 -8 -24 11 l-10 24 0 -23 c-1 -32 -25 -23 -29 11 -3 25 -1 27
37 27 33 0 41 -3 41 -19z m-9435 -11 c-28 -12 -47 -12 -40 0 3 6 18 10 33 9
24 0 25 -1 7 -9z m9065 -20 c0 -11 -7 -20 -15 -20 -8 0 -15 9 -15 20 0 11 7
20 15 20 8 0 15 -9 15 -20z m-8788 -81 c-3 -74 -8 -93 -22 -84 -11 7 -14 138
-3 149 18 18 28 -6 25 -65z m-388 -52 c3 -62 2 -96 -4 -92 -6 3 -10 49 -10
102 0 53 2 94 4 92 3 -2 7 -48 10 -102z m136 62 c0 -16 -4 -29 -10 -29 -5 0
-10 16 -10 36 0 21 4 33 10 29 6 -3 10 -19 10 -36z m9630 -35 c0 -26 -11 -30
-41 -13 -19 10 -19 11 3 29 27 22 38 17 38 -16z m253 17 c3 -11 2 -22 -1 -25
-9 -10 -50 -7 -57 4 -3 6 -1 10 5 10 6 0 9 4 6 9 -6 9 8 19 30 20 7 1 14 -8
17 -18z m-503 -10 c0 -20 -32 -37 -50 -26 -17 10 -11 25 10 25 11 0 20 5 20
10 0 6 5 10 10 10 6 0 10 -9 10 -19z m-700 -1 c0 -10 -33 -21 -74 -25 -11 -1
-24 -3 -28 -4 -3 0 -4 -9 -1 -19 4 -16 -2 -19 -42 -19 -27 0 -41 4 -33 9 10 6
8 8 -4 8 -20 0 -24 30 -8 46 14 14 190 17 190 4z m450 -15 c0 -10 -10 -15 -30
-15 -47 0 -35 27 13 29 9 1 17 -6 17 -14z m-795 -6 c2 -3 -4 -15 -15 -27 -25
-27 -25 -32 0 -32 20 0 38 -25 27 -36 -3 -3 -20 -7 -38 -7 -30 -2 -34 1 -39
28 -4 24 -11 30 -30 31 -14 0 -45 4 -68 8 -42 8 -43 7 -33 -13 11 -19 9 -21
-14 -21 -14 0 -25 -4 -25 -10 0 -5 -25 -22 -56 -37 -58 -28 -158 -116 -189
-165 -10 -16 -22 -28 -27 -28 -5 0 -6 5 -3 10 3 6 1 10 -4 10 -19 0 -12 71 10
101 24 34 16 39 -11 7 l-19 -23 1 30 c1 17 -1 44 -5 61 -7 27 -3 36 32 72 l41
42 105 -1 c59 -1 108 1 110 2 6 6 244 4 250 -2z m115 -9 c0 -5 -4 -10 -10 -10
-5 0 -10 5 -10 10 0 6 5 10 10 10 6 0 10 -4 10 -10z m280 0 c12 -6 21 -26 26
-55 7 -51 2 -64 -21 -45 -13 11 -14 8 -9 -19 6 -29 4 -31 -21 -31 -18 0 -28 6
-32 19 -5 19 -42 41 -68 41 -8 0 -15 7 -15 15 0 8 5 15 10 15 6 0 10 7 10 16
0 12 8 15 33 12 23 -2 32 1 32 12 0 8 7 18 15 22 21 9 19 9 40 -2z m-5852 -27
c-10 -2 -26 -2 -35 0 -10 3 -2 5 17 5 19 0 27 -2 18 -5z m-330 -10 c-10 -2
-28 -2 -40 0 -13 2 -5 4 17 4 22 1 32 -1 23 -4z m150 0 c-10 -2 -26 -2 -35 0
-10 3 -2 5 17 5 19 0 27 -2 18 -5z m4518 -45 c119 -109 174 -165 174 -178 0
-8 -42 27 -92 76 -51 49 -108 102 -125 116 -18 15 -33 29 -33 32 0 16 24 1 76
-46z m2398 27 c-4 -8 -8 -15 -10 -15 -2 0 -4 7 -4 15 0 8 4 15 10 15 5 0 7 -7
4 -15z m254 3 c-3 -7 -13 -15 -24 -17 -16 -3 -17 -1 -5 13 16 19 34 21 29 4z
m-3100 -4 c12 -4 22 -12 22 -19 0 -8 22 -15 59 -19 145 -16 296 -84 394 -176
36 -33 68 -72 71 -86 4 -13 11 -22 16 -19 6 3 10 4 10 1 0 -2 3 -12 7 -22 4
-12 3 -15 -6 -10 -7 4 -24 9 -38 11 -14 1 -40 17 -57 34 -52 53 -106 84 -122
70 -11 -9 -18 -9 -29 1 -8 7 -13 15 -11 19 2 3 -2 11 -9 18 -10 10 -14 9 -19
-2 -2 -7 0 -16 7 -19 7 -2 2 -5 -9 -5 -12 -1 -27 6 -34 14 -10 12 -10 15 0 15
8 0 11 3 8 6 -10 9 -119 10 -125 1 -5 -8 -96 -1 -136 9 -13 4 -16 0 -15 -16 2
-14 -6 -26 -26 -38 -16 -9 -40 -27 -54 -39 -14 -13 -30 -23 -36 -24 -6 0 -21
-2 -32 -3 -23 -3 -24 0 -41 137 -3 26 -10 50 -14 53 -5 3 -21 -4 -35 -15 -15
-12 -33 -21 -42 -21 -30 0 -196 -182 -241 -262 -41 -75 -75 -176 -84 -248 -2
-19 -5 -4 -5 35 -2 59 3 84 35 165 20 52 52 120 71 150 45 72 155 179 217 210
27 14 72 38 100 54 27 16 61 32 75 37 31 9 97 11 128 3z m-6478 -36 c-13 -5
-25 -6 -29 -3 -9 10 21 24 37 17 12 -4 10 -7 -8 -14z m857 6 c-3 -3 -12 -4
-19 -1 -8 3 -5 6 6 6 11 1 17 -2 13 -5z m11043 -20 c0 -8 -4 -14 -10 -14 -5 0
-10 5 -10 11 0 8 -4 8 -14 0 -10 -8 -16 -9 -21 -1 -3 5 4 14 17 19 27 10 38 6
38 -15z m-12283 10 c-3 -3 -12 -4 -19 -1 -8 3 -5 6 6 6 11 1 17 -2 13 -5z
m8861 -85 l-4 -34 -13 27 c-8 15 -11 35 -7 44 11 28 28 1 24 -37z m3414 34
c19 -17 24 -58 8 -68 -5 -3 -10 -24 -10 -46 0 -27 -4 -39 -14 -39 -21 0 -30
-20 -17 -33 14 -14 15 -47 1 -47 -5 0 -10 6 -10 14 0 15 -85 51 -100 41 -6 -4
-10 4 -10 18 0 14 7 27 15 31 8 3 15 13 15 23 0 15 1 15 14 -2 13 -18 15 -17
47 15 27 27 33 40 33 72 -2 43 2 45 28 21z m-11743 3 c-10 -8 -119 -14 -119
-5 0 5 28 9 62 9 34 0 59 -2 57 -4z m5143 -98 c3 -35 1 -72 -3 -83 -9 -22 -10
-18 -13 40 -6 95 6 86 -103 79 -67 -4 -95 -3 -88 4 11 11 56 18 146 20 l57 2
4 -62z m2832 36 c9 -23 8 -24 -19 -24 -23 0 -24 2 -15 20 13 24 26 26 34 4z
m-3072 -6 c-7 -7 -12 -39 -12 -72 0 -43 -3 -57 -10 -46 -5 8 -10 41 -10 73 0
52 2 57 22 57 17 0 19 -3 10 -12z m5432 -13 c-4 -8 -8 -15 -10 -15 -2 0 -4 7
-4 15 0 8 4 15 10 15 5 0 7 -7 4 -15z m-5260 -20 c9 -23 -32 -37 -78 -28 -50
11 -58 30 -14 36 69 8 86 7 92 -8z m1423 -11 c-3 -3 -12 -4 -19 -1 -8 3 -5 6
6 6 11 1 17 -2 13 -5z m-1847 -19 c11 -13 10 -18 -6 -30 -10 -8 -25 -12 -33
-9 -10 3 -11 1 -3 -9 6 -7 14 -57 18 -112 6 -92 5 -102 -14 -125 -15 -18 -24
-22 -32 -14 -13 13 -21 264 -8 264 5 0 6 5 3 10 -3 6 0 10 8 10 8 0 20 7 27
15 16 19 24 19 40 0z m418 -38 c6 -7 9 -23 6 -34 -5 -18 -9 -20 -24 -11 -12 8
-29 8 -61 0 -24 -6 -45 -10 -46 -8 -9 8 25 56 42 59 42 9 73 6 83 -6z m1362
-41 c0 -16 -7 -26 -22 -29 -24 -7 -41 3 -20 10 6 3 10 9 6 14 -7 13 4 29 22
29 8 0 14 -10 14 -24z m-500 -1 c0 -9 -16 -33 -36 -53 -20 -20 -46 -57 -57
-82 -13 -30 -22 -39 -24 -28 -6 23 54 134 84 158 31 24 33 24 33 5z m301 -42
c1 -5 -6 -9 -17 -10 -10 -2 -13 0 -6 3 6 3 9 10 6 16 -4 6 -2 8 3 4 6 -3 12
-9 14 -13z m-2426 -13 c3 -5 -1 -25 -10 -44 -9 -19 -14 -40 -10 -45 11 -18
-17 -12 -31 7 -16 21 -17 47 -4 73 11 20 45 26 55 9z m-81 -15 c-4 -8 -8 -15
-10 -15 -2 0 -4 7 -4 15 0 8 4 15 10 15 5 0 7 -7 4 -15z m294 -27 c4 -42 2
-43 -100 -53 l-68 -7 0 46 0 45 58 4 c105 7 107 6 110 -35z m2526 27 c-4 -8
-8 -15 -10 -15 -2 0 -4 7 -4 15 0 8 4 15 10 15 5 0 7 -7 4 -15z m2544 -17 c5
-13 9 -76 11 -140 l2 -118 -70 0 c-56 0 -71 3 -71 15 0 12 13 15 55 15 l55 0
0 89 c0 116 -2 121 -54 121 -46 0 -81 15 -56 24 27 9 55 14 88 15 25 1 34 -4
40 -21z m-6620 -66 c2 -39 -1 -62 -8 -62 -5 0 -10 8 -11 18 0 9 -1 38 -2 65
-1 27 2 46 8 44 6 -2 11 -31 13 -65z m647 17 c5 -33 3 -55 -4 -62 -8 -8 -11 0
-11 29 0 21 -3 49 -6 62 -4 12 -2 22 4 22 6 0 13 -23 17 -51z m2017 29 c-7 -7
-12 -8 -12 -2 0 14 12 26 19 19 2 -3 -1 -11 -7 -17z m-2912 -53 c0 -53 -3 -65
-16 -65 -14 0 -15 7 -10 38 3 20 6 49 6 65 0 15 5 27 10 27 6 0 10 -28 10 -65z
m2710 56 c0 -9 -24 -21 -41 -21 -5 0 -9 7 -9 15 0 9 9 15 25 15 14 0 25 -4 25
-9z m1710 -11 c0 -5 -4 -10 -10 -10 -5 0 -10 5 -10 10 0 6 5 10 10 10 6 0 10
-4 10 -10z m-6059 -22 c14 -26 7 -140 -8 -146 -10 -3 -13 13 -13 55 0 81 -4
85 -89 82 -68 -3 -71 -4 -69 -27 2 -16 -5 -29 -19 -39 -22 -15 -23 -15 -23 21
0 20 -4 36 -10 36 -6 0 -10 -32 -10 -75 0 -59 -3 -75 -14 -75 -17 0 -29 63
-24 130 l3 45 90 5 c149 9 176 8 186 -12z m1007 0 c5 -54 3 -128 -3 -139 -15
-23 -22 9 -17 84 4 73 15 104 20 55z m45 15 c-7 -2 -19 -2 -25 0 -7 3 -2 5 12
5 14 0 19 -2 13 -5z m64 1 c-3 -3 -12 -4 -19 -1 -8 3 -5 6 6 6 11 1 17 -2 13
-5z m66 -1 c-7 -2 -21 -2 -30 0 -10 3 -4 5 12 5 17 0 24 -2 18 -5z m71 -9 c10
-27 7 -126 -4 -119 -5 3 -10 33 -10 65 0 47 -3 59 -17 63 -14 4 -13 5 3 6 12
0 25 -6 28 -15z m1036 -35 c0 -24 -4 -38 -10 -34 -5 3 -10 24 -10 46 0 24 4
38 10 34 6 -3 10 -24 10 -46z m3584 19 c-1 -18 -3 -40 -3 -47 -1 -11 -4 -12
-12 -4 -7 7 -9 22 -4 40 5 15 8 31 7 36 -1 4 2 7 7 7 5 0 7 -15 5 -32z m-5384
10 c-119 -17 -110 -11 -110 -78 0 -33 -4 -60 -10 -60 -14 0 -13 123 2 138 8 8
43 12 98 11 l85 -2 -65 -9z m7898 -93 l0 -50 -13 30 c-15 33 -20 97 -8 109 11
11 21 -31 21 -89z m-7759 3 c1 -21 -3 -38 -9 -38 -6 0 -10 27 -9 63 1 46 3 56
9 37 4 -14 8 -42 9 -62z m5890 60 c7 -19 2 -27 -28 -48 -63 -46 -69 -45 -73
10 -3 46 -1 49 22 53 59 9 71 7 79 -15z m2371 -14 c12 -30 14 -161 3 -150 -5
4 -15 40 -23 79 l-15 72 -90 -3 c-128 -5 -129 -5 -121 -59 6 -49 -1 -93 -15
-93 -6 0 -9 36 -7 83 l3 82 115 6 c63 3 121 6 128 7 7 1 17 -10 22 -24z
m-4402 -16 c3 -24 2 -24 -63 -24 -36 1 -65 5 -65 11 1 23 18 34 60 37 62 6 65
5 68 -24z m-2020 10 c-5 -13 -92 -41 -116 -36 -10 2 -17 10 -17 18 0 11 16 17
60 21 33 3 64 6 68 7 5 1 7 -3 5 -10z m5851 -36 c1 -7 -3 -10 -9 -7 -5 3 -10
18 -9 33 0 24 1 25 9 7 5 -11 9 -26 9 -33z m-79 28 c0 -5 -2 -10 -4 -10 -3 0
-8 5 -11 10 -3 6 -1 10 4 10 6 0 11 -4 11 -10z m-8887 -79 c3 -43 2 -94 -3
-112 -7 -33 -7 -33 -14 -9 -3 14 -7 59 -8 100 l-3 75 -80 -2 c-44 0 -120 -2
-170 -2 -129 -2 -125 1 -125 -85 0 -71 -10 -96 -38 -96 -8 0 -10 5 -5 13 4 6
10 50 13 97 l5 85 50 6 c28 3 122 7 211 7 l161 2 6 -79z m5736 70 c2 0 -3 -8
-10 -18 -9 -10 -14 -41 -14 -82 0 -52 -3 -66 -15 -66 -11 0 -16 14 -18 53 -3
44 -6 52 -23 52 -10 0 -20 -6 -21 -12 0 -7 -2 -17 -2 -23 -1 -5 -6 -17 -11
-25 -7 -12 -10 -10 -16 10 -12 43 -10 108 4 113 10 4 115 2 126 -2z m-3274
-16 c0 -11 -123 -31 -132 -21 -3 3 -3 12 1 21 5 13 18 15 68 13 35 -2 63 -7
63 -13z m-621 -20 c7 -19 -2 -22 -81 -28 -63 -5 -80 2 -69 28 8 22 141 21 150
0z m9029 9 c3 -4 0 -16 -9 -28 -12 -17 -25 -21 -66 -21 -57 0 -76 -19 -28 -28
37 -8 39 -33 10 -101 -15 -37 -24 -46 -44 -46 -18 0 -27 8 -35 31 -25 72 -9
149 37 187 16 12 123 17 135 6z m-11205 -36 c-4 -44 -38 -53 -38 -10 0 32 7
42 27 42 10 0 13 -10 11 -32z m272 7 c0 -8 -9 -15 -20 -15 -11 0 -20 7 -20 15
0 8 9 15 20 15 11 0 20 -7 20 -15z m614 5 c16 -6 26 -17 26 -30 0 -17 -7 -20
-39 -20 -21 0 -53 -3 -70 -6 -29 -6 -31 -5 -31 23 0 16 3 33 7 36 10 10 78 8
107 -3z m4428 -47 l3 -58 104 0 104 0 13 40 13 40 -2 -50 -2 -50 -125 0 -125
0 -3 68 c-2 40 1 67 7 67 6 0 11 -26 13 -57z m-3784 25 c3 -16 -5 -18 -57 -18
-33 0 -63 5 -66 10 -13 21 9 31 63 28 45 -2 58 -7 60 -20z m-1326 -16 c5 -5 6
-34 2 -65 l-7 -57 -89 0 c-100 0 -100 1 -102 77 -1 28 4 47 14 54 17 12 169 4
182 -9z m9615 -9 c3 -7 -16 -13 -54 -15 -32 -2 -65 -6 -73 -9 -9 -2 -16 4 -18
19 -3 22 -2 23 69 20 44 -2 74 -8 76 -15z m-9011 -78 c1 -25 -2 -45 -6 -45 -9
0 -19 78 -11 86 11 11 16 0 17 -41z m81 30 c8 -23 -5 -31 -20 -13 -6 9 -19 18
-27 21 -8 3 -2 6 13 6 16 1 30 -5 34 -14z m3321 -26 c3 -29 -12 -45 -48 -51
-19 -2 -26 3 -34 23 -15 43 -2 61 41 57 32 -3 38 -7 41 -29z m-3364 6 c3 -8 1
-15 -3 -15 -5 0 -11 7 -15 15 -3 8 -1 15 3 15 5 0 11 -7 15 -15z m1229 9 c11
-11 -3 -24 -18 -18 -8 4 -12 10 -9 15 6 11 18 12 27 3z m2293 -4 l74 0 -16
-25 c-9 -14 -23 -25 -30 -25 -8 0 -14 -4 -14 -10 0 -11 -99 -13 -116 -2 -29
19 -17 79 13 68 8 -3 48 -6 89 -6z m-1620 -27 c13 2 24 0 24 -4 0 -5 -20 -9
-45 -9 -34 0 -45 4 -45 15 0 13 4 14 21 4 12 -6 32 -9 45 -6z m-1856 -28 c0
-30 -40 -59 -70 -50 -27 9 -26 25 3 27 12 0 29 2 37 2 9 1 14 10 13 24 -2 12
2 22 7 22 6 0 10 -11 10 -25z m1220 5 c0 -5 -7 -10 -16 -10 -8 0 -12 5 -9 10
3 6 10 10 16 10 5 0 9 -4 9 -10z m-643 -26 c21 -6 21 -6 2 -25 -22 -22 -39
-17 -39 12 0 21 4 22 37 13z m63 -9 c0 -8 -4 -15 -9 -15 -13 0 -22 16 -14 24
11 11 23 6 23 -9z m1879 9 c53 -11 34 -23 -34 -23 -61 1 -75 6 -58 22 8 9 51
9 92 1z m131 -74 c0 -96 7 -92 -160 -88 l-115 3 -3 78 c-2 48 1 77 8 77 6 0
10 -28 10 -70 l0 -71 118 3 117 3 3 73 c4 98 22 92 22 -8z m-751 54 c35 -7 17
-17 -37 -21 -26 -1 -56 -4 -67 -5 -29 -4 -25 25 5 33 23 6 40 5 99 -7z m6716
4 c1 -2 5 -58 9 -125 l7 -122 -24 -6 c-14 -4 -36 -5 -48 -2 -22 4 -21 5 9 12
l32 8 0 107 c0 122 0 122 -84 113 -38 -5 -46 -3 -46 10 0 14 11 16 71 12 39
-2 72 -5 74 -7z m-6623 -90 l-4 -78 -134 0 -134 0 0 81 c0 51 4 78 10 74 6 -3
10 -32 10 -64 0 -36 5 -63 13 -70 14 -11 158 -8 196 4 15 5 20 19 26 76 9 93
22 76 17 -23z m-752 65 c10 -9 -27 -23 -62 -23 -36 0 -50 15 -31 34 7 7 83 -2
93 -11z m48 -6 c2 -12 -3 -17 -17 -17 -15 0 -21 6 -21 21 0 25 33 22 38 -4z
m-1260 -28 c2 -13 -10 -16 -68 -17 -54 -1 -70 2 -70 13 0 25 133 30 138 4z
m605 5 c15 -3 26 -11 24 -17 -4 -13 -149 -15 -154 -1 -4 11 63 33 87 28 8 -2
28 -6 43 -10z m103 -139 c-3 -8 -33 -15 -73 -18 -37 -4 -94 -9 -127 -13 -72
-8 -76 -4 -76 94 0 55 3 73 13 69 8 -2 11 -22 9 -64 -3 -63 13 -94 40 -77 7 5
54 11 103 14 l90 5 2 58 c2 91 17 104 21 18 2 -41 1 -80 -2 -86z m381 85 c-4
-33 -3 -62 3 -65 5 -3 56 -3 113 1 l104 7 10 56 11 56 -2 -70 -1 -70 -130 0
-130 0 0 55 c0 55 9 90 21 90 4 0 4 -27 1 -60z m7355 -19 c-5 -68 -28 -69 -37
-1 -8 57 -1 74 23 61 13 -7 16 -20 14 -60z m-8610 -3 l3 -63 103 -1 c66 0 105
3 107 10 2 6 6 32 10 59 9 66 29 50 23 -20 -3 -29 -9 -58 -15 -64 -9 -9 -240
-15 -249 -6 -9 8 -16 97 -10 121 11 46 25 28 28 -36z m9063 31 c-8 -12 -35
-12 -35 0 0 11 22 20 33 14 4 -2 5 -9 2 -14z m-175 -68 c0 -57 11 -69 65 -67
22 1 66 3 98 4 l57 2 1 43 c0 23 4 51 9 62 7 18 8 18 15 -8 4 -15 4 -47 1 -72
l-7 -45 -77 -1 c-42 0 -90 -2 -107 -5 -57 -8 -73 2 -81 51 -7 50 2 99 16 90 6
-3 10 -28 10 -54z m-4296 -127 c12 -5 10 -11 -13 -30 -16 -13 -32 -24 -35 -24
-11 0 -6 36 6 48 14 14 20 14 42 6z m114 0 c34 -10 26 -24 -13 -24 -33 0 -43
8 -28 23 8 8 12 8 41 1z m-861 -49 c2 -7 -21 -9 -64 -7 -63 4 -69 2 -78 -20
-11 -26 -48 -31 -53 -7 -7 36 25 50 111 47 44 -2 82 -8 84 -13z m843 -20 c14
-17 9 -20 -57 -29 -43 -6 -59 3 -49 29 7 20 89 20 106 0z m-1733 -7 c-2 -9
-23 -12 -68 -10 -53 3 -69 0 -90 -17 -36 -28 -55 -9 -23 23 20 21 188 24 181
4z m-882 -38 c0 -12 -13 -14 -70 -12 -61 3 -73 1 -89 -17 -17 -19 -17 -21 -2
-27 20 -8 21 -28 1 -44 -13 -10 -15 -9 -16 11 -1 13 -1 27 0 31 0 4 -8 12 -19
18 -22 12 -26 30 -10 46 6 6 54 10 108 10 79 -1 97 -4 97 -16z m1738 13 c12
-12 -15 -33 -43 -33 -21 0 -30 -7 -40 -29 -6 -16 -9 -39 -5 -50 5 -18 12 -20
44 -15 27 4 40 2 50 -10 13 -15 6 -40 -9 -31 -16 10 -80 14 -80 5 0 -15 -38
-12 -43 3 -2 6 0 19 4 29 5 9 7 41 5 72 l-4 55 37 4 c67 7 78 7 84 0z m822
-23 c-3 -5 -17 -10 -31 -10 -13 0 -24 5 -24 10 0 6 14 10 31 10 17 0 28 -4 24
-10z m-3454 -17 c9 -11 -1 -13 -57 -13 -62 0 -70 -2 -90 -27 -23 -29 -54 -27
-54 3 0 40 28 53 111 52 53 -1 83 -6 90 -15z m1719 1 c25 -9 -7 -21 -56 -22
-42 -1 -61 9 -50 27 6 9 73 5 106 -5z m6612 -103 c-9 -24 -21 17 -20 74 l0 50
13 -54 c7 -30 10 -61 7 -70z m-4900 79 c7 -11 20 -20 30 -20 9 0 18 -6 21 -12
4 -10 7 -10 18 0 22 20 29 14 29 -28 0 -28 -4 -40 -15 -40 -20 0 -65 22 -65
32 0 4 -9 3 -20 -4 -30 -19 -44 1 -35 51 7 45 18 51 37 21z m-4311 -6 c21 -26
-3 -37 -51 -24 -51 14 -98 5 -120 -23 -29 -35 -53 0 -30 43 8 15 23 18 99 19
67 0 92 -4 102 -15z m-692 -141 c1 -59 9 -54 -94 -59 -27 -1 -111 -6 -186 -9
l-136 -8 -6 24 c-11 40 -8 166 3 149 5 -8 10 -46 10 -84 l0 -69 48 8 c26 4
112 10 192 14 l145 6 1 80 c1 44 3 85 4 90 4 17 18 -86 19 -142z m2411 128 c0
-16 -47 -30 -59 -18 -17 17 -13 25 17 29 30 4 42 1 42 -11z m-4206 -23 c-8
-12 -74 -10 -74 2 0 6 17 10 39 8 22 -1 38 -5 35 -10z m776 -3 c0 -8 -4 -15
-10 -15 -5 0 -10 7 -10 15 0 8 5 15 10 15 6 0 10 -7 10 -15z m2550 -5 c0 -17
-7 -20 -40 -20 -25 0 -41 -5 -41 -12 -7 -62 -6 -79 4 -74 7 3 20 9 30 12 9 4
17 12 17 19 0 7 7 18 15 25 13 10 15 9 15 -12 0 -16 -8 -29 -22 -35 -23 -11
-23 -11 5 -22 19 -7 27 -17 25 -28 -3 -14 -11 -17 -41 -15 -26 3 -45 -2 -57
-13 -10 -9 -24 -14 -29 -10 -15 9 -14 62 1 67 8 3 11 24 9 63 -3 67 4 75 67
75 35 0 42 -3 42 -20z m1707 -30 c15 0 27 8 32 23 l9 22 10 -25 c5 -14 12 -37
15 -52 7 -25 6 -26 -32 -21 -21 3 -47 0 -59 -6 -27 -14 -34 4 -25 67 7 45 7
46 17 20 7 -20 17 -28 33 -28z m-2607 15 c16 -19 3 -40 -16 -24 -21 17 -61
-13 -70 -53 -6 -29 -8 -30 -15 -13 -4 11 -8 37 -8 59 -1 35 1 38 22 33 12 -4
29 -2 37 3 21 14 36 12 50 -5z m-926 -3 c3 -5 30 -7 60 -5 44 2 56 -1 56 -12
0 -17 -25 -20 -35 -6 -6 11 -70 3 -99 -11 -25 -13 -44 5 -26 27 13 16 36 20
44 7z m9887 -114 c1 -40 2 -122 3 -183 l1 -110 -80 -6 c-86 -6 -90 -6 -80 10
3 6 35 11 71 11 l64 0 0 153 c0 83 -4 158 -8 164 -6 10 -23 10 -71 2 -46 -7
-67 -7 -75 1 -19 19 15 30 97 30 l77 0 1 -72z m-7227 50 c23 1 56 -15 56 -27
0 -5 -24 -11 -52 -13 -29 -2 -61 -8 -70 -12 -15 -7 -18 -3 -18 21 0 38 8 46
40 37 14 -4 34 -6 44 -6z m2596 -12 c0 -14 -4 -28 -10 -31 -6 -4 -10 7 -10 24
0 17 5 31 10 31 6 0 10 -11 10 -24z m3885 -8 c7 -44 13 -337 7 -360 -3 -14
-14 -18 -46 -18 -30 0 -37 3 -26 10 8 5 24 10 35 10 19 0 20 6 17 172 -1 95
-5 179 -7 186 -3 8 -30 12 -85 12 -52 0 -79 4 -75 10 3 6 44 10 90 10 l84 0 6
-32z m-2987 -20 c3 -40 -12 -52 -23 -17 -10 32 -30 16 -28 -22 4 -46 -6 -99
-17 -99 -6 0 -10 33 -10 74 0 81 15 110 54 104 16 -2 22 -11 24 -40z m3252 31
c0 -9 -77 -14 -133 -10 l-28 2 3 -161 c2 -130 6 -163 18 -170 8 -5 46 -10 84
-10 38 0 67 -3 63 -6 -9 -9 -175 -15 -181 -6 -2 4 -7 85 -10 180 -5 171 -5
173 17 182 29 11 167 10 167 -1z m-3061 -91 c1 -27 -3 -48 -9 -48 -6 0 -10 29
-9 68 1 77 17 59 18 -20z m2081 72 c0 -6 -27 -10 -72 -9 -40 1 -84 -1 -97 -5
-22 -8 -23 -11 -17 -65 4 -31 9 -108 12 -171 4 -63 11 -121 17 -128 8 -10 31
-12 99 -6 63 5 88 3 88 -5 0 -7 -26 -11 -74 -11 -40 0 -87 -3 -104 -6 l-30 -6
-6 68 c-4 38 -11 113 -16 166 -5 53 -7 117 -4 141 l6 45 99 1 c64 1 99 -2 99
-9z m-1831 -57 c-1 -47 -1 -47 -9 -14 -7 31 -4 61 6 61 2 0 4 -21 3 -47z
m-5649 1 c0 -25 -7 -28 -93 -38 l-48 -6 3 33 c3 31 5 32 58 37 70 7 80 3 80
-26z m8112 16 c4 -55 5 -55 -39 -55 -38 0 -44 3 -53 29 -13 39 -6 46 46 46 37
0 44 -3 46 -20z m687 -157 c0 -29 -3 -53 -7 -53 -5 0 -7 13 -4 30 6 39 -6 89
-17 71 -5 -8 -10 6 -14 36 -4 35 -1 54 11 73 17 25 17 25 23 -40 4 -36 7 -89
8 -117z m-5251 145 c-2 -13 -6 -22 -10 -20 -5 1 -24 2 -44 2 -21 0 -33 4 -29
10 3 6 19 10 36 10 16 0 29 5 29 10 0 6 5 10 11 10 6 0 9 -10 7 -22z m4801 5
c0 -5 -3 -9 -9 -11 -5 -2 -10 4 -10 13 0 16 16 14 19 -2z m-964 -9 c23 -9 48
-62 41 -90 -8 -32 -45 -32 -85 2 -60 50 -28 115 44 88z m1085 -11 c0 -10 -5
-25 -10 -33 -8 -13 -10 -12 -10 3 0 20 -4 21 -31 7 -10 -6 -19 -17 -19 -25 0
-17 -26 -20 -35 -5 -11 17 14 39 51 46 19 3 34 10 34 15 0 5 5 9 10 9 6 0 10
-8 10 -17z m1647 -18 c23 -24 9 -101 -20 -109 -31 -8 -50 20 -43 64 3 19 13
41 23 47 21 16 21 16 40 -2z m-4322 -16 c10 -14 1 -21 -34 -25 -16 -2 -33 -4
-38 -5 -22 -4 -33 3 -33 21 0 17 7 20 49 20 28 0 53 -5 56 -11z m-469 -10 c7
-11 -37 -21 -72 -17 -15 2 -29 8 -31 15 -5 14 94 15 103 2z m-3616 -13 c0 -2
-7 -6 -15 -10 -8 -3 -15 -1 -15 4 0 6 7 10 15 10 8 0 15 -2 15 -4z m6413 -11
c4 -8 2 -17 -3 -20 -6 -4 -10 -4 -10 -1 0 2 -3 11 -6 20 -3 9 -2 16 4 16 5 0
12 -7 15 -15z m-8163 -30 c0 -23 -4 -25 -46 -25 -56 0 -57 23 -1 28 20 2 37 7
37 13 0 5 2 9 5 9 3 0 5 -11 5 -25z m8511 -31 c9 -11 0 -84 -11 -84 -4 0 -7
19 -8 42 -1 23 -5 50 -8 60 -3 10 -2 23 3 30 5 9 9 5 11 -12 2 -14 8 -30 13
-36z m-5145 24 c4 -13 8 -77 9 -143 1 -66 7 -235 14 -375 19 -426 20 -456 11
-470 -20 -32 -30 6 -30 115 0 62 -4 157 -9 211 -16 163 -27 510 -21 672 0 20
18 14 26 -10z m4175 -15 c15 -39 8 -68 -16 -68 -17 0 -20 7 -21 40 0 22 2 43
4 48 7 15 23 6 33 -20z m-8088 -35 c7 -21 -4 -38 -23 -38 -14 0 -21 -11 -27
-42 -8 -39 -12 -43 -41 -46 -32 -3 -36 2 -33 41 1 9 -5 24 -13 33 -37 36 -1
71 37 36 l22 -21 28 25 c32 27 43 30 50 12z m647 -23 c80 -4 147 -8 149 -11 2
-2 -75 -4 -172 -4 -97 0 -177 4 -177 8 0 16 14 23 35 18 11 -3 85 -8 165 -11z
m613 8 c-7 -2 -21 -2 -30 0 -10 3 -4 5 12 5 17 0 24 -2 18 -5z m74 1 c-3 -3
-12 -4 -19 -1 -8 3 -5 6 6 6 11 1 17 -2 13 -5z m40 0 c-3 -3 -12 -4 -19 -1 -8
3 -5 6 6 6 11 1 17 -2 13 -5z m771 -22 c-13 -16 -25 -25 -27 -20 -4 11 28 48
41 48 5 0 -1 -13 -14 -28z m-2533 8 c7 -11 -42 -37 -51 -27 -9 9 15 37 32 37
7 0 16 -4 19 -10z m825 4 c0 -3 -9 -18 -20 -34 -21 -29 -69 -54 -93 -48 -25 5
2 71 33 79 32 9 80 11 80 3z m573 -1 c-35 -2 -91 -2 -125 0 -35 2 -7 3 62 3
69 0 97 -1 63 -3z m461 -8 c4 -12 0 -14 -22 -9 -41 10 -50 24 -15 24 18 0 33
-6 37 -15z m-1935 -4 c8 -5 9 -11 3 -15 -13 -8 -42 3 -42 15 0 11 21 11 39 0z
m3521 -20 c0 -5 -6 -14 -14 -21 -12 -9 -15 -8 -13 9 1 20 27 31 27 12z m-3487
-33 c3 -12 2 -30 -4 -40 -8 -14 -14 -16 -29 -8 -21 11 -24 27 -14 54 9 23 41
19 47 -6z m2621 -30 c-3 -4 -12 -8 -20 -8 -17 0 -19 27 -1 33 14 5 28 -13 21
-25z m4214 8 c3 -14 0 -17 -12 -13 -8 3 -32 -1 -51 -9 -37 -15 -55 -12 -55 10
0 25 25 37 70 34 35 -2 46 -7 48 -22z m3427 -2 c7 2 16 -2 19 -11 10 -24 5
-363 -5 -369 -9 -5 -11 11 -14 86 -1 19 -5 72 -9 117 -9 105 -14 213 -9 190 3
-10 11 -16 18 -13z m-8595 -9 c0 -15 -6 -25 -14 -25 -8 0 -22 -3 -31 -6 -16
-6 -16 -5 -1 25 20 38 46 41 46 6z m5510 -32 c0 -32 4 -64 9 -71 6 -10 34 -13
112 -10 l104 3 6 58 c9 85 19 82 19 -7 l0 -77 -132 3 -133 3 -3 78 c-2 48 1
77 8 77 6 0 10 -24 10 -57z m77 51 c-3 -3 -12 -4 -19 -1 -8 3 -5 6 6 6 11 1
17 -2 13 -5z m91 -1 c-10 -2 -28 -2 -40 0 -13 2 -5 4 17 4 22 1 32 -1 23 -4z
m-659 -123 l1 -35 104 2 c58 0 110 4 115 8 6 3 11 21 12 38 0 31 0 31 10 7 6
-13 7 -35 4 -47 -5 -21 -11 -23 -73 -24 -37 -1 -95 -2 -129 -3 l-62 -1 -5 35
c-10 64 -10 115 -1 130 10 16 23 -41 24 -110z m596 90 c3 -5 1 -10 -4 -10 -6
0 -11 5 -11 10 0 6 2 10 4 10 3 0 8 -4 11 -10z m-6927 -9 c25 -16 9 -46 -26
-49 -26 -3 -32 0 -32 15 0 35 30 52 58 34z m5992 -2 c0 -6 -14 -9 -33 -8 -18
2 -38 0 -45 -5 -17 -10 -45 1 -37 14 8 14 115 13 115 -1z m-6365 -23 c0 -5 -8
-14 -17 -20 -20 -12 -45 5 -33 24 8 13 50 10 50 -4z m6198 -33 c-4 -39 -2 -51
14 -65 16 -15 25 -16 54 -8 19 6 52 10 74 9 95 -3 97 -2 94 34 -3 49 0 67 11
67 7 0 10 -24 8 -62 l-3 -63 -31 3 c-18 2 -76 -2 -130 -7 -67 -7 -100 -7 -105
0 -8 13 -11 117 -4 130 15 23 24 5 18 -38z m-1373 13 c0 -3 -4 -8 -10 -11 -5
-3 -10 -1 -10 4 0 6 5 11 10 11 6 0 10 -2 10 -4z m-1850 -30 c0 -2 -7 -7 -16
-10 -8 -3 -12 -2 -9 4 6 10 25 14 25 6z m80 -13 c-1 -10 -62 -49 -91 -58 -39
-13 -16 18 32 42 48 24 59 27 59 16z m-1783 -9 c-3 -3 -12 -4 -19 -1 -8 3 -5
6 6 6 11 1 17 -2 13 -5z m-41 -13 c-3 -5 -17 -11 -32 -14 -29 -5 -20 9 11 16
11 3 21 5 23 6 2 0 1 -3 -2 -8z m3589 -21 c-10 -16 -65 -42 -65 -31 0 6 12 17
28 25 32 18 46 20 37 6z m-3585 -9 c0 -13 -49 -51 -66 -51 -7 0 -21 -11 -32
-25 -23 -29 -32 -32 -32 -9 0 11 -6 14 -22 8 -23 -7 -23 -6 2 18 45 45 150 86
150 59z m6430 -52 l44 -21 -23 -19 c-31 -26 -49 -24 -57 5 -4 16 -11 23 -20
19 -14 -5 -20 18 -7 30 10 10 15 9 63 -14z m-4708 -21 c-12 -13 -22 -17 -22
-11 0 15 31 46 38 38 3 -3 -4 -15 -16 -27z m4498 -18 c15 -28 13 -147 -2 -132
-6 6 -15 37 -19 68 -4 31 -9 57 -11 58 -2 1 -51 0 -110 -2 l-108 -4 0 -74 c0
-43 -4 -74 -10 -74 -6 0 -10 33 -10 80 0 74 1 80 23 85 32 7 72 10 160 12 66
1 79 -1 87 -17z m293 12 c9 -14 -5 -62 -18 -62 -13 0 -27 48 -18 62 2 5 10 8
18 8 8 0 16 -3 18 -8z m-789 -58 c8 -64 8 -84 -3 -84 -5 0 -13 24 -16 54 -8
63 -19 71 -78 55 -23 -6 -62 -8 -87 -5 -69 9 -79 -4 -68 -88 2 -10 -3 -21 -9
-23 -10 -3 -13 10 -13 49 0 29 4 58 8 65 9 15 46 20 163 22 l96 1 7 -46z
m-506 14 c14 -14 17 -148 3 -148 -6 0 -13 31 -17 70 l-7 70 -105 -6 c-59 -2
-108 -7 -111 -9 -2 -3 -5 -35 -5 -72 -2 -96 -20 -85 -24 14 l-3 82 53 4 c125
8 204 7 216 -5z m812 -14 c0 -8 -4 -12 -10 -9 -5 3 -10 10 -10 16 0 5 5 9 10
9 6 0 10 -7 10 -16z m1914 -15 c8 -7 -95 -29 -136 -29 -30 0 -37 14 -14 27 17
9 141 11 150 2z m68 -16 c6 -16 13 -108 16 -215 l4 -188 -62 0 c-38 0 -59 4
-55 10 3 6 26 10 51 10 l44 0 -5 163 c-6 168 -9 200 -20 230 -12 29 15 19 27
-10z m751 20 c8 -13 13 -350 6 -357 -3 -3 -41 -7 -84 -9 -55 -1 -79 2 -82 11
-4 9 15 12 71 12 41 0 76 3 78 8 2 4 1 77 -2 162 l-5 155 -75 1 c-92 2 -92 2
-87 12 7 10 174 15 180 5z m-3689 -32 c14 -15 14 -20 3 -30 -21 -17 -47 -3
-45 25 3 29 19 31 42 5z m3212 8 c4 -7 -5 -10 -27 -8 -54 3 -103 -1 -118 -10
-14 -9 -15 -22 -13 -203 l2 -118 85 0 c52 0 85 -4 85 -10 0 -7 -33 -10 -92 -8
l-93 3 -9 127 c-5 70 -5 152 -1 183 l6 55 84 0 c50 0 87 -4 91 -11z m-966 -9
c0 -6 -38 -10 -94 -10 -91 0 -94 -1 -100 -24 -3 -13 -1 -100 4 -192 5 -93 10
-171 10 -173 0 -2 41 -1 90 1 50 3 90 2 90 -2 0 -15 -32 -20 -121 -20 l-89 0
-1 148 c0 81 -2 171 -2 201 -3 72 11 81 125 81 52 0 88 -4 88 -10z m-1165 -29
c13 -5 -4 -10 -55 -13 -82 -6 -96 -4 -59 11 29 12 86 13 114 2z m790 -1 c6
-10 -51 -50 -72 -50 -26 0 -12 31 20 45 39 17 44 18 52 5z m983 -7 c5 -10 12
-42 16 -71 l7 -54 -23 16 c-29 21 -48 20 -48 -1 0 -14 -2 -15 -12 -4 -11 10
-8 16 12 31 14 11 20 20 15 20 -6 0 -17 -6 -23 -12 -17 -17 -32 6 -32 49 0 32
2 33 67 42 7 0 16 -7 21 -16z m767 7 c3 -5 2 -10 -4 -10 -5 0 -13 5 -16 10 -3
6 -2 10 4 10 5 0 13 -4 16 -10z m-503 -12 c7 -19 -2 -38 -18 -38 -15 0 -17 9
-8 34 7 19 20 21 26 4z m111 -18 c-3 -11 -12 -20 -19 -20 -17 0 -18 12 -2 28
18 18 27 15 21 -8z m315 -115 c1 -61 -2 -83 -8 -68 -8 19 -14 152 -10 193 5
43 18 -47 18 -125z m-2958 115 c0 -9 -98 -19 -117 -12 -32 10 -7 20 52 20 36
0 65 -4 65 -8z m1568 -18 c6 -9 12 -26 12 -39 0 -17 -6 -23 -23 -23 -13 0 -28
5 -35 12 -12 12 -17 60 -6 71 9 8 37 -3 52 -21z m72 17 c0 -17 -20 -49 -31
-49 -16 0 -22 29 -9 45 14 17 40 20 40 4z m-2142 -31 c4 -23 -59 -49 -99 -41
-31 6 -55 36 -44 54 4 5 35 9 73 7 54 -2 67 -6 70 -20z m3092 -7 c0 -12 -20
-25 -27 -18 -7 7 6 27 18 27 5 0 9 -4 9 -9z m-40 -26 c0 -16 -27 -32 -37 -21
-7 7 16 36 28 36 5 0 9 -7 9 -15z m82 -50 c4 -17 3 -34 -2 -39 -14 -14 -20 -4
-27 39 -5 29 -3 37 7 33 8 -2 17 -17 22 -33z m-987 -30 c0 -48 -17 -71 -29
-40 -9 24 5 96 18 92 6 -2 11 -25 11 -52z m2675 24 c0 -5 4 -8 9 -5 5 4 8 -2
6 -11 -2 -10 -4 -21 -4 -25 -2 -21 -19 -4 -23 22 -3 17 -1 30 4 30 4 0 8 -5 8
-11z m-73 -36 c-3 -10 -5 -4 -5 12 0 17 2 24 5 18 2 -7 2 -21 0 -30z m-4892 7
c0 -18 -33 -26 -47 -12 -6 6 -7 15 -3 22 10 16 50 8 50 -10z m4945 2 c0 -10
-5 -23 -11 -29 -7 -7 -1 -19 20 -41 l30 -30 -29 -4 c-16 -3 -33 -2 -38 1 -10
7 -7 94 3 111 10 16 25 12 25 -8z m-3505 -52 c8 -25 -5 -51 -24 -48 -9 2 -17
13 -19 26 -2 14 -10 22 -23 22 -18 0 -26 20 -13 32 10 11 74 -15 79 -32z
m1845 -5 c0 -8 -4 -15 -10 -15 -5 0 -10 7 -10 15 0 8 5 15 10 15 6 0 10 -7 10
-15z m1620 5 c0 -5 -4 -10 -10 -10 -5 0 -10 5 -10 10 0 6 5 10 10 10 6 0 10
-4 10 -10z m-3800 -20 c12 -8 11 -10 -6 -10 -12 0 -37 -3 -55 -6 -32 -5 -33
-5 -15 10 22 18 54 20 76 6z m408 -22 c-2 -21 -8 -33 -18 -33 -19 0 -25 32
-10 50 20 24 31 17 28 -17z m-358 7 c0 -8 -4 -15 -9 -15 -13 0 -22 16 -14 24
11 11 23 6 23 -9z m-1036 -11 c9 -3 16 -15 16 -25 0 -17 -8 -19 -65 -19 -57 0
-65 2 -65 19 0 11 6 22 13 24 18 8 83 8 101 1z m373 -134 c4 -4 53 -2 108 4
l100 11 5 57 c7 77 20 85 20 12 0 -107 6 -102 -134 -106 -66 -2 -123 -2 -125
0 -9 5 -13 112 -5 139 6 23 9 17 15 -41 4 -38 11 -72 16 -76z m106 133 c-7 -2
-21 -2 -30 0 -10 3 -4 5 12 5 17 0 24 -2 18 -5z m379 -58 l3 -50 110 0 110 0
3 53 c4 71 22 66 22 -7 l0 -58 -67 -11 c-38 -6 -97 -7 -133 -4 -71 8 -77 15
-79 93 -2 74 26 59 31 -16z m4438 -6 c0 -6 -4 -7 -10 -4 -5 3 -10 11 -10 16 0
6 5 7 10 4 6 -3 10 -11 10 -16z m-5332 -85 c59 2 108 5 110 5 1 1 8 13 14 29
l12 27 4 -30 c6 -48 -16 -56 -148 -53 l-115 3 -3 44 c-2 24 0 51 5 60 5 10 9
-2 11 -37 l3 -52 107 4z m4360 28 c-2 -11 7 -18 27 -22 28 -6 26 -7 -19 -15
-49 -8 -76 0 -84 23 -2 7 3 12 11 12 8 0 20 6 27 14 14 18 41 9 38 -12z m919
2 c-3 -3 -12 -4 -19 -1 -8 3 -5 6 6 6 11 1 17 -2 13 -5z m-1396 -69 c94 -60
106 -214 23 -299 -27 -28 -45 -36 -103 -47 -62 -11 -75 -10 -113 5 -56 22
-105 83 -114 141 -9 66 11 137 50 172 50 47 66 52 144 53 61 0 79 -4 113 -25z
m-9371 -12 c-1 -5 -12 -21 -25 -38 l-25 -30 0 31 c0 17 3 34 7 37 9 9 43 9 43
0z m8954 -135 c3 -18 10 -176 17 -352 9 -249 9 -320 -1 -326 -17 -10 -184 -19
-510 -26 -151 -4 -279 -9 -283 -11 -5 -3 -180 -11 -390 -19 -461 -17 -747 -30
-1007 -44 -107 -6 -346 -15 -530 -20 -184 -6 -371 -14 -415 -19 -44 -6 -156
-12 -248 -14 -133 -4 -170 -2 -181 9 -17 16 -26 168 -29 484 l-2 225 60 1
c138 3 683 24 840 34 94 5 253 12 355 15 102 3 327 12 500 20 590 27 775 35
1095 46 176 6 367 14 425 18 58 5 149 9 202 10 l97 1 5 -32z m-5157 -65 c-3
-10 -5 -4 -5 12 0 17 2 24 5 18 2 -7 2 -21 0 -30z m-78 -43 c0 -8 -6 -26 -13
-40 -13 -23 -14 -21 -18 39 -1 34 -1 65 2 68 6 6 29 -47 29 -67z m51 50 c0 -5
-5 -10 -11 -10 -5 0 -7 5 -4 10 3 6 8 10 11 10 2 0 4 -4 4 -10z m-1776 -39
c10 -16 -46 -28 -76 -17 -16 6 -28 14 -28 18 0 11 98 10 104 -1z m1806 -61
c-7 -13 -21 -20 -40 -20 -39 0 -47 17 -11 25 18 4 31 14 35 28 6 20 7 20 17 5
7 -12 7 -24 -1 -38z m870 39 c14 -1 3 -5 -25 -8 -57 -7 -60 -7 -50 9 4 7 17 9
29 6 11 -3 32 -6 46 -7z m-2752 -65 l-4 -29 -12 28 c-13 31 -7 56 10 39 5 -5
8 -22 6 -38z m-1698 8 c0 -4 -16 -6 -35 -4 -19 2 -35 6 -35 8 0 2 16 4 35 4
19 0 35 -4 35 -8z m3456 -22 c0 -21 -11 -26 -21 -10 -7 11 2 30 13 30 4 0 8
-9 8 -20z m-3555 -12 c1 -7 2 -26 3 -42 1 -22 6 -30 24 -32 13 -2 31 0 40 5
22 11 42 4 42 -15 0 -10 -14 -14 -54 -14 -54 0 -55 0 -58 -32 -3 -32 -24 -44
-22 -13 0 8 1 47 2 85 1 39 6 70 12 70 6 0 11 -6 11 -12z m1899 -14 c0 -11
-14 -14 -60 -14 l-61 0 7 -35 c7 -39 -8 -48 -26 -16 -13 26 -13 27 11 50 15
14 30 18 54 14 21 -3 37 0 46 10 16 17 29 13 29 -9z m-1790 -3 c0 -11 -4 -23
-10 -26 -6 -4 -10 5 -10 19 0 14 5 26 10 26 6 0 10 -9 10 -19z m2564 -30 c-2
-2 -11 -1 -20 3 -14 5 -14 9 -3 22 12 14 14 14 20 -3 3 -10 5 -20 3 -22z
m-328 17 c4 -6 10 -77 13 -157 l6 -146 155 0 c85 0 161 -4 168 -8 6 -5 12 -28
12 -52 l0 -43 -47 -11 c-27 -6 -101 -12 -166 -13 l-119 -3 6 -50 c3 -27 7 -93
8 -146 3 -104 -4 -123 -52 -141 -21 -8 -28 -5 -47 17 -21 23 -23 37 -23 124 0
54 -3 119 -6 145 l-7 46 -154 -1 c-93 -1 -158 2 -164 8 -6 6 -9 26 -7 44 5 50
31 59 179 59 84 0 129 4 137 12 8 8 12 59 12 163 0 84 3 155 7 158 11 12 81 8
89 -5z m8271 -20 c28 -14 155 -6 161 10 6 18 22 14 22 -5 -1 -27 -37 -101 -70
-143 -54 -69 -198 -124 -228 -87 -5 6 -13 40 -17 74 -6 52 -4 62 11 71 11 6
15 16 11 26 -4 10 -1 19 8 22 8 4 15 12 15 20 0 30 37 35 87 12z m-9627 -6 c0
-16 -8 -19 -52 -18 -31 1 -53 6 -56 14 -2 7 2 10 10 7 10 -4 74 5 96 14 1 1 2
-7 2 -17z m-110 -52 c0 -5 -2 -10 -4 -10 -3 0 -8 5 -11 10 -3 6 -1 10 4 10 6
0 11 -4 11 -10z m-706 -13 c-3 -8 -11 -14 -19 -14 -11 0 -12 4 -4 14 6 7 15
13 20 13 5 0 6 -6 3 -13z m4296 -13 c13 -33 10 -37 -82 -133 -43 -44 -78 -82
-78 -85 0 -3 7 -6 15 -6 8 0 15 -3 15 -8 0 -4 34 -50 75 -102 83 -105 94 -142
43 -148 -21 -2 -32 4 -50 30 -53 76 -134 168 -149 168 -8 0 -26 -14 -38 -31
-21 -28 -23 -40 -18 -95 4 -51 1 -66 -13 -79 -22 -20 -48 -10 -57 24 -4 14 -7
124 -7 245 -1 196 1 220 16 230 32 20 43 -8 48 -121 l5 -106 119 121 c66 67
126 122 133 122 7 0 18 -12 23 -26z m-507 -8 c50 -20 99 -85 121 -157 52 -176
-41 -349 -188 -349 -77 0 -139 42 -174 118 -23 49 -27 70 -27 147 0 136 40
204 141 240 50 18 86 18 127 1z m7354 -188 c-3 -8 -6 -5 -6 6 -1 11 2 17 5 13
3 -3 4 -12 1 -19z m-13079 -38 c53 -78 57 -215 8 -314 -31 -64 -62 -84 -162
-107 -43 -10 -55 -9 -80 5 -23 13 -24 15 -6 10 23 -6 23 -5 16 43 -3 26 -11
56 -16 66 -11 21 7 117 30 162 35 69 150 180 177 172 6 -2 20 -18 33 -37z
m13079 -57 c-3 -10 -5 -4 -5 12 0 17 2 24 5 18 2 -7 2 -21 0 -30z m-10381 -48
c24 -24 24 -26 9 -55 -18 -35 -25 -37 -180 -45 -373 -18 -560 -23 -581 -15
-20 8 -24 17 -24 47 0 21 4 43 8 49 8 12 329 33 562 37 74 2 145 4 158 5 13 1
33 -8 48 -23z m-1346 -665 c-36 -12 -110 -12 -110 0 0 6 29 10 68 9 49 -1 60
-3 42 -9z m-272 -7 c-10 -2 -26 -2 -35 0 -10 3 -2 5 17 5 19 0 27 -2 18 -5z"/>
<path d="M7497 8132 c-12 -13 -17 -37 -17 -84 0 -126 17 -155 86 -142 55 10
64 26 64 110 0 72 -10 111 -34 126 -22 15 -83 8 -99 -10z"/>
<path d="M6625 8113 c-31 -8 -45 -23 -45 -49 0 -39 75 -61 112 -31 23 17 31
52 16 65 -17 14 -58 21 -83 15z"/>
<path d="M6603 7954 c-16 -7 -17 -56 -1 -72 17 -17 93 -15 107 2 7 8 11 27 9
43 -3 26 -6 28 -53 30 -27 1 -56 0 -62 -3z"/>
<path d="M6337 8035 c-10 -14 -14 -25 -10 -25 14 1 43 27 43 39 0 18 -14 12
-33 -14z"/>
<path d="M4858 8004 c-21 -19 -38 -37 -38 -40 0 -2 32 -4 70 -4 80 0 87 10 42
53 -15 15 -30 27 -33 27 -2 0 -21 -16 -41 -36z"/>
<path d="M3674 7945 c-18 -14 -18 -14 8 -15 20 0 26 4 22 15 -7 18 -6 18 -30
0z"/>
<path d="M7095 7570 c-3 -5 -1 -10 4 -10 6 0 11 5 11 10 0 6 -2 10 -4 10 -3 0
-8 -4 -11 -10z"/>
<path d="M7120 7573 c0 -6 15 -26 33 -46 27 -28 39 -34 61 -30 19 4 24 9 17
16 -6 6 -11 15 -11 21 0 5 6 3 13 -6 17 -21 66 -32 83 -17 33 27 9 47 -66 54
-19 2 -56 7 -82 10 -30 5 -48 4 -48 -2z"/>
<path d="M6778 7563 c17 -2 47 -2 65 0 17 2 3 4 -33 4 -36 0 -50 -2 -32 -4z"/>
<path d="M6920 7545 c-9 -24 -50 -37 -50 -15 0 6 -9 10 -19 10 -11 0 -23 -4
-26 -10 -3 -5 -12 -10 -18 -10 -7 0 -6 4 3 10 8 5 10 10 5 10 -6 0 -21 -7 -33
-16 -25 -17 -66 -10 -59 10 4 10 -5 11 -36 5 -23 -5 -71 -13 -105 -19 -43 -7
-75 -20 -98 -37 -18 -15 -32 -28 -31 -29 1 -1 27 2 58 5 30 4 71 3 90 -1 41
-9 119 0 119 14 0 6 14 8 33 4 63 -11 267 36 267 61 0 19 -25 33 -57 33 -27 0
-35 -5 -43 -25z"/>
<path d="M7510 7561 c0 -5 5 -13 10 -16 6 -3 10 -2 10 4 0 5 -4 13 -10 16 -5
3 -10 2 -10 -4z"/>
<path d="M7595 7510 c-3 -5 -1 -10 4 -10 6 0 11 5 11 10 0 6 -2 10 -4 10 -3 0
-8 -4 -11 -10z"/>
<path d="M5528 7503 c7 -3 16 -2 19 1 4 3 -2 6 -13 5 -11 0 -14 -3 -6 -6z"/>
<path d="M6377 7489 c7 -7 15 -10 18 -7 3 3 -2 9 -12 12 -14 6 -15 5 -6 -5z"/>
<path d="M7155 7470 c-19 -8 -19 -9 3 -9 12 -1 22 4 22 9 0 6 -1 10 -2 9 -2 0
-12 -4 -23 -9z"/>
<path d="M7545 7466 c-18 -13 -18 -14 0 -32 18 -19 19 -19 12 0 -4 10 -2 25 4
32 15 18 8 18 -16 0z"/>
<path d="M7046 7459 c-16 -4 -33 -6 -37 -3 -11 6 -62 -7 -54 -14 8 -8 119 -2
128 8 14 13 -6 18 -37 9z"/>
<path d="M4028 7453 c7 -3 16 -2 19 1 4 3 -2 6 -13 5 -11 0 -14 -3 -6 -6z"/>
<path d="M7110 7450 c0 -5 5 -10 10 -10 6 0 10 5 10 10 0 6 -4 10 -10 10 -5 0
-10 -4 -10 -10z"/>
<path d="M11888 6901 c12 -11 41 -22 65 -26 23 -4 50 -13 60 -20 15 -11 12
-14 -30 -29 -66 -24 -78 -31 -81 -50 -4 -16 32 -24 41 -8 3 4 36 18 74 31 77
27 126 60 115 77 -8 13 -175 44 -231 44 l-36 -1 23 -18z"/>
<path d="M12204 6759 c3 -17 6 -53 6 -80 0 -39 3 -47 15 -43 8 4 15 17 15 29
0 20 7 25 53 34 28 5 78 13 110 16 37 4 57 11 57 20 0 16 -64 29 -87 16 -10
-5 -45 -11 -78 -12 -59 -4 -60 -4 -63 24 -2 16 -9 27 -19 27 -12 0 -14 -7 -9
-31z"/>
<path d="M12041 6734 c-19 -14 -27 -14 -46 -4 -31 17 -57 10 -74 -21 -23 -42
8 -115 47 -107 26 5 25 27 -2 38 -31 12 -34 35 -5 51 17 9 25 7 43 -10 29 -27
34 -26 46 4 12 32 54 34 71 3 10 -18 8 -24 -7 -35 -10 -7 -21 -13 -26 -13 -12
0 -10 -28 2 -35 14 -9 70 49 70 73 0 11 -9 31 -21 46 -24 30 -63 34 -98 10z"/>
<path d="M11680 6724 c-51 -16 -70 -36 -70 -75 0 -40 21 -56 85 -64 83 -10
155 23 155 71 0 38 -11 54 -47 69 -42 18 -63 18 -123 -1z m109 -35 c38 -14 40
-34 4 -52 -68 -35 -153 -28 -153 12 0 25 14 33 65 42 22 4 43 7 46 8 3 0 20
-4 38 -10z"/>
<path d="M12222 6594 c3 -16 17 -21 81 -28 80 -9 94 -23 41 -39 -68 -20 -104
-40 -104 -59 0 -10 5 -18 10 -18 10 0 108 38 155 60 11 5 33 14 48 20 19 6 27
16 25 27 -3 18 -66 33 -196 48 -59 7 -64 6 -60 -11z"/>
<path d="M12035 6550 c-26 -27 -28 -33 -18 -60 14 -36 9 -41 -29 -28 -28 10
-30 13 -25 49 4 28 1 39 -8 39 -29 0 -34 -69 -7 -93 25 -23 94 -36 141 -27 70
13 96 47 79 103 -9 30 -16 37 -37 37 -14 0 -35 3 -46 6 -14 3 -29 -4 -50 -26z
m93 -22 c34 -34 1 -72 -52 -62 -28 5 -36 11 -36 28 0 29 18 46 50 46 14 0 31
-5 38 -12z"/>
<path d="M11825 6510 c-3 -5 -20 -10 -36 -10 -17 0 -61 -5 -99 -11 l-69 -12
24 -29 c14 -16 25 -34 25 -39 0 -5 5 -9 10 -9 6 0 10 11 10 25 0 33 27 43 109
43 34 0 65 2 68 5 2 3 2 15 -2 26 -7 22 -29 28 -40 11z"/>
<path d="M11398 6475 c5 -11 12 -27 15 -35 5 -13 6 -13 6 1 1 8 -6 24 -15 35
-15 19 -15 19 -6 -1z"/>
<path d="M11430 6398 c0 -9 5 -20 10 -23 13 -8 13 5 0 25 -8 13 -10 13 -10 -2z"/>
<path d="M10845 7270 c3 -5 8 -10 11 -10 2 0 4 5 4 10 0 6 -5 10 -11 10 -5 0
-7 -4 -4 -10z"/>
<path d="M8101 7053 c-1 -6 -4 -20 -7 -30 -5 -17 -5 -17 6 0 6 10 9 23 6 30
-3 9 -5 9 -5 0z"/>
<path d="M8120 7015 c-10 -12 -10 -15 4 -15 9 0 16 7 16 15 0 8 -2 15 -4 15
-2 0 -9 -7 -16 -15z"/>
<path d="M9903 7203 c-14 -5 -17 -42 -7 -93 l7 -32 52 5 c71 7 115 31 115 62
0 38 -44 65 -104 64 -28 0 -57 -3 -63 -6z"/>
<path d="M9587 7183 c-12 -12 -7 -61 8 -76 21 -21 125 -14 142 9 18 24 16 61
-3 68 -21 8 -139 8 -147 -1z"/>
<path d="M9031 7153 c-61 -62 -47 -232 22 -264 97 -44 148 153 70 268 -5 6
-20 14 -35 18 -22 6 -33 1 -57 -22z"/>
<path d="M1243 6313 c-32 -3 -43 -8 -43 -21 0 -9 -5 -34 -11 -55 -8 -31 -14
-38 -30 -34 -10 3 -21 2 -24 -3 -8 -13 72 -19 117 -8 24 5 70 7 103 4 63 -7
87 1 91 29 2 11 -1 13 -9 7 -19 -16 -92 -24 -141 -17 -38 6 -47 12 -52 32 -4
13 -2 29 5 36 6 6 50 13 98 15 49 2 92 8 98 13 9 9 -113 10 -202 2z"/>
<path d="M1110 6290 c0 -5 7 -10 15 -10 8 0 15 5 15 10 0 6 -7 10 -15 10 -8 0
-15 -4 -15 -10z"/>
<path d="M1253 5813 c-7 -2 -13 -11 -13 -18 0 -7 -18 -20 -40 -29 -34 -14 -40
-20 -40 -46 0 -16 4 -30 9 -30 5 0 7 9 4 19 -3 13 2 23 16 31 27 14 43 5 39
-23 -2 -16 2 -21 17 -21 11 1 52 2 90 4 l70 3 -65 6 c-58 5 -65 8 -68 29 -2
13 1 29 7 36 6 8 9 21 5 30 -6 17 -10 18 -31 9z"/>
<path d="M1295 5811 c-3 -6 1 -14 9 -17 20 -8 51 -1 51 11 0 14 -52 19 -60 6z"/>
<path d="M1690 5406 c0 -9 5 -16 10 -16 6 0 10 4 10 9 0 6 -4 13 -10 16 -5 3
-10 -1 -10 -9z"/>
<path d="M1214 4755 c-19 -14 -18 -15 6 -34 20 -16 23 -22 13 -32 -18 -18 -16
-27 6 -34 13 -4 17 -12 14 -25 -4 -14 0 -20 11 -20 9 0 16 -4 16 -10 0 -5 5
-10 10 -10 14 0 12 37 -2 44 -9 4 -10 8 -2 11 44 21 45 29 9 70 -19 22 -35 43
-35 47 0 13 -25 9 -46 -7z"/>
<path d="M1167 4643 c-12 -11 -7 -33 7 -33 12 0 26 20 26 36 0 7 -26 5 -33 -3z"/>
<path d="M1215 4600 c-3 -5 3 -10 15 -10 12 0 18 5 15 10 -3 6 -10 10 -15 10
-5 0 -12 -4 -15 -10z"/>
<path d="M1443 4546 c-38 -12 -43 -26 -10 -26 36 0 68 12 64 23 -5 15 -17 16
-54 3z"/>
<path d="M1498 4523 c-25 -6 -23 -43 2 -43 11 0 20 4 20 9 0 5 3 16 6 25 6 16
3 17 -28 9z"/>
<path d="M1310 4496 c-55 -12 -51 -26 6 -26 13 0 24 -4 24 -10 0 -15 -35 -30
-69 -30 -37 0 -38 -8 -7 -37 25 -25 88 -31 116 -13 13 8 12 10 -2 10 -27 0
-25 66 3 80 16 9 18 14 8 26 -6 8 -14 13 -18 13 -3 -1 -31 -7 -61 -13z"/>
<path d="M1305 3990 c-3 -5 3 -10 14 -10 48 0 35 -43 -19 -59 -61 -18 -65 -40
-10 -56 24 -7 24 -6 6 7 -23 18 -13 38 20 38 17 0 24 -6 24 -19 0 -11 -6 -22
-12 -24 -7 -3 -3 -6 9 -6 21 -1 49 30 37 41 -2 3 -1 24 4 46 9 39 9 40 -21 46
-40 8 -45 8 -52 -4z"/>
<path d="M1285 2937 c-55 -5 -103 -15 -107 -21 -6 -8 -8 -7 -8 2 0 6 -11 12
-25 12 -15 0 -25 -6 -25 -15 0 -11 -8 -13 -31 -8 -25 5 -31 3 -27 -8 6 -16 50
-20 60 -5 5 7 11 7 20 -2 10 -10 10 -14 -1 -21 -7 -5 -10 -14 -7 -20 9 -13 66
26 66 46 0 7 5 13 10 13 6 0 10 -11 10 -25 0 -14 -4 -25 -9 -25 -5 0 -11 -9
-14 -20 -7 -26 21 -41 66 -38 18 1 39 -2 47 -8 29 -17 58 -11 75 18 9 15 22
28 29 28 18 0 17 72 -1 93 -9 9 -19 16 -22 16 -3 -1 -51 -6 -106 -12z"/>
<path d="M1484 2759 c-16 -17 -51 -43 -79 -59 -54 -31 -75 -72 -75 -145 l0
-36 23 27 c28 33 57 27 57 -11 0 -26 23 -35 36 -13 5 7 8 44 9 82 0 68 1 70
33 89 21 12 41 17 57 13 32 -8 31 -20 0 -52 -14 -14 -25 -27 -25 -29 0 -5 42
8 62 20 20 12 38 105 21 105 -6 0 -20 9 -33 20 -32 28 -51 25 -86 -11z m-74
-119 c0 -13 -7 -20 -18 -20 -26 0 -34 11 -21 27 17 20 39 16 39 -7z"/>
<path d="M1336 2154 c-5 -13 -1 -15 18 -10 13 3 31 9 40 12 11 4 16 0 16 -13
0 -27 -31 -53 -63 -53 -29 0 -39 -10 -28 -29 5 -8 26 -11 62 -9 l53 3 9 43
c11 56 -2 72 -58 72 -30 0 -45 -5 -49 -16z"/>
<path d="M4085 6750 c3 -5 11 -10 16 -10 6 0 7 5 4 10 -3 6 -11 10 -16 10 -6
0 -7 -4 -4 -10z"/>
<path d="M8085 6240 c10 -11 19 -19 19 -18 1 2 8 11 15 21 12 15 10 17 -19 17
-32 0 -33 0 -15 -20z"/>
<path d="M8662 6268 c-18 -18 -15 -43 8 -63 23 -21 47 -14 59 17 16 41 -37 76
-67 46z"/>
<path d="M10940 5675 c0 -16 27 -32 37 -21 7 7 -16 36 -28 36 -5 0 -9 -7 -9
-15z"/>
<path d="M10840 5666 c0 -17 52 -37 69 -26 8 4 1 13 -22 24 -43 20 -47 20 -47
2z"/>
<path d="M10868 5563 c7 -3 16 -2 19 1 4 3 -2 6 -13 5 -11 0 -14 -3 -6 -6z"/>
<path d="M8180 5230 c-12 -8 -9 -10 13 -10 15 0 27 5 27 10 0 13 -20 13 -40 0z"/>
<path d="M8697 5203 c-4 -3 -7 -33 -7 -66 l0 -59 91 4 c81 3 93 6 110 27 24
30 24 56 -1 81 -17 17 -33 20 -103 20 -46 0 -87 -3 -90 -7z"/>
<path d="M12771 4554 c0 -11 3 -14 6 -6 3 7 2 16 -1 19 -3 4 -6 -2 -5 -13z"/>
<path d="M13574 4545 c-8 -21 3 -47 19 -43 6 3 13 14 15 25 4 24 -26 40 -34
18z"/>
<path d="M12791 4450 c0 -19 4 -42 9 -50 7 -11 10 -8 9 15 0 17 -4 39 -9 50
-7 16 -9 14 -9 -15z"/>
<path d="M12800 4318 c0 -35 5 -70 10 -78 7 -10 10 7 10 57 0 39 -4 75 -10 78
-6 4 -10 -17 -10 -57z"/>
<path d="M12806 4152 c-3 -5 -2 -29 3 -53 l7 -44 8 43 c8 42 -4 77 -18 54z"/>
<path d="M12935 1970 c-13 -21 17 -40 65 -40 63 0 69 11 18 31 -50 21 -74 23
-83 9z"/>
<path d="M14490 4391 c0 -11 4 -22 10 -26 5 -3 6 -13 3 -23 -6 -16 -6 -16 11
0 12 12 15 25 10 40 -6 20 -5 21 10 9 14 -12 16 -11 16 3 0 11 -9 16 -30 16
-23 0 -30 -5 -30 -19z"/>
<path d="M9195 4171 c-7 -12 12 -24 25 -16 11 7 4 25 -10 25 -5 0 -11 -4 -15
-9z"/>
<path d="M6875 3660 c3 -5 11 -10 16 -10 6 0 7 5 4 10 -3 6 -11 10 -16 10 -6
0 -7 -4 -4 -10z"/>
<path d="M12511 1721 c-14 -25 -14 -107 -1 -132 21 -37 30 -18 30 60 0 81 -11
107 -29 72z"/>
<path d="M12730 1713 c0 -14 -8 -35 -17 -45 -15 -17 -15 -21 0 -53 21 -44 42
-45 57 -1 10 31 8 53 -7 109 -7 28 -33 21 -33 -10z"/>
<path d="M12613 1723 c-18 -7 -16 -27 5 -46 17 -16 19 -16 31 7 20 36 2 55
-36 39z"/>
<path d="M12605 1590 c4 -19 2 -36 -5 -45 -6 -8 -9 -19 -5 -25 8 -13 75 -13
95 0 12 8 11 12 -8 30 -12 11 -29 32 -38 45 -24 37 -47 33 -39 -5z"/>
<path d="M11905 1605 c-165 -7 -426 -18 -580 -24 -154 -6 -377 -16 -495 -22
-118 -6 -278 -14 -355 -18 l-140 -6 4 -265 c2 -146 5 -266 6 -268 4 -4 310 -2
405 2 36 2 144 8 240 14 96 7 247 14 335 16 465 13 903 28 923 32 21 4 22 7
21 132 0 70 -4 186 -8 259 -8 128 -18 165 -45 162 -6 -1 -146 -8 -311 -14z
m273 -38 c6 -7 16 -85 21 -172 7 -129 6 -165 -5 -199 -29 -81 -74 -106 -191
-106 -63 0 -83 4 -109 22 -59 40 -67 72 -72 276 l-4 183 78 -3 79 -3 6 -180
c3 -99 9 -190 13 -202 9 -27 37 -37 82 -29 54 11 59 30 56 221 -1 93 1 177 4
187 6 21 27 23 42 5z m-601 -19 c5 -7 23 -44 38 -83 46 -112 56 -119 73 -47 6
26 20 68 31 95 18 41 24 47 51 47 16 0 30 -5 30 -11 0 -7 -20 -72 -45 -145
-41 -120 -45 -141 -45 -228 l0 -96 -79 0 -79 0 -4 93 c-5 88 -8 98 -68 225
-35 75 -59 137 -54 142 21 20 137 26 151 8z m-400 -22 c4 -4 11 -93 15 -199 4
-106 10 -209 12 -229 4 -44 -3 -48 -89 -48 l-62 0 -7 38 c-3 20 -6 74 -6 120
l0 83 -42 -3 -43 -3 -3 -117 -3 -117 -32 -6 c-18 -4 -50 -5 -72 -3 -52 4 -54
15 -62 269 l-6 206 33 6 c18 4 54 7 81 7 l48 0 3 -92 3 -93 41 -3 c38 -3 42
-1 48 24 4 14 4 57 0 94 l-6 68 28 5 c36 6 113 2 121 -7z m231 -78 c1 -51 4
-151 7 -223 3 -71 2 -136 -3 -143 -5 -7 -35 -13 -78 -15 -67 -2 -69 -1 -70 23
-4 130 -16 334 -20 371 -8 65 9 79 94 79 l67 0 3 -92z m-658 41 c0 -32 -15
-65 -74 -169 -21 -36 -44 -78 -52 -95 -8 -16 -25 -48 -39 -70 -39 -63 -37 -65
70 -65 93 0 95 0 95 -23 0 -23 -4 -24 -107 -32 -60 -5 -144 -9 -188 -9 l-80
-1 1 36 c1 20 10 50 21 65 11 16 46 79 78 139 32 61 67 125 77 143 11 18 18
36 14 39 -3 3 -44 5 -91 4 -71 -2 -86 1 -91 14 -4 9 -3 20 2 25 8 8 147 20
312 27 52 2 52 2 52 -28z"/>
<path d="M9838 1518 c-13 -3 -57 -7 -98 -8 -41 -1 -93 -7 -115 -14 -33 -9 -41
-16 -43 -40 -3 -26 -2 -28 23 -22 25 6 26 5 20 -26 -15 -79 -25 -73 120 -70
294 7 389 12 397 25 5 6 7 23 6 37 -3 29 -15 29 -148 12 -98 -13 -266 -19
-276 -9 -23 23 26 32 209 38 106 4 198 8 205 8 7 1 12 14 12 31 0 17 -6 33
-12 35 -22 7 -276 10 -300 3z"/>
<path d="M9257 1472 c-47 -48 -52 -92 -9 -92 15 0 41 9 57 20 23 15 47 20 102
20 61 0 74 3 83 19 21 40 4 51 -80 51 -44 0 -82 5 -85 10 -11 18 -31 10 -68
-28z"/>
<path d="M9018 1483 c-49 -2 -88 -7 -88 -11 1 -28 15 -52 31 -52 24 0 24 -20
-2 -80 -11 -26 -19 -61 -17 -76 3 -27 6 -29 48 -29 45 0 45 0 48 -37 3 -36 2
-37 -35 -43 -59 -10 -63 -13 -61 -40 2 -25 9 -28 58 -26 34 2 49 -10 55 -44 8
-42 -5 -55 -60 -63 -27 -4 -48 -10 -47 -14 1 -5 2 -17 2 -29 0 -11 4 -18 9
-14 5 3 49 5 98 6 126 0 155 6 151 33 -3 18 -10 21 -48 22 l-45 1 0 49 0 49
38 3 c39 3 43 12 31 59 -5 18 -11 21 -39 16 -26 -4 -35 -1 -44 15 -16 30 -4
49 37 59 41 10 57 44 47 101 -5 25 -11 32 -29 32 -18 0 -25 -7 -29 -29 -5 -25
-13 -31 -42 -37 -54 -10 -61 5 -31 65 l26 51 54 0 c44 0 55 3 58 18 9 40 -3
52 -46 50 -22 -1 -80 -4 -128 -5z"/>
<path d="M9419 1353 c-7 -15 -17 -44 -24 -63 -17 -47 -41 -50 -58 -8 -17 40
-40 61 -64 56 -24 -5 -19 -38 18 -112 41 -83 44 -112 19 -179 -12 -31 -27 -60
-35 -64 -15 -9 -24 -37 -12 -40 4 -2 20 -3 37 -3 24 0 33 7 50 40 23 45 36 50
46 18 11 -39 35 -58 71 -58 45 0 54 25 20 53 -30 25 -64 88 -73 132 -4 21 4
54 26 109 40 99 44 140 13 144 -17 3 -26 -4 -34 -25z"/>
<path d="M9795 1299 c-60 -4 -123 -10 -140 -13 l-31 -6 4 -140 c4 -122 3 -140
-12 -146 -9 -3 -16 -17 -16 -31 0 -22 3 -24 42 -21 42 3 43 4 50 47 4 24 9 45
10 47 3 2 52 5 295 19 72 4 97 -5 74 -28 -6 -6 -57 -13 -113 -16 -86 -5 -103
-9 -106 -23 -3 -15 11 -17 130 -20 73 -2 140 0 149 4 23 10 25 32 21 196 l-4
142 -121 -1 c-67 -1 -171 -5 -232 -10z m280 -64 c0 -5 -12 -15 -25 -22 -33
-15 -340 -27 -360 -14 -30 20 7 31 135 40 159 11 250 9 250 -4z m-7 -96 c3
-17 12 -16 -275 -35 -88 -6 -103 -4 -103 8 0 9 6 20 13 26 14 12 123 19 272
18 75 -1 90 -4 93 -17z"/>
<path d="M9968 1133 c7 -3 16 -2 19 1 4 3 -2 6 -13 5 -11 0 -14 -3 -6 -6z"/>
<path d="M7325 1224 c-37 -37 -55 -88 -55 -156 0 -71 25 -125 75 -163 45 -35
83 -27 129 26 65 77 61 211 -10 285 -41 44 -99 48 -139 8z"/>
</g>
</svg>
